M48
; DRILL file {KiCad 6.0.11+dfsg-1} date Пт 15 дек 2023 22:29:33
; FORMAT={-:-/ absolute / inch / decimal}
; #@! TF.CreationDate,2023-12-15T22:29:33+03:00
; #@! TF.GenerationSoftware,Kicad,Pcbnew,6.0.11+dfsg-1
; #@! TF.FileFunction,Plated,1,2,PTH
FMAT,2
INCH
; #@! TA.AperFunction,Plated,PTH,ViaDrill
T1C0.0157
; #@! TA.AperFunction,Plated,PTH,ComponentDrill
T2C0.0354
; #@! TA.AperFunction,Plated,PTH,ComponentDrill
T3C0.0362
; #@! TA.AperFunction,Plated,PTH,ComponentDrill
T4C0.0394
; #@! TA.AperFunction,Plated,PTH,ComponentDrill
T5C0.0433
; #@! TA.AperFunction,Plated,PTH,ComponentDrill
T6C0.0709
; #@! TA.AperFunction,Plated,PTH,ComponentDrill
T7C0.0906
%
G90
G05
T1
X2.2646Y-3.4539
X2.3303Y-2.4886
X2.403Y-2.7643
X2.5073Y-2.6785
X2.5187Y-3.3761
X2.575Y-2.7651
X2.5947Y-2.6178
X2.6185Y-3.422
X2.6315Y-3.9701
X2.6547Y-3.0
X2.7419Y-2.6796
X2.7427Y-2.6304
X2.7496Y-2.7634
X2.7955Y-2.8092
X2.8059Y-2.5996
X2.8283Y-3.9717
X2.836Y-2.8481
X2.8496Y-3.472
X2.8559Y-4.2043
X2.863Y-3.8114
X2.8713Y-2.7827
X2.8752Y-2.9421
X2.8898Y-2.8917
X2.903Y-3.7819
X2.9094Y-3.2012
X2.922Y-2.6354
X2.9567Y-4.2031
X2.957Y-3.8606
X2.9594Y-3.2004
X2.9634Y-4.4496
X2.9749Y-3.4352
X2.991Y-3.4998
X3.0248Y-3.8
X3.0323Y-2.7811
X3.0382Y-3.6949
X3.0493Y-3.4998
X3.0792Y-3.3715
X3.0855Y-3.3124
X3.0925Y-4.4598
X3.1012Y-3.6799
X3.1063Y-4.2059
X3.1087Y-3.4998
X3.1154Y-2.7276
X3.1157Y-2.8394
X3.127Y-3.7397
X3.1555Y-3.848
X3.1772Y-3.4984
X3.1772Y-3.6819
X3.2087Y-4.2051
X3.2182Y-3.6435
X3.2413Y-3.2642
X3.3264Y-2.9839
X3.3264Y-3.0284
X3.3264Y-3.073
X3.3264Y-3.1176
X3.3264Y-3.1622
T2
X2.8429Y-4.5853
X2.8831Y-4.5153
X2.9232Y-4.5853
X2.9634Y-4.5153
X3.0035Y-4.5853
X3.0437Y-4.5153
X3.0839Y-4.5853
X3.124Y-4.5153
T3
X2.9157Y-2.3157
X3.0142Y-2.3157
X3.0929Y-2.3157
X3.1913Y-2.3157
T4
X2.7134Y-4.3255
X2.8035Y-4.3255
X3.1634Y-4.3255
X3.2535Y-4.3255
T5
X2.3433Y-3.8744
X2.4433Y-3.8744
X2.5433Y-3.8744
T6
X2.6636Y-4.5582
X3.3033Y-4.5503
T7
X2.7949Y-2.2091
X3.3122Y-2.2091
T0
M30
