%TF.GenerationSoftware,KiCad,Pcbnew,6.0.11+dfsg-1*%
%TF.CreationDate,2023-12-11T15:54:39+03:00*%
%TF.ProjectId,mr107,6d723130-372e-46b6-9963-61645f706362,rev?*%
%TF.SameCoordinates,Original*%
%TF.FileFunction,Soldermask,Bot*%
%TF.FilePolarity,Negative*%
%FSLAX46Y46*%
G04 Gerber Fmt 4.6, Leading zero omitted, Abs format (unit mm)*
G04 Created by KiCad (PCBNEW 6.0.11+dfsg-1) date 2023-12-11 15:54:39*
%MOMM*%
%LPD*%
G01*
G04 APERTURE LIST*
G04 Aperture macros list*
%AMRoundRect*
0 Rectangle with rounded corners*
0 $1 Rounding radius*
0 $2 $3 $4 $5 $6 $7 $8 $9 X,Y pos of 4 corners*
0 Add a 4 corners polygon primitive as box body*
4,1,4,$2,$3,$4,$5,$6,$7,$8,$9,$2,$3,0*
0 Add four circle primitives for the rounded corners*
1,1,$1+$1,$2,$3*
1,1,$1+$1,$4,$5*
1,1,$1+$1,$6,$7*
1,1,$1+$1,$8,$9*
0 Add four rect primitives between the rounded corners*
20,1,$1+$1,$2,$3,$4,$5,0*
20,1,$1+$1,$4,$5,$6,$7,0*
20,1,$1+$1,$6,$7,$8,$9,0*
20,1,$1+$1,$8,$9,$2,$3,0*%
G04 Aperture macros list end*
%ADD10RoundRect,0.135000X-0.185000X0.135000X-0.185000X-0.135000X0.185000X-0.135000X0.185000X0.135000X0*%
%ADD11R,0.400000X1.900000*%
%ADD12RoundRect,0.075000X0.075000X-0.662500X0.075000X0.662500X-0.075000X0.662500X-0.075000X-0.662500X0*%
%ADD13RoundRect,0.075000X0.662500X-0.075000X0.662500X0.075000X-0.662500X0.075000X-0.662500X-0.075000X0*%
%ADD14RoundRect,0.250000X0.475000X-0.250000X0.475000X0.250000X-0.475000X0.250000X-0.475000X-0.250000X0*%
%ADD15RoundRect,0.140000X0.140000X0.170000X-0.140000X0.170000X-0.140000X-0.170000X0.140000X-0.170000X0*%
%ADD16C,1.000000*%
%ADD17RoundRect,0.225000X-0.250000X0.225000X-0.250000X-0.225000X0.250000X-0.225000X0.250000X0.225000X0*%
%ADD18R,0.550000X1.600000*%
%ADD19R,1.600000X0.550000*%
%ADD20R,1.500000X2.000000*%
%ADD21R,3.800000X2.000000*%
%ADD22RoundRect,0.200000X0.200000X0.275000X-0.200000X0.275000X-0.200000X-0.275000X0.200000X-0.275000X0*%
%ADD23R,1.400000X1.200000*%
%ADD24R,0.800000X1.000000*%
%ADD25C,1.500000*%
%ADD26C,1.800000*%
%ADD27C,3.000000*%
%ADD28RoundRect,0.135000X-0.135000X-0.185000X0.135000X-0.185000X0.135000X0.185000X-0.135000X0.185000X0*%
%ADD29RoundRect,0.200000X-0.275000X0.200000X-0.275000X-0.200000X0.275000X-0.200000X0.275000X0.200000X0*%
%ADD30RoundRect,0.218750X-0.218750X-0.256250X0.218750X-0.256250X0.218750X0.256250X-0.218750X0.256250X0*%
%ADD31R,1.524000X1.524000*%
%ADD32C,1.524000*%
%ADD33C,3.500000*%
%ADD34RoundRect,0.140000X0.170000X-0.140000X0.170000X0.140000X-0.170000X0.140000X-0.170000X-0.140000X0*%
%ADD35RoundRect,0.062500X0.062500X-0.662500X0.062500X0.662500X-0.062500X0.662500X-0.062500X-0.662500X0*%
%ADD36RoundRect,0.062500X0.662500X-0.062500X0.662500X0.062500X-0.662500X0.062500X-0.662500X-0.062500X0*%
%ADD37RoundRect,0.140000X-0.170000X0.140000X-0.170000X-0.140000X0.170000X-0.140000X0.170000X0.140000X0*%
%ADD38RoundRect,0.140000X-0.140000X-0.170000X0.140000X-0.170000X0.140000X0.170000X-0.140000X0.170000X0*%
%ADD39RoundRect,0.250000X-1.025000X0.787500X-1.025000X-0.787500X1.025000X-0.787500X1.025000X0.787500X0*%
%ADD40RoundRect,0.218750X0.381250X-0.218750X0.381250X0.218750X-0.381250X0.218750X-0.381250X-0.218750X0*%
%ADD41RoundRect,0.225000X0.225000X0.250000X-0.225000X0.250000X-0.225000X-0.250000X0.225000X-0.250000X0*%
%ADD42RoundRect,0.250000X-0.250000X-0.475000X0.250000X-0.475000X0.250000X0.475000X-0.250000X0.475000X0*%
%ADD43RoundRect,0.250000X-0.475000X0.250000X-0.475000X-0.250000X0.475000X-0.250000X0.475000X0.250000X0*%
%ADD44R,0.700000X1.670000*%
%ADD45RoundRect,0.200000X0.275000X-0.200000X0.275000X0.200000X-0.275000X0.200000X-0.275000X-0.200000X0*%
%ADD46R,1.400000X1.800000*%
%ADD47R,1.905000X2.000000*%
%ADD48O,1.905000X2.000000*%
%ADD49RoundRect,0.218750X0.256250X-0.218750X0.256250X0.218750X-0.256250X0.218750X-0.256250X-0.218750X0*%
G04 APERTURE END LIST*
D10*
%TO.C,R11*%
X72686814Y-94980000D03*
X72686814Y-96000000D03*
%TD*%
%TO.C,R1*%
X73736814Y-94979214D03*
X73736814Y-95999214D03*
%TD*%
D11*
%TO.C,Y3*%
X67790000Y-61613000D03*
X66590000Y-61613000D03*
X65390000Y-61613000D03*
%TD*%
D12*
%TO.C,U1*%
X81055000Y-91096714D03*
X80555000Y-91096714D03*
X80055000Y-91096714D03*
X79555000Y-91096714D03*
X79055000Y-91096714D03*
X78555000Y-91096714D03*
X78055000Y-91096714D03*
X77555000Y-91096714D03*
X77055000Y-91096714D03*
X76555000Y-91096714D03*
X76055000Y-91096714D03*
X75555000Y-91096714D03*
D13*
X74142500Y-89684214D03*
X74142500Y-89184214D03*
X74142500Y-88684214D03*
X74142500Y-88184214D03*
X74142500Y-87684214D03*
X74142500Y-87184214D03*
X74142500Y-86684214D03*
X74142500Y-86184214D03*
X74142500Y-85684214D03*
X74142500Y-85184214D03*
X74142500Y-84684214D03*
X74142500Y-84184214D03*
D12*
X75555000Y-82771714D03*
X76055000Y-82771714D03*
X76555000Y-82771714D03*
X77055000Y-82771714D03*
X77555000Y-82771714D03*
X78055000Y-82771714D03*
X78555000Y-82771714D03*
X79055000Y-82771714D03*
X79555000Y-82771714D03*
X80055000Y-82771714D03*
X80555000Y-82771714D03*
X81055000Y-82771714D03*
D13*
X82467500Y-84184214D03*
X82467500Y-84684214D03*
X82467500Y-85184214D03*
X82467500Y-85684214D03*
X82467500Y-86184214D03*
X82467500Y-86684214D03*
X82467500Y-87184214D03*
X82467500Y-87684214D03*
X82467500Y-88184214D03*
X82467500Y-88684214D03*
X82467500Y-89184214D03*
X82467500Y-89684214D03*
%TD*%
D14*
%TO.C,C17*%
X66885000Y-93925000D03*
X66885000Y-92025000D03*
%TD*%
D15*
%TO.C,C18*%
X72392500Y-86244214D03*
X71432500Y-86244214D03*
%TD*%
D16*
%TO.C,J6*%
X56915000Y-68923000D03*
%TD*%
D17*
%TO.C,C8*%
X56915000Y-70358000D03*
X56915000Y-71908000D03*
%TD*%
D18*
%TO.C,U2*%
X60590000Y-64663000D03*
X61390000Y-64663000D03*
X62190000Y-64663000D03*
X62990000Y-64663000D03*
X63790000Y-64663000D03*
X64590000Y-64663000D03*
X65390000Y-64663000D03*
X66190000Y-64663000D03*
D19*
X67640000Y-66113000D03*
X67640000Y-66913000D03*
X67640000Y-67713000D03*
X67640000Y-68513000D03*
X67640000Y-69313000D03*
X67640000Y-70113000D03*
X67640000Y-70913000D03*
X67640000Y-71713000D03*
D18*
X66190000Y-73163000D03*
X65390000Y-73163000D03*
X64590000Y-73163000D03*
X63790000Y-73163000D03*
X62990000Y-73163000D03*
X62190000Y-73163000D03*
X61390000Y-73163000D03*
X60590000Y-73163000D03*
D19*
X59140000Y-71713000D03*
X59140000Y-70913000D03*
X59140000Y-70113000D03*
X59140000Y-69313000D03*
X59140000Y-68513000D03*
X59140000Y-67713000D03*
X59140000Y-66913000D03*
X59140000Y-66113000D03*
%TD*%
D20*
%TO.C,U3*%
X66275000Y-88795000D03*
X63975000Y-88795000D03*
D21*
X63975000Y-82495000D03*
D20*
X61675000Y-88795000D03*
%TD*%
D22*
%TO.C,R14*%
X65670000Y-79915000D03*
X64020000Y-79915000D03*
%TD*%
D23*
%TO.C,Y1*%
X75990000Y-77560000D03*
X78190000Y-77560000D03*
X78190000Y-79260000D03*
X75990000Y-79260000D03*
%TD*%
D16*
%TO.C,J7*%
X69715000Y-75573000D03*
%TD*%
D24*
%TO.C,D5*%
X62750000Y-115965000D03*
X60210000Y-115965000D03*
X60210000Y-109815000D03*
X62750000Y-109815000D03*
%TD*%
D16*
%TO.C,J3*%
X71005000Y-71373000D03*
%TD*%
D15*
%TO.C,C16*%
X72385000Y-85184214D03*
X71425000Y-85184214D03*
%TD*%
D25*
%TO.C,J10*%
X72210000Y-116467500D03*
X73230000Y-114687500D03*
X74250000Y-116467500D03*
X75270000Y-114687500D03*
X76290000Y-116467500D03*
X77310000Y-114687500D03*
X78330000Y-116467500D03*
X79350000Y-114687500D03*
D26*
X68920000Y-109867500D03*
X71210000Y-109867500D03*
X80350000Y-109867500D03*
X82640000Y-109867500D03*
D27*
X67655000Y-115777500D03*
X83905000Y-115577500D03*
%TD*%
D28*
%TO.C,R2*%
X77540000Y-80680000D03*
X78560000Y-80680000D03*
%TD*%
D29*
%TO.C,R16*%
X84910000Y-102395000D03*
X84910000Y-104045000D03*
%TD*%
D30*
%TO.C,D3*%
X61027500Y-79915000D03*
X62602500Y-79915000D03*
%TD*%
D31*
%TO.C,J1*%
X74060000Y-58820000D03*
D32*
X76560000Y-58820000D03*
X78560000Y-58820000D03*
X81060000Y-58820000D03*
D33*
X84130000Y-56110000D03*
X70990000Y-56110000D03*
%TD*%
D34*
%TO.C,C20*%
X75797500Y-95949214D03*
X75797500Y-94989214D03*
%TD*%
%TO.C,C19*%
X76800000Y-95960000D03*
X76800000Y-95000000D03*
%TD*%
D35*
%TO.C,D1*%
X79860000Y-74300000D03*
X79360000Y-74300000D03*
X78860000Y-74300000D03*
X78360000Y-74300000D03*
X77860000Y-74300000D03*
X77360000Y-74300000D03*
X76860000Y-74300000D03*
X76360000Y-74300000D03*
D36*
X74910000Y-72850000D03*
X74910000Y-72350000D03*
X74910000Y-71850000D03*
X74910000Y-71350000D03*
X74910000Y-70850000D03*
X74910000Y-70350000D03*
X74910000Y-69850000D03*
X74910000Y-69350000D03*
D35*
X76360000Y-67900000D03*
X76860000Y-67900000D03*
X77360000Y-67900000D03*
X77860000Y-67900000D03*
X78360000Y-67900000D03*
X78860000Y-67900000D03*
X79360000Y-67900000D03*
X79860000Y-67900000D03*
D36*
X81310000Y-69350000D03*
X81310000Y-69850000D03*
X81310000Y-70350000D03*
X81310000Y-70850000D03*
X81310000Y-71350000D03*
X81310000Y-71850000D03*
X81310000Y-72350000D03*
X81310000Y-72850000D03*
%TD*%
D37*
%TO.C,C3*%
X74490000Y-77720000D03*
X74490000Y-78680000D03*
%TD*%
D38*
%TO.C,C28*%
X74850000Y-93990000D03*
X75810000Y-93990000D03*
%TD*%
D39*
%TO.C,C2*%
X57410000Y-87637500D03*
X57410000Y-93862500D03*
%TD*%
D16*
%TO.C,J4*%
X69715000Y-72563000D03*
%TD*%
D28*
%TO.C,R10*%
X76250000Y-92900000D03*
X77270000Y-92900000D03*
%TD*%
D40*
%TO.C,L3*%
X61085000Y-93962500D03*
X61085000Y-91837500D03*
%TD*%
D41*
%TO.C,C26*%
X84645000Y-68410000D03*
X83095000Y-68410000D03*
%TD*%
D29*
%TO.C,R15*%
X86430000Y-102395000D03*
X86430000Y-104045000D03*
%TD*%
D17*
%TO.C,C4*%
X63815000Y-75588000D03*
X63815000Y-77138000D03*
%TD*%
D42*
%TO.C,C9*%
X63135000Y-91825000D03*
X65035000Y-91825000D03*
%TD*%
D16*
%TO.C,J8*%
X56925000Y-65903000D03*
%TD*%
D10*
%TO.C,R6*%
X77822500Y-94979214D03*
X77822500Y-95999214D03*
%TD*%
D37*
%TO.C,C24*%
X80972500Y-94989214D03*
X80972500Y-95949214D03*
%TD*%
D10*
%TO.C,R12*%
X74797500Y-94979214D03*
X74797500Y-95999214D03*
%TD*%
D16*
%TO.C,J9*%
X71320000Y-66030000D03*
%TD*%
D10*
%TO.C,R7*%
X78897500Y-94979214D03*
X78897500Y-95999214D03*
%TD*%
D16*
%TO.C,J2*%
X56915000Y-67413000D03*
%TD*%
D42*
%TO.C,C1*%
X63135000Y-94100000D03*
X65035000Y-94100000D03*
%TD*%
D43*
%TO.C,C10*%
X68970000Y-82500000D03*
X68970000Y-84400000D03*
%TD*%
D37*
%TO.C,C23*%
X79947500Y-94989214D03*
X79947500Y-95949214D03*
%TD*%
D44*
%TO.C,D4*%
X72531814Y-98205000D03*
X73801814Y-98205000D03*
X75071814Y-98205000D03*
X76341814Y-98205000D03*
X77611814Y-98205000D03*
X78881814Y-98205000D03*
X80151814Y-98205000D03*
X81421814Y-98205000D03*
X81421814Y-106735000D03*
X80151814Y-106735000D03*
X78881814Y-106735000D03*
X77611814Y-106735000D03*
X76341814Y-106735000D03*
X75071814Y-106735000D03*
X73801814Y-106735000D03*
X72531814Y-106735000D03*
%TD*%
D45*
%TO.C,R5*%
X61035000Y-62548000D03*
X61035000Y-60898000D03*
%TD*%
D46*
%TO.C,Y2*%
X84930000Y-61920000D03*
X84930000Y-66320000D03*
X82530000Y-66320000D03*
X82530000Y-61920000D03*
%TD*%
D14*
%TO.C,C29*%
X85170000Y-100940000D03*
X85170000Y-99040000D03*
%TD*%
D45*
%TO.C,R3*%
X78440000Y-63355000D03*
X78440000Y-61705000D03*
%TD*%
%TO.C,R4*%
X76970000Y-63355000D03*
X76970000Y-61705000D03*
%TD*%
D34*
%TO.C,C5*%
X79650000Y-78900000D03*
X79650000Y-77940000D03*
%TD*%
D47*
%TO.C,U4*%
X64600000Y-98410000D03*
D48*
X62060000Y-98410000D03*
X59520000Y-98410000D03*
%TD*%
D17*
%TO.C,C27*%
X80730000Y-64535000D03*
X80730000Y-66085000D03*
%TD*%
D16*
%TO.C,J5*%
X71040000Y-73838000D03*
%TD*%
D49*
%TO.C,D2*%
X62505000Y-62510500D03*
X62505000Y-60935500D03*
%TD*%
M02*
