M48
; DRILL file {KiCad 6.0.11+dfsg-1} date Пн 11 дек 2023 15:54:55
; FORMAT={-:-/ absolute / metric / decimal}
; #@! TF.CreationDate,2023-12-11T15:54:55+03:00
; #@! TF.GenerationSoftware,Kicad,Pcbnew,6.0.11+dfsg-1
; #@! TF.FileFunction,MixedPlating,1,2
FMAT,2
METRIC
; #@! TA.AperFunction,Plated,PTH,ViaDrill
T1C0.400
; #@! TA.AperFunction,Plated,PTH,ComponentDrill
T2C0.900
; #@! TA.AperFunction,Plated,PTH,ComponentDrill
T3C0.920
; #@! TA.AperFunction,Plated,PTH,ComponentDrill
T4C1.000
; #@! TA.AperFunction,Plated,PTH,ComponentDrill
T5C1.100
; #@! TA.AperFunction,Plated,PTH,ComponentDrill
T6C1.800
; #@! TA.AperFunction,Plated,PTH,ComponentDrill
T7C2.300
%
G90
G05
T1
X59.19Y-63.21
X61.035Y-70.213
X61.415Y-88.535
X63.685Y-68.033
X63.975Y-85.753
X65.405Y-70.233
X65.905Y-66.493
X66.51Y-86.92
X67.43Y-76.2
X69.645Y-68.063
X69.665Y-66.813
X69.84Y-70.19
X71.005Y-71.353
X71.27Y-66.03
X72.035Y-72.343
X72.38Y-88.19
X72.54Y-106.79
X72.72Y-96.81
X72.93Y-70.68
X73.03Y-74.73
X73.4Y-73.45
X73.737Y-96.06
X73.9Y-81.31
X74.22Y-66.94
X75.1Y-106.76
X75.107Y-98.06
X75.17Y-81.29
X75.27Y-113.02
X75.562Y-87.255
X75.972Y-88.895
X76.83Y-96.52
X77.02Y-70.64
X77.17Y-93.85
X77.452Y-88.895
X78.212Y-85.635
X78.372Y-84.135
X78.55Y-113.28
X78.77Y-93.47
X78.9Y-106.83
X78.962Y-88.895
X79.13Y-69.28
X79.14Y-72.12
X79.426Y-94.989
X80.15Y-97.74
X80.7Y-88.86
X80.7Y-93.52
X81.5Y-106.81
X81.742Y-92.545
X82.74Y-82.33
X84.49Y-75.79
X84.49Y-76.922
X84.49Y-78.055
X84.49Y-79.188
X84.49Y-80.32
T2
X72.21Y-116.468
X73.23Y-114.688
X74.25Y-116.468
X75.27Y-114.688
X76.29Y-116.468
X77.31Y-114.688
X78.33Y-116.468
X79.35Y-114.688
T3
X74.06Y-58.82
X76.56Y-58.82
X78.56Y-58.82
X81.06Y-58.82
T4
X68.92Y-109.867
X71.21Y-109.867
X80.35Y-109.867
X82.64Y-109.867
T5
X59.52Y-98.41
X62.06Y-98.41
X64.6Y-98.41
T6
X67.655Y-115.777
X83.905Y-115.578
T7
X70.99Y-56.11
X84.13Y-56.11
T0
M30
