%TF.GenerationSoftware,KiCad,Pcbnew,6.0.11+dfsg-1*%
%TF.CreationDate,2023-12-11T15:54:38+03:00*%
%TF.ProjectId,mr107,6d723130-372e-46b6-9963-61645f706362,rev?*%
%TF.SameCoordinates,Original*%
%TF.FileFunction,Copper,L1,Top*%
%TF.FilePolarity,Positive*%
%FSLAX46Y46*%
G04 Gerber Fmt 4.6, Leading zero omitted, Abs format (unit mm)*
G04 Created by KiCad (PCBNEW 6.0.11+dfsg-1) date 2023-12-11 15:54:38*
%MOMM*%
%LPD*%
G01*
G04 APERTURE LIST*
G04 Aperture macros list*
%AMRoundRect*
0 Rectangle with rounded corners*
0 $1 Rounding radius*
0 $2 $3 $4 $5 $6 $7 $8 $9 X,Y pos of 4 corners*
0 Add a 4 corners polygon primitive as box body*
4,1,4,$2,$3,$4,$5,$6,$7,$8,$9,$2,$3,0*
0 Add four circle primitives for the rounded corners*
1,1,$1+$1,$2,$3*
1,1,$1+$1,$4,$5*
1,1,$1+$1,$6,$7*
1,1,$1+$1,$8,$9*
0 Add four rect primitives between the rounded corners*
20,1,$1+$1,$2,$3,$4,$5,0*
20,1,$1+$1,$4,$5,$6,$7,0*
20,1,$1+$1,$6,$7,$8,$9,0*
20,1,$1+$1,$8,$9,$2,$3,0*%
G04 Aperture macros list end*
%TA.AperFunction,SMDPad,CuDef*%
%ADD10RoundRect,0.250000X-0.250000X-0.475000X0.250000X-0.475000X0.250000X0.475000X-0.250000X0.475000X0*%
%TD*%
%TA.AperFunction,SMDPad,CuDef*%
%ADD11RoundRect,0.218750X-0.381250X0.218750X-0.381250X-0.218750X0.381250X-0.218750X0.381250X0.218750X0*%
%TD*%
%TA.AperFunction,SMDPad,CuDef*%
%ADD12RoundRect,0.225000X0.250000X-0.225000X0.250000X0.225000X-0.250000X0.225000X-0.250000X-0.225000X0*%
%TD*%
%TA.AperFunction,SMDPad,CuDef*%
%ADD13RoundRect,0.225000X0.225000X0.250000X-0.225000X0.250000X-0.225000X-0.250000X0.225000X-0.250000X0*%
%TD*%
%TA.AperFunction,SMDPad,CuDef*%
%ADD14RoundRect,0.200000X-0.275000X0.200000X-0.275000X-0.200000X0.275000X-0.200000X0.275000X0.200000X0*%
%TD*%
%TA.AperFunction,SMDPad,CuDef*%
%ADD15RoundRect,0.225000X-0.250000X0.225000X-0.250000X-0.225000X0.250000X-0.225000X0.250000X0.225000X0*%
%TD*%
%TA.AperFunction,SMDPad,CuDef*%
%ADD16RoundRect,0.225000X-0.225000X-0.250000X0.225000X-0.250000X0.225000X0.250000X-0.225000X0.250000X0*%
%TD*%
%TA.AperFunction,ComponentPad*%
%ADD17C,1.500000*%
%TD*%
%TA.AperFunction,ComponentPad*%
%ADD18C,1.800000*%
%TD*%
%TA.AperFunction,ComponentPad*%
%ADD19C,3.000000*%
%TD*%
%TA.AperFunction,ComponentPad*%
%ADD20R,1.524000X1.524000*%
%TD*%
%TA.AperFunction,ComponentPad*%
%ADD21C,1.524000*%
%TD*%
%TA.AperFunction,ComponentPad*%
%ADD22C,3.500000*%
%TD*%
%TA.AperFunction,ComponentPad*%
%ADD23R,1.905000X2.000000*%
%TD*%
%TA.AperFunction,ComponentPad*%
%ADD24O,1.905000X2.000000*%
%TD*%
%TA.AperFunction,ViaPad*%
%ADD25C,0.800000*%
%TD*%
%TA.AperFunction,Conductor*%
%ADD26C,0.250000*%
%TD*%
%TA.AperFunction,Conductor*%
%ADD27C,0.800000*%
%TD*%
%TA.AperFunction,Conductor*%
%ADD28C,0.600000*%
%TD*%
%TA.AperFunction,Conductor*%
%ADD29C,1.000000*%
%TD*%
G04 APERTURE END LIST*
D10*
%TO.P,C25,1*%
%TO.N,+5V*%
X76670000Y-60940000D03*
%TO.P,C25,2*%
%TO.N,GND*%
X78570000Y-60940000D03*
%TD*%
D11*
%TO.P,L1,1,1*%
%TO.N,Net-(C6-Pad1)*%
X66090000Y-68512500D03*
%TO.P,L1,2,2*%
%TO.N,Net-(C7-Pad1)*%
X66090000Y-70637500D03*
%TD*%
D12*
%TO.P,C14,1*%
%TO.N,+3.3V*%
X78221814Y-85520000D03*
%TO.P,C14,2*%
%TO.N,GND*%
X78221814Y-83970000D03*
%TD*%
D13*
%TO.P,C22,1*%
%TO.N,+3.3V*%
X79125000Y-69230000D03*
%TO.P,C22,2*%
%TO.N,GND*%
X77575000Y-69230000D03*
%TD*%
D12*
%TO.P,C7,1*%
%TO.N,Net-(C7-Pad1)*%
X64460000Y-70080000D03*
%TO.P,C7,2*%
%TO.N,GND*%
X64460000Y-68530000D03*
%TD*%
D14*
%TO.P,R13,1*%
%TO.N,+3.3V*%
X65770000Y-64085000D03*
%TO.P,R13,2*%
%TO.N,Net-(C6-Pad1)*%
X65770000Y-65735000D03*
%TD*%
D15*
%TO.P,C15,1*%
%TO.N,Net-(C11-Pad1)*%
X76631814Y-88910000D03*
%TO.P,C15,2*%
%TO.N,GND*%
X76631814Y-90460000D03*
%TD*%
D13*
%TO.P,C12,1*%
%TO.N,Net-(C11-Pad1)*%
X75186814Y-88905000D03*
%TO.P,C12,2*%
%TO.N,GND*%
X73636814Y-88905000D03*
%TD*%
D14*
%TO.P,R9,1*%
%TO.N,Net-(R9-Pad1)*%
X70870000Y-103165000D03*
%TO.P,R9,2*%
%TO.N,act*%
X70870000Y-104815000D03*
%TD*%
%TO.P,R8,1*%
%TO.N,Net-(R8-Pad1)*%
X69210000Y-103145000D03*
%TO.P,R8,2*%
%TO.N,link*%
X69210000Y-104795000D03*
%TD*%
D13*
%TO.P,C21,1*%
%TO.N,+3.3V*%
X79135000Y-70730000D03*
%TO.P,C21,2*%
%TO.N,GND*%
X77585000Y-70730000D03*
%TD*%
D16*
%TO.P,C11,1*%
%TO.N,Net-(C11-Pad1)*%
X78246814Y-90475000D03*
%TO.P,C11,2*%
%TO.N,GND*%
X79796814Y-90475000D03*
%TD*%
D11*
%TO.P,L2,1,1*%
%TO.N,+3.3V*%
X78261814Y-86892500D03*
%TO.P,L2,2,2*%
%TO.N,Net-(C11-Pad1)*%
X78261814Y-89017500D03*
%TD*%
D13*
%TO.P,C13,1*%
%TO.N,Net-(C11-Pad1)*%
X75185000Y-87390000D03*
%TO.P,C13,2*%
%TO.N,GND*%
X73635000Y-87390000D03*
%TD*%
%TO.P,C6,1*%
%TO.N,Net-(C6-Pad1)*%
X65825000Y-67025000D03*
%TO.P,C6,2*%
%TO.N,GND*%
X64275000Y-67025000D03*
%TD*%
D17*
%TO.P,J10,1*%
%TO.N,Net-(D4-Pad16)*%
X72210000Y-116467500D03*
%TO.P,J10,2*%
%TO.N,Net-(D4-Pad14)*%
X73230000Y-114687500D03*
%TO.P,J10,3*%
%TO.N,Net-(D4-Pad11)*%
X74250000Y-116467500D03*
%TO.P,J10,4*%
%TO.N,Net-(J10-Pad4)*%
X75270000Y-114687500D03*
%TO.P,J10,5*%
X76290000Y-116467500D03*
%TO.P,J10,6*%
%TO.N,Net-(D4-Pad9)*%
X77310000Y-114687500D03*
%TO.P,J10,7*%
%TO.N,Net-(J10-Pad7)*%
X78330000Y-116467500D03*
%TO.P,J10,8*%
X79350000Y-114687500D03*
D18*
%TO.P,J10,9,-*%
%TO.N,link*%
X68920000Y-109867500D03*
%TO.P,J10,10,+*%
%TO.N,+3.3V*%
X71210000Y-109867500D03*
%TO.P,J10,11,-*%
%TO.N,act*%
X80350000Y-109867500D03*
%TO.P,J10,12,+*%
%TO.N,+3.3V*%
X82640000Y-109867500D03*
D19*
%TO.P,J10,s*%
%TO.N,GND*%
X67655000Y-115777500D03*
X83905000Y-115577500D03*
%TD*%
D20*
%TO.P,J1,1,VBUS*%
%TO.N,+5V*%
X74060000Y-58820000D03*
D21*
%TO.P,J1,2,D-*%
%TO.N,Net-(J1-Pad2)*%
X76560000Y-58820000D03*
%TO.P,J1,3,D+*%
%TO.N,Net-(J1-Pad3)*%
X78560000Y-58820000D03*
%TO.P,J1,4,GND*%
%TO.N,GND*%
X81060000Y-58820000D03*
D22*
%TO.P,J1,5,Shield*%
X84130000Y-56110000D03*
X70990000Y-56110000D03*
%TD*%
D23*
%TO.P,U4,1,IN*%
%TO.N,passive_PoE*%
X64600000Y-98410000D03*
D24*
%TO.P,U4,2,GND*%
%TO.N,GND*%
X62060000Y-98410000D03*
%TO.P,U4,3,OUT*%
%TO.N,Net-(C1-Pad1)*%
X59520000Y-98410000D03*
%TD*%
D25*
%TO.N,GND*%
X66510000Y-86920000D03*
X74220000Y-66940000D03*
X67430000Y-76200000D03*
%TO.N,MOSI*%
X71005000Y-71353000D03*
X84490000Y-79187500D03*
%TO.N,GND*%
X82740000Y-82330000D03*
X77020000Y-70640000D03*
X78371814Y-84135000D03*
X80700000Y-88860000D03*
X63685000Y-68033000D03*
X72380000Y-88190000D03*
X77170000Y-93850000D03*
X59190000Y-63210000D03*
%TO.N,+5V*%
X61415000Y-88535000D03*
%TO.N,Net-(C6-Pad1)*%
X65905000Y-66493000D03*
X71270000Y-66030000D03*
%TO.N,+3.3V*%
X63975000Y-85753000D03*
X79130000Y-69280000D03*
X78211814Y-85635000D03*
X79140000Y-72120000D03*
%TO.N,Net-(C7-Pad1)*%
X65405000Y-70233000D03*
%TO.N,Net-(C11-Pad1)*%
X78961814Y-88895000D03*
X75561814Y-87255000D03*
X75971814Y-88895000D03*
X77451814Y-88895000D03*
%TO.N,Net-(C19-Pad1)*%
X76830000Y-96520000D03*
X80150000Y-97740000D03*
%TO.N,Net-(C23-Pad1)*%
X78770000Y-93470000D03*
X79426028Y-94989214D03*
%TO.N,SCLK*%
X84490000Y-76922500D03*
X73030000Y-74730000D03*
%TO.N,SS_USB*%
X69645000Y-68063000D03*
X72930000Y-70680000D03*
%TO.N,MISO*%
X72035000Y-72343000D03*
X84490000Y-78055000D03*
%TO.N,Net-(D4-Pad3)*%
X73736814Y-96060000D03*
X75106814Y-98060000D03*
X81741814Y-92545000D03*
%TO.N,Net-(R8-Pad1)*%
X73900000Y-81310000D03*
%TO.N,Net-(R9-Pad1)*%
X75170000Y-81290000D03*
%TO.N,SS_ETH*%
X84490000Y-75790000D03*
X69665000Y-66813000D03*
%TO.N,RST_ETH*%
X84490000Y-80320000D03*
X61035000Y-70213000D03*
%TO.N,RST_USB*%
X73400000Y-73450000D03*
X69840000Y-70190000D03*
%TO.N,Net-(D4-Pad1)*%
X72720000Y-96810000D03*
X80700000Y-93520000D03*
%TO.N,Net-(D4-Pad9)*%
X81500000Y-106810000D03*
%TO.N,Net-(D4-Pad11)*%
X78900000Y-106830000D03*
%TO.N,Net-(D4-Pad14)*%
X75100000Y-106760000D03*
%TO.N,Net-(D4-Pad16)*%
X72540000Y-106790000D03*
%TO.N,Net-(J10-Pad7)*%
X78550000Y-113280000D03*
%TO.N,Net-(J10-Pad4)*%
X75270000Y-113020000D03*
%TD*%
D26*
%TO.N,Net-(D4-Pad1)*%
X77486450Y-95746444D02*
G75*
G03*
X77132893Y-95600000I-353550J-353556D01*
G01*
X74633551Y-95453557D02*
G75*
G03*
X74987107Y-95600000I353549J353557D01*
G01*
X74536450Y-95356444D02*
G75*
G03*
X74182893Y-95210000I-353550J-353556D01*
G01*
X73123551Y-95356443D02*
G75*
G02*
X73477107Y-95210000I353549J-353557D01*
G01*
X72866444Y-95613550D02*
G75*
G03*
X72720000Y-95967107I353556J-353550D01*
G01*
X77883551Y-96143557D02*
G75*
G03*
X78237107Y-96290000I353549J353557D01*
G01*
X80699995Y-94912893D02*
G75*
G02*
X80553554Y-95266446I-499995J-7D01*
G01*
X79322893Y-96289995D02*
G75*
G03*
X79676447Y-96143553I7J499995D01*
G01*
X72720000Y-96810000D02*
X72720000Y-95967107D01*
X72866447Y-95613553D02*
X73123554Y-95356446D01*
X79676447Y-96143553D02*
X80553554Y-95266446D01*
X73477107Y-95210000D02*
X74182893Y-95210000D01*
X74536447Y-95356447D02*
X74633554Y-95453554D01*
X80700000Y-94912893D02*
X80700000Y-93520000D01*
X74987107Y-95600000D02*
X77132893Y-95600000D01*
X77486447Y-95746447D02*
X77883554Y-96143554D01*
X78237107Y-96290000D02*
X79322893Y-96290000D01*
%TO.N,Net-(C19-Pad1)*%
X77757100Y-97447114D02*
G75*
G03*
X78464214Y-97740000I707100J707114D01*
G01*
X80150000Y-97740000D02*
X78464214Y-97740000D01*
X77757107Y-97447107D02*
X76830000Y-96520000D01*
%TO.N,Net-(D4-Pad3)*%
X75106800Y-97844214D02*
G75*
G03*
X74813921Y-97137107I-1000000J14D01*
G01*
X75106814Y-98060000D02*
X75106814Y-97844214D01*
X74813921Y-97137107D02*
X73736814Y-96060000D01*
X81741790Y-97273972D02*
G75*
G02*
X81448921Y-97981079I-999990J-28D01*
G01*
X81112900Y-98317114D02*
G75*
G02*
X80405786Y-98610000I-707100J707114D01*
G01*
X75363907Y-98317121D02*
G75*
G03*
X76071028Y-98610000I707093J707121D01*
G01*
X75106814Y-98060000D02*
X75363921Y-98317107D01*
X76071028Y-98610000D02*
X80405786Y-98610000D01*
X81112893Y-98317107D02*
X81448921Y-97981079D01*
X81741814Y-97273972D02*
X81741814Y-92545000D01*
D27*
%TO.N,Net-(C11-Pad1)*%
X75186814Y-88905000D02*
X75186814Y-87391814D01*
D26*
X75186814Y-87391814D02*
X75185000Y-87390000D01*
%TO.N,Net-(R8-Pad1)*%
X73314214Y-81310010D02*
G75*
G03*
X72607107Y-81602893I-14J-999990D01*
G01*
X69210010Y-85414214D02*
G75*
G02*
X69502893Y-84707107I999990J14D01*
G01*
X73900000Y-81310000D02*
X73314214Y-81310000D01*
X72607107Y-81602893D02*
X69502893Y-84707107D01*
X69210000Y-85414214D02*
X69210000Y-103145000D01*
%TO.N,Net-(R9-Pad1)*%
X70072886Y-85007100D02*
G75*
G03*
X69780000Y-85714214I707114J-707100D01*
G01*
X72287100Y-82792886D02*
G75*
G02*
X72994214Y-82500000I707100J-707114D01*
G01*
X75169990Y-81325786D02*
G75*
G02*
X74877107Y-82032893I-999990J-14D01*
G01*
X73995786Y-82499990D02*
G75*
G03*
X74702893Y-82207107I14J999990D01*
G01*
X69780010Y-101660786D02*
G75*
G03*
X70072893Y-102367893I999990J-14D01*
G01*
X70870000Y-103165000D02*
X70072893Y-102367893D01*
X69780000Y-101660786D02*
X69780000Y-85714214D01*
X70072893Y-85007107D02*
X72287107Y-82792893D01*
X74702893Y-82207107D02*
X74877107Y-82032893D01*
X72994214Y-82500000D02*
X73995786Y-82500000D01*
X75170000Y-81325786D02*
X75170000Y-81290000D01*
%TO.N,Net-(C23-Pad1)*%
X78770020Y-93918972D02*
G75*
G03*
X79062893Y-94626079I999980J-28D01*
G01*
X78770000Y-93470000D02*
X78770000Y-93918972D01*
X79062893Y-94626079D02*
X79426028Y-94989214D01*
%TO.N,act*%
X71022100Y-104967114D02*
G75*
G03*
X71729214Y-105260000I707100J707114D01*
G01*
X82379990Y-107423286D02*
G75*
G02*
X82087107Y-108130393I-999990J-14D01*
G01*
X82087114Y-105927100D02*
G75*
G02*
X82380000Y-106634214I-707114J-707100D01*
G01*
X81005786Y-105260000D02*
X71729214Y-105260000D01*
X81005786Y-105260010D02*
G75*
G02*
X81712893Y-105552893I14J-999990D01*
G01*
X80350000Y-109867500D02*
X82087107Y-108130393D01*
X82380000Y-107423286D02*
X82380000Y-106634214D01*
X82087107Y-105927107D02*
X81712893Y-105552893D01*
X71022107Y-104967107D02*
X70870000Y-104815000D01*
%TO.N,link*%
X69210000Y-104795000D02*
X68920000Y-105085000D01*
X68920000Y-105085000D02*
X68920000Y-109867500D01*
D28*
%TO.N,Net-(C6-Pad1)*%
X65770000Y-65735000D02*
X65770000Y-66970000D01*
D26*
X65770000Y-66970000D02*
X65825000Y-67025000D01*
%TO.N,RST_USB*%
X70668786Y-70193000D02*
X69843000Y-70193000D01*
X69843000Y-70193000D02*
X69840000Y-70190000D01*
%TO.N,MOSI*%
X72794214Y-77409990D02*
G75*
G02*
X72087107Y-77117107I-14J999990D01*
G01*
X72087107Y-77117107D02*
X71297893Y-76327893D01*
X82298286Y-77410000D02*
X72794214Y-77410000D01*
X84490000Y-79187500D02*
X83005393Y-77702893D01*
X71005000Y-75620786D02*
X71005000Y-71353000D01*
X71005010Y-75620786D02*
G75*
G03*
X71297893Y-76327893I999990J-14D01*
G01*
X82298286Y-77410010D02*
G75*
G02*
X83005393Y-77702893I14J-999990D01*
G01*
D27*
%TO.N,+3.3V*%
X79135000Y-70730000D02*
X79135000Y-72115000D01*
D26*
X79135000Y-72115000D02*
X79140000Y-72120000D01*
%TO.N,Net-(C6-Pad1)*%
X71267900Y-66027886D02*
G75*
G03*
X70560786Y-65735000I-707100J-707114D01*
G01*
%TO.N,SS_USB*%
X70605900Y-68355886D02*
G75*
G03*
X69898786Y-68063000I-707100J-707114D01*
G01*
X69645000Y-68063000D02*
X69898786Y-68063000D01*
X70605893Y-68355893D02*
X72930000Y-70680000D01*
%TO.N,SCLK*%
X73322886Y-75542900D02*
G75*
G02*
X73030000Y-74835786I707114J707100D01*
G01*
X74514214Y-76319990D02*
G75*
G02*
X73807107Y-76027107I-14J999990D01*
G01*
%TO.N,RST_ETH*%
X63367100Y-77667114D02*
G75*
G03*
X64074214Y-77960000I707100J707114D01*
G01*
%TO.N,SS_ETH*%
X74017114Y-70577100D02*
G75*
G02*
X74310000Y-71284214I-707114J-707100D01*
G01*
X74602886Y-74932900D02*
G75*
G02*
X74310000Y-74225786I707114J707100D01*
G01*
X75187100Y-75517114D02*
G75*
G03*
X75894214Y-75810000I707100J707114D01*
G01*
%TO.N,MISO*%
X73774214Y-76849990D02*
G75*
G02*
X73067107Y-76557107I-14J999990D01*
G01*
X72327886Y-75817900D02*
G75*
G02*
X72035000Y-75110786I707114J707100D01*
G01*
%TO.N,RST_ETH*%
X61327886Y-75627900D02*
G75*
G02*
X61035000Y-74920786I707114J707100D01*
G01*
%TO.N,SS_ETH*%
X69838786Y-66813010D02*
G75*
G02*
X70545893Y-67105893I14J-999990D01*
G01*
X84450000Y-75790000D02*
X84430000Y-75810000D01*
X74310000Y-74225786D02*
X74310000Y-71284214D01*
X84430000Y-75810000D02*
X75894214Y-75810000D01*
X75187107Y-75517107D02*
X74602893Y-74932893D01*
X74017107Y-70577107D02*
X70545893Y-67105893D01*
X69838786Y-66813000D02*
X69665000Y-66813000D01*
%TO.N,SCLK*%
X83473286Y-76320010D02*
G75*
G02*
X84180393Y-76612893I14J-999990D01*
G01*
X84490000Y-76922500D02*
X84180393Y-76612893D01*
X83473286Y-76320000D02*
X74514214Y-76320000D01*
X73807107Y-76027107D02*
X73322893Y-75542893D01*
X73030000Y-74835786D02*
X73030000Y-74730000D01*
%TO.N,MISO*%
X82870786Y-76850010D02*
G75*
G02*
X83577893Y-77142893I14J-999990D01*
G01*
X84490000Y-78055000D02*
X83577893Y-77142893D01*
X72035000Y-75110786D02*
X72035000Y-72343000D01*
X82870786Y-76850000D02*
X73774214Y-76850000D01*
X73067107Y-76557107D02*
X72327893Y-75817893D01*
%TO.N,RST_ETH*%
X81715786Y-77960010D02*
G75*
G02*
X82422893Y-78252893I14J-999990D01*
G01*
X81715786Y-77960000D02*
X64074214Y-77960000D01*
X84490000Y-80320000D02*
X82422893Y-78252893D01*
X63367107Y-77667107D02*
X61327893Y-75627893D01*
X61035000Y-74920786D02*
X61035000Y-70213000D01*
%TO.N,+5V*%
X61814214Y-58820000D02*
X74060000Y-58820000D01*
X76180000Y-60940000D02*
X74060000Y-58820000D01*
X57822893Y-62397107D02*
X61107107Y-59112893D01*
X76670000Y-60940000D02*
X76180000Y-60940000D01*
X59232107Y-88242107D02*
X57822893Y-86832893D01*
X57530000Y-86125786D02*
X57530000Y-63104214D01*
X61415000Y-88535000D02*
X59939214Y-88535000D01*
X61107100Y-59112886D02*
G75*
G02*
X61814214Y-58820000I707100J-707114D01*
G01*
X57822886Y-62397100D02*
G75*
G03*
X57530000Y-63104214I707114J-707100D01*
G01*
X59939214Y-88534990D02*
G75*
G02*
X59232107Y-88242107I-14J999990D01*
G01*
X57530010Y-86125786D02*
G75*
G03*
X57822893Y-86832893I999990J-14D01*
G01*
%TO.N,Net-(C6-Pad1)*%
X65770000Y-65735000D02*
X70560786Y-65735000D01*
D27*
X65825000Y-67025000D02*
X65825000Y-68040393D01*
X65971447Y-68393947D02*
X66090000Y-68512500D01*
D26*
X71267893Y-66027893D02*
X71270000Y-66030000D01*
D27*
X65825005Y-68040393D02*
G75*
G03*
X65971447Y-68393947I499995J-7D01*
G01*
D26*
%TO.N,+3.3V*%
X63975000Y-88570786D02*
X63975000Y-85753000D01*
D27*
X79125000Y-69230000D02*
X79125000Y-70720000D01*
D26*
X61647107Y-111347107D02*
X57982893Y-107682893D01*
D29*
X58650000Y-78740000D02*
X58650000Y-81370000D01*
D26*
X79125000Y-70720000D02*
X79135000Y-70730000D01*
D27*
X78261814Y-86892500D02*
X78261814Y-86258186D01*
D29*
X65770000Y-64085000D02*
X74080786Y-64085000D01*
D27*
X80067107Y-80077107D02*
X79102893Y-79112893D01*
D29*
X61057214Y-85753000D02*
X63975000Y-85753000D01*
D27*
X78395786Y-78820000D02*
X58730000Y-78820000D01*
D26*
X57982893Y-94977107D02*
X63682107Y-89277893D01*
X78284314Y-86915000D02*
X78261814Y-86892500D01*
D27*
X78261814Y-86258186D02*
X78261814Y-85630000D01*
X79394707Y-85965293D02*
X80067107Y-85292893D01*
D26*
X69023286Y-111640000D02*
X62354214Y-111640000D01*
X78261814Y-85630000D02*
X78231814Y-85600000D01*
D29*
X58650000Y-81370000D02*
X58650000Y-83345786D01*
D26*
X57690000Y-106975786D02*
X57690000Y-95684214D01*
D27*
X58730000Y-78820000D02*
X58650000Y-78740000D01*
D26*
X71210000Y-109867500D02*
X69730393Y-111347107D01*
D29*
X74787893Y-64377893D02*
X78978554Y-68568554D01*
X60812107Y-64377893D02*
X58942893Y-66247107D01*
X65770000Y-64085000D02*
X61519214Y-64085000D01*
D27*
X80360000Y-84585786D02*
X80360000Y-80784214D01*
D29*
X58942893Y-84052893D02*
X60350107Y-85460107D01*
D27*
X78261814Y-86258186D02*
X78687600Y-86258186D01*
D29*
X79125000Y-68922107D02*
X79125000Y-69230000D01*
X58650000Y-66954214D02*
X58650000Y-78740000D01*
D27*
X78395786Y-78820010D02*
G75*
G02*
X79102893Y-79112893I14J-999990D01*
G01*
D29*
X74080786Y-64085010D02*
G75*
G02*
X74787893Y-64377893I14J-999990D01*
G01*
D26*
X57982886Y-94977100D02*
G75*
G03*
X57690000Y-95684214I707114J-707100D01*
G01*
D27*
X80359990Y-80784214D02*
G75*
G03*
X80067107Y-80077107I-999990J14D01*
G01*
D26*
X62354214Y-111639990D02*
G75*
G02*
X61647107Y-111347107I-14J999990D01*
G01*
X57982886Y-107682900D02*
G75*
G02*
X57690000Y-106975786I707114J707100D01*
G01*
D27*
X79394704Y-85965290D02*
G75*
G02*
X78687600Y-86258186I-707104J707090D01*
G01*
D29*
X58650010Y-66954214D02*
G75*
G02*
X58942893Y-66247107I999990J14D01*
G01*
D26*
X69023286Y-111639990D02*
G75*
G03*
X69730393Y-111347107I14J999990D01*
G01*
D29*
X61057214Y-85752990D02*
G75*
G02*
X60350107Y-85460107I-14J999990D01*
G01*
X58650010Y-83345786D02*
G75*
G03*
X58942893Y-84052893I999990J-14D01*
G01*
X79124995Y-68922107D02*
G75*
G03*
X78978554Y-68568554I-499995J7D01*
G01*
X61519214Y-64085010D02*
G75*
G03*
X60812107Y-64377893I-14J-999990D01*
G01*
D26*
X63682114Y-89277900D02*
G75*
G03*
X63975000Y-88570786I-707114J707100D01*
G01*
D27*
X80359990Y-84585786D02*
G75*
G02*
X80067107Y-85292893I-999990J-14D01*
G01*
%TO.N,Net-(C7-Pad1)*%
X65290000Y-70255000D02*
X65707500Y-70255000D01*
X65115000Y-70080000D02*
X65290000Y-70255000D01*
X65707500Y-70255000D02*
X66090000Y-70637500D01*
X64460000Y-70080000D02*
X65115000Y-70080000D01*
D28*
%TO.N,Net-(C11-Pad1)*%
X75221814Y-88895000D02*
X75186814Y-88860000D01*
D27*
X78961814Y-88895000D02*
X75221814Y-88895000D01*
D26*
X78186814Y-89160000D02*
X78261814Y-89085000D01*
X78246814Y-89032500D02*
X78261814Y-89017500D01*
D27*
X78246814Y-90475000D02*
X78246814Y-89032500D01*
D26*
%TO.N,RST_USB*%
X73107107Y-72217107D02*
X71375893Y-70485893D01*
X73400000Y-73450000D02*
X73400000Y-72924214D01*
X71375900Y-70485886D02*
G75*
G03*
X70668786Y-70193000I-707100J-707114D01*
G01*
X73399990Y-72924214D02*
G75*
G03*
X73107107Y-72217107I-999990J14D01*
G01*
%TO.N,Net-(D4-Pad9)*%
X81500000Y-106640000D02*
X81500000Y-106810000D01*
X80982893Y-106122893D02*
X81500000Y-106640000D01*
X77602893Y-106487107D02*
X77967107Y-106122893D01*
X77310000Y-114687500D02*
X77310000Y-107194214D01*
X78674214Y-105830000D02*
X80275786Y-105830000D01*
X77602886Y-106487100D02*
G75*
G03*
X77310000Y-107194214I707114J-707100D01*
G01*
X77967100Y-106122886D02*
G75*
G02*
X78674214Y-105830000I707100J-707114D01*
G01*
X80982900Y-106122886D02*
G75*
G03*
X80275786Y-105830000I-707100J-707114D01*
G01*
%TO.N,Net-(D4-Pad11)*%
X79252893Y-117537107D02*
X80477107Y-116312893D01*
X74250000Y-116467500D02*
X75319607Y-117537107D01*
X80770000Y-115605786D02*
X80770000Y-114454214D01*
X80477107Y-113747107D02*
X78112893Y-111382893D01*
X77820000Y-110675786D02*
X77820000Y-108324214D01*
X76026714Y-117830000D02*
X78545786Y-117830000D01*
X78112893Y-107617107D02*
X78900000Y-106830000D01*
X78112886Y-111382900D02*
G75*
G02*
X77820000Y-110675786I707114J707100D01*
G01*
X75319600Y-117537114D02*
G75*
G03*
X76026714Y-117830000I707100J707114D01*
G01*
X79252900Y-117537114D02*
G75*
G02*
X78545786Y-117830000I-707100J707114D01*
G01*
X80769990Y-114454214D02*
G75*
G03*
X80477107Y-113747107I-999990J14D01*
G01*
X80477114Y-116312900D02*
G75*
G03*
X80770000Y-115605786I-707114J707100D01*
G01*
X78112886Y-107617100D02*
G75*
G03*
X77820000Y-108324214I707114J-707100D01*
G01*
%TO.N,Net-(D4-Pad14)*%
X74692893Y-107167107D02*
X75100000Y-106760000D01*
X73230000Y-114687500D02*
X74107107Y-113810393D01*
X74400000Y-113103286D02*
X74400000Y-107874214D01*
X74107114Y-113810400D02*
G75*
G03*
X74400000Y-113103286I-707114J707100D01*
G01*
X74400010Y-107874214D02*
G75*
G02*
X74692893Y-107167107I999990J14D01*
G01*
%TO.N,Net-(D4-Pad16)*%
X71920000Y-116177500D02*
X72210000Y-116467500D01*
X72175685Y-113654315D02*
X72154314Y-113675686D01*
X72570000Y-106790000D02*
X73547107Y-107767107D01*
X73840000Y-108474214D02*
X73840000Y-112518629D01*
X72938629Y-113420000D02*
X72741371Y-113420000D01*
X72540000Y-106790000D02*
X72570000Y-106790000D01*
X71920000Y-114241371D02*
X71920000Y-116177500D01*
X73605685Y-113084315D02*
X73504314Y-113185686D01*
X73605670Y-113084300D02*
G75*
G03*
X73840000Y-112518629I-565670J565700D01*
G01*
X73504299Y-113185671D02*
G75*
G02*
X72938629Y-113420000I-565699J565671D01*
G01*
X72175700Y-113654330D02*
G75*
G02*
X72741371Y-113420000I565700J-565670D01*
G01*
X71919980Y-114241371D02*
G75*
G02*
X72154314Y-113675686I800020J-29D01*
G01*
X73547114Y-107767100D02*
G75*
G02*
X73840000Y-108474214I-707114J-707100D01*
G01*
%TO.N,Net-(J10-Pad7)*%
X79350000Y-114687500D02*
X79350000Y-115447500D01*
X79350000Y-115447500D02*
X78330000Y-116467500D01*
X79350000Y-114080000D02*
X78550000Y-113280000D01*
X79350000Y-114687500D02*
X79350000Y-114080000D01*
%TO.N,Net-(J10-Pad4)*%
X76290000Y-116180000D02*
X75270000Y-115160000D01*
X75270000Y-115160000D02*
X75270000Y-114687500D01*
X76290000Y-116467500D02*
X76290000Y-116180000D01*
X75270000Y-114687500D02*
X75270000Y-113020000D01*
%TD*%
%TA.AperFunction,Conductor*%
%TO.N,GND*%
G36*
X88346990Y-52450937D02*
G01*
X88393576Y-52504512D01*
X88405054Y-52557054D01*
X88405054Y-121313051D01*
X88385052Y-121381172D01*
X88331396Y-121427665D01*
X88279274Y-121439051D01*
X62046212Y-121484798D01*
X53708274Y-121499338D01*
X53640118Y-121479455D01*
X53593532Y-121425880D01*
X53582054Y-121373338D01*
X53582054Y-118985106D01*
X67291632Y-118985106D01*
X67308378Y-119275523D01*
X67309203Y-119279728D01*
X67309204Y-119279736D01*
X67341615Y-119444936D01*
X67364382Y-119560981D01*
X67365769Y-119565032D01*
X67365770Y-119565036D01*
X67457220Y-119832141D01*
X67457224Y-119832150D01*
X67458609Y-119836196D01*
X67589316Y-120096077D01*
X67754083Y-120335815D01*
X67949862Y-120550973D01*
X67953151Y-120553723D01*
X68169738Y-120734819D01*
X68169743Y-120734823D01*
X68173030Y-120737571D01*
X68238058Y-120778363D01*
X68415817Y-120889871D01*
X68415821Y-120889873D01*
X68419457Y-120892154D01*
X68684584Y-121011863D01*
X68688703Y-121013083D01*
X68959391Y-121093265D01*
X68959396Y-121093266D01*
X68963504Y-121094483D01*
X68967738Y-121095131D01*
X68967743Y-121095132D01*
X69223635Y-121134289D01*
X69251056Y-121138485D01*
X69399176Y-121140812D01*
X69537629Y-121142987D01*
X69537635Y-121142987D01*
X69541920Y-121143054D01*
X69830712Y-121108107D01*
X70112090Y-121034289D01*
X70380846Y-120922966D01*
X70632007Y-120776199D01*
X70860926Y-120596704D01*
X70902578Y-120553723D01*
X71060383Y-120390880D01*
X71063366Y-120387802D01*
X71235583Y-120153358D01*
X71374388Y-119897710D01*
X71477213Y-119625590D01*
X71542157Y-119342033D01*
X71568016Y-119052285D01*
X71568485Y-119007500D01*
X71568316Y-119005019D01*
X71566958Y-118985106D01*
X79991632Y-118985106D01*
X80008378Y-119275523D01*
X80009203Y-119279728D01*
X80009204Y-119279736D01*
X80041615Y-119444936D01*
X80064382Y-119560981D01*
X80065769Y-119565032D01*
X80065770Y-119565036D01*
X80157220Y-119832141D01*
X80157224Y-119832150D01*
X80158609Y-119836196D01*
X80289316Y-120096077D01*
X80454083Y-120335815D01*
X80649862Y-120550973D01*
X80653151Y-120553723D01*
X80869738Y-120734819D01*
X80869743Y-120734823D01*
X80873030Y-120737571D01*
X80938058Y-120778363D01*
X81115817Y-120889871D01*
X81115821Y-120889873D01*
X81119457Y-120892154D01*
X81384584Y-121011863D01*
X81388703Y-121013083D01*
X81659391Y-121093265D01*
X81659396Y-121093266D01*
X81663504Y-121094483D01*
X81667738Y-121095131D01*
X81667743Y-121095132D01*
X81923635Y-121134289D01*
X81951056Y-121138485D01*
X82099176Y-121140812D01*
X82237629Y-121142987D01*
X82237635Y-121142987D01*
X82241920Y-121143054D01*
X82530712Y-121108107D01*
X82812090Y-121034289D01*
X83080846Y-120922966D01*
X83332007Y-120776199D01*
X83560926Y-120596704D01*
X83602578Y-120553723D01*
X83760383Y-120390880D01*
X83763366Y-120387802D01*
X83935583Y-120153358D01*
X84074388Y-119897710D01*
X84177213Y-119625590D01*
X84242157Y-119342033D01*
X84268016Y-119052285D01*
X84268485Y-119007500D01*
X84268316Y-119005019D01*
X84248991Y-118721551D01*
X84248990Y-118721545D01*
X84248699Y-118717274D01*
X84189709Y-118432419D01*
X84092605Y-118158205D01*
X84019030Y-118015656D01*
X83961149Y-117903514D01*
X83961149Y-117903513D01*
X83959184Y-117899707D01*
X83945765Y-117880613D01*
X83875550Y-117780708D01*
X83791915Y-117661708D01*
X83593894Y-117448612D01*
X83590578Y-117445898D01*
X83590575Y-117445895D01*
X83392088Y-117283435D01*
X83368784Y-117264361D01*
X83120752Y-117112367D01*
X83116835Y-117110648D01*
X83116832Y-117110646D01*
X82999273Y-117059042D01*
X82854386Y-116995441D01*
X82850258Y-116994265D01*
X82850255Y-116994264D01*
X82764087Y-116969718D01*
X82574616Y-116915746D01*
X82570374Y-116915142D01*
X82570368Y-116915141D01*
X82290870Y-116875363D01*
X82286619Y-116874758D01*
X82133232Y-116873955D01*
X82000009Y-116873257D01*
X82000003Y-116873257D01*
X81995723Y-116873235D01*
X81991479Y-116873794D01*
X81991475Y-116873794D01*
X81864456Y-116890517D01*
X81707313Y-116911205D01*
X81703173Y-116912338D01*
X81703171Y-116912338D01*
X81686411Y-116916923D01*
X81426724Y-116987965D01*
X81422776Y-116989649D01*
X81163100Y-117100410D01*
X81163096Y-117100412D01*
X81159148Y-117102096D01*
X80909538Y-117251485D01*
X80906187Y-117254169D01*
X80906185Y-117254171D01*
X80864682Y-117287421D01*
X80682511Y-117433367D01*
X80482269Y-117644378D01*
X80312517Y-117880613D01*
X80176397Y-118137700D01*
X80174925Y-118141723D01*
X80174923Y-118141727D01*
X80135476Y-118249521D01*
X80076426Y-118410882D01*
X80014456Y-118695104D01*
X80012711Y-118717274D01*
X79992170Y-118978273D01*
X79992168Y-118978273D01*
X79992169Y-118978280D01*
X79991632Y-118985106D01*
X71566958Y-118985106D01*
X71548991Y-118721551D01*
X71548990Y-118721545D01*
X71548699Y-118717274D01*
X71489709Y-118432419D01*
X71392605Y-118158205D01*
X71319030Y-118015656D01*
X71261149Y-117903514D01*
X71261149Y-117903513D01*
X71259184Y-117899707D01*
X71245765Y-117880613D01*
X71175550Y-117780708D01*
X71091915Y-117661708D01*
X70893894Y-117448612D01*
X70890578Y-117445898D01*
X70890575Y-117445895D01*
X70692088Y-117283435D01*
X70668784Y-117264361D01*
X70420752Y-117112367D01*
X70416835Y-117110648D01*
X70416832Y-117110646D01*
X70299273Y-117059042D01*
X70154386Y-116995441D01*
X70150258Y-116994265D01*
X70150255Y-116994264D01*
X70064087Y-116969718D01*
X69874616Y-116915746D01*
X69870374Y-116915142D01*
X69870368Y-116915141D01*
X69590870Y-116875363D01*
X69586619Y-116874758D01*
X69433232Y-116873955D01*
X69300009Y-116873257D01*
X69300003Y-116873257D01*
X69295723Y-116873235D01*
X69291479Y-116873794D01*
X69291475Y-116873794D01*
X69164456Y-116890517D01*
X69007313Y-116911205D01*
X69003173Y-116912338D01*
X69003171Y-116912338D01*
X68986411Y-116916923D01*
X68726724Y-116987965D01*
X68722776Y-116989649D01*
X68463100Y-117100410D01*
X68463096Y-117100412D01*
X68459148Y-117102096D01*
X68209538Y-117251485D01*
X68206187Y-117254169D01*
X68206185Y-117254171D01*
X68164682Y-117287421D01*
X67982511Y-117433367D01*
X67782269Y-117644378D01*
X67612517Y-117880613D01*
X67476397Y-118137700D01*
X67474925Y-118141723D01*
X67474923Y-118141727D01*
X67435476Y-118249521D01*
X67376426Y-118410882D01*
X67314456Y-118695104D01*
X67312711Y-118717274D01*
X67292170Y-118978273D01*
X67292168Y-118978273D01*
X67292169Y-118978280D01*
X67291632Y-118985106D01*
X53582054Y-118985106D01*
X53582054Y-86125777D01*
X56891847Y-86125777D01*
X56892343Y-86129875D01*
X56892343Y-86129878D01*
X56893958Y-86143231D01*
X56894600Y-86150124D01*
X56906737Y-86335333D01*
X56907007Y-86339449D01*
X56907810Y-86343488D01*
X56907811Y-86343493D01*
X56947974Y-86545420D01*
X56948779Y-86549466D01*
X57017606Y-86752233D01*
X57112312Y-86944282D01*
X57231274Y-87122326D01*
X57233991Y-87125424D01*
X57233997Y-87125432D01*
X57309053Y-87211019D01*
X57313879Y-87216868D01*
X57314315Y-87217431D01*
X57318351Y-87224255D01*
X57334195Y-87240099D01*
X57339831Y-87246115D01*
X57344266Y-87251172D01*
X57350291Y-87258593D01*
X57362296Y-87274582D01*
X57371646Y-87284131D01*
X57374890Y-87286675D01*
X57374896Y-87286680D01*
X57396158Y-87303352D01*
X57407506Y-87313410D01*
X58745974Y-88651878D01*
X58757638Y-88665319D01*
X58771518Y-88683805D01*
X58780869Y-88693354D01*
X58794555Y-88704085D01*
X58799869Y-88708492D01*
X58942674Y-88833726D01*
X59120718Y-88952688D01*
X59312767Y-89047394D01*
X59515534Y-89116221D01*
X59519576Y-89117025D01*
X59519580Y-89117026D01*
X59721507Y-89157189D01*
X59721512Y-89157190D01*
X59725551Y-89157993D01*
X59729663Y-89158262D01*
X59729667Y-89158263D01*
X59843084Y-89165695D01*
X59850638Y-89166419D01*
X59851509Y-89166529D01*
X59859184Y-89168500D01*
X59881769Y-89168500D01*
X59890008Y-89168770D01*
X59896417Y-89169190D01*
X59905930Y-89170177D01*
X59921774Y-89172432D01*
X59921779Y-89172432D01*
X59925859Y-89173013D01*
X59932074Y-89173078D01*
X59935089Y-89173110D01*
X59935094Y-89173110D01*
X59939223Y-89173153D01*
X59970125Y-89169413D01*
X59985264Y-89168500D01*
X60706800Y-89168500D01*
X60774921Y-89188502D01*
X60794147Y-89204843D01*
X60794420Y-89204540D01*
X60799332Y-89208963D01*
X60803747Y-89213866D01*
X60813602Y-89221026D01*
X60941626Y-89314041D01*
X60958248Y-89326118D01*
X60964276Y-89328802D01*
X60964278Y-89328803D01*
X61107830Y-89392716D01*
X61132712Y-89403794D01*
X61226113Y-89423647D01*
X61313056Y-89442128D01*
X61313061Y-89442128D01*
X61319513Y-89443500D01*
X61510487Y-89443500D01*
X61516939Y-89442128D01*
X61516944Y-89442128D01*
X61603887Y-89423647D01*
X61697288Y-89403794D01*
X61722170Y-89392716D01*
X61865722Y-89328803D01*
X61865724Y-89328802D01*
X61871752Y-89326118D01*
X61888375Y-89314041D01*
X62016398Y-89221026D01*
X62026253Y-89213866D01*
X62035378Y-89203732D01*
X62149621Y-89076852D01*
X62149622Y-89076851D01*
X62154040Y-89071944D01*
X62228711Y-88942610D01*
X62246223Y-88912279D01*
X62246224Y-88912278D01*
X62249527Y-88906556D01*
X62308542Y-88724928D01*
X62315415Y-88659540D01*
X62327814Y-88541565D01*
X62328504Y-88535000D01*
X62318335Y-88438248D01*
X62309232Y-88351635D01*
X62309232Y-88351633D01*
X62308542Y-88345072D01*
X62249527Y-88163444D01*
X62154040Y-87998056D01*
X62026253Y-87856134D01*
X61899980Y-87764391D01*
X61877094Y-87747763D01*
X61877093Y-87747762D01*
X61871752Y-87743882D01*
X61865724Y-87741198D01*
X61865722Y-87741197D01*
X61703319Y-87668891D01*
X61703318Y-87668891D01*
X61697288Y-87666206D01*
X61603888Y-87646353D01*
X61516944Y-87627872D01*
X61516939Y-87627872D01*
X61510487Y-87626500D01*
X61319513Y-87626500D01*
X61313061Y-87627872D01*
X61313056Y-87627872D01*
X61226112Y-87646353D01*
X61132712Y-87666206D01*
X61126682Y-87668891D01*
X61126681Y-87668891D01*
X60964278Y-87741197D01*
X60964276Y-87741198D01*
X60958248Y-87743882D01*
X60952907Y-87747762D01*
X60952906Y-87747763D01*
X60870592Y-87807568D01*
X60803747Y-87856134D01*
X60799332Y-87861037D01*
X60794420Y-87865460D01*
X60793295Y-87864211D01*
X60739986Y-87897051D01*
X60706800Y-87901500D01*
X59989224Y-87901500D01*
X59972779Y-87900422D01*
X59953420Y-87897873D01*
X59953416Y-87897873D01*
X59945888Y-87896882D01*
X59938339Y-87897715D01*
X59930742Y-87897636D01*
X59930742Y-87897632D01*
X59908100Y-87897395D01*
X59871234Y-87892542D01*
X59860797Y-87891168D01*
X59829026Y-87882655D01*
X59771283Y-87858738D01*
X59742798Y-87842293D01*
X59731200Y-87833394D01*
X59708385Y-87815887D01*
X59695070Y-87804087D01*
X59692669Y-87801635D01*
X59688046Y-87795611D01*
X59673757Y-87784163D01*
X59660610Y-87773631D01*
X59650295Y-87764391D01*
X58306217Y-86420312D01*
X58295349Y-86407920D01*
X58283466Y-86392433D01*
X58283464Y-86392431D01*
X58278841Y-86386406D01*
X58272912Y-86381656D01*
X58272910Y-86381654D01*
X58272903Y-86381648D01*
X58251726Y-86360022D01*
X58242403Y-86347872D01*
X58222705Y-86322201D01*
X58206261Y-86293717D01*
X58182344Y-86235973D01*
X58173832Y-86204203D01*
X58170209Y-86176682D01*
X58168162Y-86161128D01*
X58167091Y-86143368D01*
X58167126Y-86140012D01*
X58168118Y-86132478D01*
X58164261Y-86097538D01*
X58163500Y-86083713D01*
X58163500Y-85003925D01*
X58183502Y-84935804D01*
X58237158Y-84889311D01*
X58307432Y-84879207D01*
X58372012Y-84908701D01*
X58378595Y-84914830D01*
X59586270Y-86122504D01*
X59596734Y-86134371D01*
X59613818Y-86156395D01*
X59616271Y-86158917D01*
X59616274Y-86158921D01*
X59631090Y-86174157D01*
X59631095Y-86174162D01*
X59633546Y-86176682D01*
X59636262Y-86178913D01*
X59636273Y-86178923D01*
X59663324Y-86201143D01*
X59667306Y-86204555D01*
X59776454Y-86302092D01*
X59802970Y-86325788D01*
X59805848Y-86327830D01*
X59984068Y-86454282D01*
X59984076Y-86454287D01*
X59986954Y-86456329D01*
X60184397Y-86565449D01*
X60392816Y-86651776D01*
X60480785Y-86677118D01*
X60606191Y-86713245D01*
X60606194Y-86713246D01*
X60609590Y-86714224D01*
X60831993Y-86752009D01*
X60982960Y-86760485D01*
X60991683Y-86761280D01*
X61028933Y-86765985D01*
X61035959Y-86766083D01*
X61053713Y-86766331D01*
X61053714Y-86766331D01*
X61057228Y-86766380D01*
X61100851Y-86762102D01*
X61113148Y-86761500D01*
X63215500Y-86761500D01*
X63283621Y-86781502D01*
X63330114Y-86835158D01*
X63341500Y-86887500D01*
X63341500Y-88520776D01*
X63340422Y-88537221D01*
X63337873Y-88556580D01*
X63337873Y-88556584D01*
X63336882Y-88564112D01*
X63337716Y-88571662D01*
X63337716Y-88571666D01*
X63337400Y-88601942D01*
X63332010Y-88642887D01*
X63331178Y-88649208D01*
X63322666Y-88680976D01*
X63298748Y-88738721D01*
X63282302Y-88767206D01*
X63255940Y-88801562D01*
X63244139Y-88814879D01*
X63241635Y-88817331D01*
X63235611Y-88821954D01*
X63230862Y-88827882D01*
X63213631Y-88849390D01*
X63204391Y-88859705D01*
X57573118Y-94490977D01*
X57559677Y-94502641D01*
X57541195Y-94516518D01*
X57531646Y-94525869D01*
X57529105Y-94529110D01*
X57529102Y-94529113D01*
X57521024Y-94539416D01*
X57516627Y-94544718D01*
X57391266Y-94687668D01*
X57385088Y-94696915D01*
X57277781Y-94857515D01*
X57272303Y-94865713D01*
X57270482Y-94869406D01*
X57270479Y-94869411D01*
X57206710Y-94998726D01*
X57177597Y-95057763D01*
X57108769Y-95260532D01*
X57107965Y-95264574D01*
X57107964Y-95264578D01*
X57070401Y-95453438D01*
X57066997Y-95470550D01*
X57066728Y-95474660D01*
X57066727Y-95474665D01*
X57059284Y-95588246D01*
X57058561Y-95595796D01*
X57058471Y-95596508D01*
X57056500Y-95604184D01*
X57056500Y-95626610D01*
X57056232Y-95634827D01*
X57055790Y-95641570D01*
X57054806Y-95651050D01*
X57051987Y-95670859D01*
X57051847Y-95684223D01*
X57052344Y-95688328D01*
X57055587Y-95715125D01*
X57056500Y-95730264D01*
X57056500Y-106921782D01*
X57055243Y-106939537D01*
X57051987Y-106962413D01*
X57051847Y-106975777D01*
X57052343Y-106979875D01*
X57053936Y-106993047D01*
X57054578Y-106999941D01*
X57066704Y-107184986D01*
X57066997Y-107189450D01*
X57067800Y-107193489D01*
X57067801Y-107193494D01*
X57107358Y-107392375D01*
X57108769Y-107399468D01*
X57177597Y-107602237D01*
X57179416Y-107605926D01*
X57179417Y-107605928D01*
X57262992Y-107775405D01*
X57272303Y-107794287D01*
X57391266Y-107972332D01*
X57393988Y-107975436D01*
X57469147Y-108061141D01*
X57473971Y-108066988D01*
X57474316Y-108067433D01*
X57478351Y-108074255D01*
X57494088Y-108089992D01*
X57499724Y-108096009D01*
X57504344Y-108101277D01*
X57510372Y-108108701D01*
X57522296Y-108124582D01*
X57531646Y-108134131D01*
X57534890Y-108136675D01*
X57534896Y-108136680D01*
X57556158Y-108153352D01*
X57567506Y-108163410D01*
X61160974Y-111756878D01*
X61172638Y-111770319D01*
X61186518Y-111788805D01*
X61195869Y-111798354D01*
X61209555Y-111809085D01*
X61214869Y-111813492D01*
X61357674Y-111938726D01*
X61535718Y-112057688D01*
X61727767Y-112152394D01*
X61930534Y-112221221D01*
X61934576Y-112222025D01*
X61934580Y-112222026D01*
X62136507Y-112262189D01*
X62136512Y-112262190D01*
X62140551Y-112262993D01*
X62144663Y-112263262D01*
X62144667Y-112263263D01*
X62258084Y-112270695D01*
X62265638Y-112271419D01*
X62266509Y-112271529D01*
X62274184Y-112273500D01*
X62296769Y-112273500D01*
X62305008Y-112273770D01*
X62311417Y-112274190D01*
X62320930Y-112275177D01*
X62336774Y-112277432D01*
X62336779Y-112277432D01*
X62340859Y-112278013D01*
X62347074Y-112278078D01*
X62350089Y-112278110D01*
X62350094Y-112278110D01*
X62354223Y-112278153D01*
X62385125Y-112274413D01*
X62400264Y-112273500D01*
X68969282Y-112273500D01*
X68987038Y-112274757D01*
X69009913Y-112278013D01*
X69016400Y-112278081D01*
X69019151Y-112278110D01*
X69019154Y-112278110D01*
X69023277Y-112278153D01*
X69027375Y-112277657D01*
X69027378Y-112277657D01*
X69040731Y-112276042D01*
X69047624Y-112275400D01*
X69232833Y-112263263D01*
X69232837Y-112263262D01*
X69236949Y-112262993D01*
X69240988Y-112262190D01*
X69240993Y-112262189D01*
X69442920Y-112222026D01*
X69442924Y-112222025D01*
X69446966Y-112221221D01*
X69649733Y-112152394D01*
X69841782Y-112057688D01*
X70019826Y-111938726D01*
X70022924Y-111936009D01*
X70022932Y-111936003D01*
X70108519Y-111860947D01*
X70114368Y-111856121D01*
X70114931Y-111855685D01*
X70121755Y-111851649D01*
X70137599Y-111835805D01*
X70143615Y-111830169D01*
X70148672Y-111825734D01*
X70156099Y-111819704D01*
X70172082Y-111807704D01*
X70181631Y-111798354D01*
X70184175Y-111795110D01*
X70184180Y-111795104D01*
X70200852Y-111773842D01*
X70210910Y-111762494D01*
X70712148Y-111261256D01*
X70774460Y-111227230D01*
X70826363Y-111226880D01*
X70932414Y-111248456D01*
X71042656Y-111270885D01*
X71173324Y-111275676D01*
X71268949Y-111279183D01*
X71268953Y-111279183D01*
X71274113Y-111279372D01*
X71279233Y-111278716D01*
X71279235Y-111278716D01*
X71352270Y-111269360D01*
X71503847Y-111249942D01*
X71508795Y-111248457D01*
X71508802Y-111248456D01*
X71720747Y-111184869D01*
X71725690Y-111183386D01*
X71806236Y-111143927D01*
X71929049Y-111083762D01*
X71929052Y-111083760D01*
X71933684Y-111081491D01*
X72122243Y-110946994D01*
X72286303Y-110783505D01*
X72421458Y-110595417D01*
X72468641Y-110499950D01*
X72521784Y-110392422D01*
X72521785Y-110392420D01*
X72524078Y-110387780D01*
X72591408Y-110166171D01*
X72621640Y-109936541D01*
X72623327Y-109867500D01*
X72617032Y-109790934D01*
X72604773Y-109641818D01*
X72604772Y-109641812D01*
X72604349Y-109636667D01*
X72547925Y-109412033D01*
X72545866Y-109407297D01*
X72457630Y-109204368D01*
X72457628Y-109204365D01*
X72455570Y-109199631D01*
X72329764Y-109005165D01*
X72173887Y-108833858D01*
X72169836Y-108830659D01*
X72169832Y-108830655D01*
X71996177Y-108693511D01*
X71996172Y-108693508D01*
X71992123Y-108690310D01*
X71987607Y-108687817D01*
X71987604Y-108687815D01*
X71793879Y-108580873D01*
X71793875Y-108580871D01*
X71789355Y-108578376D01*
X71784486Y-108576652D01*
X71784482Y-108576650D01*
X71575903Y-108502788D01*
X71575899Y-108502787D01*
X71571028Y-108501062D01*
X71565935Y-108500155D01*
X71565932Y-108500154D01*
X71348095Y-108461351D01*
X71348089Y-108461350D01*
X71343006Y-108460445D01*
X71270096Y-108459554D01*
X71116581Y-108457679D01*
X71116579Y-108457679D01*
X71111411Y-108457616D01*
X70882464Y-108492650D01*
X70662314Y-108564606D01*
X70657726Y-108566994D01*
X70657722Y-108566996D01*
X70509401Y-108644207D01*
X70456872Y-108671552D01*
X70452739Y-108674655D01*
X70452736Y-108674657D01*
X70427625Y-108693511D01*
X70271655Y-108810617D01*
X70155539Y-108932125D01*
X70094017Y-108967554D01*
X70023105Y-108964097D01*
X69971255Y-108929874D01*
X69883887Y-108833858D01*
X69879836Y-108830659D01*
X69879832Y-108830655D01*
X69706178Y-108693512D01*
X69706175Y-108693510D01*
X69702123Y-108690310D01*
X69618607Y-108644207D01*
X69568636Y-108593774D01*
X69553500Y-108533898D01*
X69553500Y-105808601D01*
X69573502Y-105740480D01*
X69627158Y-105693987D01*
X69641818Y-105688368D01*
X69693745Y-105672095D01*
X69771450Y-105647744D01*
X69771452Y-105647743D01*
X69778699Y-105645472D01*
X69925381Y-105556639D01*
X69940905Y-105541115D01*
X70003217Y-105507089D01*
X70074032Y-105512154D01*
X70119095Y-105541115D01*
X70154619Y-105576639D01*
X70301301Y-105665472D01*
X70308548Y-105667743D01*
X70308550Y-105667744D01*
X70374359Y-105688367D01*
X70464938Y-105716753D01*
X70538365Y-105723500D01*
X70580136Y-105723500D01*
X70974214Y-105723499D01*
X71029941Y-105736493D01*
X71099059Y-105770577D01*
X71099066Y-105770580D01*
X71102763Y-105772403D01*
X71305532Y-105841231D01*
X71309574Y-105842035D01*
X71309578Y-105842036D01*
X71511506Y-105882199D01*
X71511511Y-105882200D01*
X71515550Y-105883003D01*
X71519660Y-105883272D01*
X71519665Y-105883273D01*
X71633246Y-105890716D01*
X71640796Y-105891439D01*
X71641508Y-105891529D01*
X71649184Y-105893500D01*
X71671610Y-105893500D01*
X71679827Y-105893768D01*
X71686570Y-105894210D01*
X71696050Y-105895194D01*
X71709152Y-105897059D01*
X71711775Y-105897432D01*
X71711777Y-105897432D01*
X71715859Y-105898013D01*
X71722192Y-105898079D01*
X71725089Y-105898110D01*
X71725094Y-105898110D01*
X71729223Y-105898153D01*
X71760125Y-105894413D01*
X71775264Y-105893500D01*
X71843245Y-105893500D01*
X71911366Y-105913502D01*
X71957859Y-105967158D01*
X71967963Y-106037432D01*
X71938469Y-106102012D01*
X71931438Y-106109179D01*
X71928747Y-106111134D01*
X71924325Y-106116045D01*
X71924324Y-106116046D01*
X71805379Y-106248148D01*
X71800960Y-106253056D01*
X71797659Y-106258774D01*
X71722794Y-106388444D01*
X71705473Y-106418444D01*
X71646458Y-106600072D01*
X71645768Y-106606633D01*
X71645768Y-106606635D01*
X71635899Y-106700535D01*
X71626496Y-106790000D01*
X71627186Y-106796565D01*
X71641285Y-106930706D01*
X71646458Y-106979928D01*
X71705473Y-107161556D01*
X71708776Y-107167278D01*
X71708777Y-107167279D01*
X71723912Y-107193494D01*
X71800960Y-107326944D01*
X71805378Y-107331851D01*
X71805379Y-107331852D01*
X71901735Y-107438866D01*
X71928747Y-107468866D01*
X72083248Y-107581118D01*
X72089276Y-107583802D01*
X72089278Y-107583803D01*
X72193412Y-107630166D01*
X72257712Y-107658794D01*
X72351113Y-107678647D01*
X72438056Y-107697128D01*
X72438061Y-107697128D01*
X72444513Y-107698500D01*
X72530405Y-107698500D01*
X72598526Y-107718502D01*
X72619501Y-107735405D01*
X73063788Y-108179693D01*
X73074655Y-108192084D01*
X73091159Y-108213594D01*
X73097118Y-108218368D01*
X73118304Y-108240002D01*
X73147304Y-108277797D01*
X73163747Y-108306278D01*
X73187666Y-108364024D01*
X73196178Y-108395795D01*
X73201838Y-108438796D01*
X73202909Y-108456556D01*
X73202873Y-108459995D01*
X73201882Y-108467522D01*
X73202715Y-108475068D01*
X73202715Y-108475072D01*
X73205739Y-108502462D01*
X73206500Y-108516287D01*
X73206500Y-112468599D01*
X73205421Y-112485050D01*
X73201882Y-112511923D01*
X73202716Y-112519476D01*
X73202636Y-112527069D01*
X73201027Y-112527052D01*
X73193622Y-112579086D01*
X73191739Y-112583633D01*
X73164002Y-112624679D01*
X73159205Y-112628360D01*
X73154455Y-112634289D01*
X73137221Y-112655799D01*
X73127984Y-112666111D01*
X73091723Y-112702372D01*
X73079334Y-112713238D01*
X73057811Y-112729754D01*
X73053063Y-112735681D01*
X73047634Y-112740997D01*
X73046503Y-112739842D01*
X73004513Y-112771374D01*
X73002584Y-112772173D01*
X72999974Y-112773254D01*
X72951313Y-112782675D01*
X72945289Y-112781882D01*
X72937746Y-112782715D01*
X72937742Y-112782715D01*
X72910364Y-112785739D01*
X72896533Y-112786500D01*
X72795352Y-112786500D01*
X72777603Y-112785244D01*
X72758783Y-112782566D01*
X72758779Y-112782566D01*
X72754712Y-112781987D01*
X72749229Y-112781930D01*
X72745481Y-112781890D01*
X72745476Y-112781890D01*
X72741348Y-112781847D01*
X72716339Y-112784874D01*
X72709476Y-112785514D01*
X72622557Y-112791214D01*
X72557953Y-112795451D01*
X72557949Y-112795452D01*
X72553840Y-112795721D01*
X72369541Y-112832386D01*
X72247126Y-112873945D01*
X72195513Y-112891467D01*
X72195509Y-112891468D01*
X72191605Y-112892794D01*
X72023075Y-112975910D01*
X72019645Y-112978202D01*
X72019638Y-112978206D01*
X71947269Y-113026565D01*
X71866836Y-113080312D01*
X71863735Y-113083032D01*
X71803321Y-113136015D01*
X71797143Y-113140533D01*
X71797411Y-113140878D01*
X71791148Y-113145736D01*
X71784322Y-113149773D01*
X71765907Y-113168188D01*
X71752475Y-113179845D01*
X71733979Y-113193734D01*
X71724431Y-113203085D01*
X71722355Y-113205732D01*
X71713390Y-113214513D01*
X71712632Y-113215082D01*
X71703083Y-113224433D01*
X71687540Y-113244255D01*
X71683140Y-113249559D01*
X71583015Y-113363723D01*
X71583011Y-113363728D01*
X71580295Y-113366825D01*
X71578002Y-113370257D01*
X71478188Y-113519629D01*
X71478184Y-113519636D01*
X71475892Y-113523066D01*
X71392775Y-113691598D01*
X71391448Y-113695507D01*
X71342864Y-113838618D01*
X71332367Y-113869537D01*
X71331562Y-113873582D01*
X71331562Y-113873583D01*
X71301114Y-114026631D01*
X71295701Y-114053838D01*
X71295432Y-114057945D01*
X71295431Y-114057950D01*
X71290140Y-114138644D01*
X71289416Y-114146197D01*
X71288473Y-114153657D01*
X71286500Y-114161341D01*
X71286500Y-114187361D01*
X71285242Y-114205118D01*
X71281987Y-114227984D01*
X71281847Y-114241348D01*
X71282343Y-114245446D01*
X71285588Y-114272272D01*
X71286500Y-114287404D01*
X71286500Y-115559023D01*
X71266498Y-115627144D01*
X71249595Y-115648118D01*
X71242251Y-115655462D01*
X71239094Y-115659970D01*
X71239092Y-115659973D01*
X71119101Y-115831338D01*
X71115944Y-115835847D01*
X71113621Y-115840829D01*
X71113618Y-115840834D01*
X71104970Y-115859380D01*
X71022880Y-116035424D01*
X70965885Y-116248129D01*
X70946693Y-116467500D01*
X70965885Y-116686871D01*
X71022880Y-116899576D01*
X71064096Y-116987965D01*
X71113618Y-117094166D01*
X71113621Y-117094171D01*
X71115944Y-117099153D01*
X71119100Y-117103660D01*
X71119101Y-117103662D01*
X71233526Y-117267077D01*
X71242251Y-117279538D01*
X71397962Y-117435249D01*
X71578346Y-117561556D01*
X71777924Y-117654620D01*
X71990629Y-117711615D01*
X72210000Y-117730807D01*
X72429371Y-117711615D01*
X72642076Y-117654620D01*
X72841654Y-117561556D01*
X73022038Y-117435249D01*
X73140905Y-117316382D01*
X73203217Y-117282356D01*
X73274032Y-117287421D01*
X73319095Y-117316382D01*
X73437962Y-117435249D01*
X73618346Y-117561556D01*
X73817924Y-117654620D01*
X74030629Y-117711615D01*
X74250000Y-117730807D01*
X74469371Y-117711615D01*
X74484556Y-117707546D01*
X74500717Y-117703216D01*
X74571694Y-117704906D01*
X74622423Y-117735828D01*
X74833477Y-117946882D01*
X74845141Y-117960323D01*
X74859018Y-117978805D01*
X74868369Y-117988354D01*
X74871610Y-117990895D01*
X74871613Y-117990898D01*
X74876614Y-117994819D01*
X74880294Y-117997704D01*
X74881916Y-117998976D01*
X74887218Y-118003373D01*
X75030168Y-118128734D01*
X75208213Y-118247697D01*
X75211906Y-118249518D01*
X75211911Y-118249521D01*
X75234005Y-118260416D01*
X75400263Y-118342403D01*
X75603032Y-118411231D01*
X75607074Y-118412035D01*
X75607078Y-118412036D01*
X75809006Y-118452199D01*
X75809011Y-118452200D01*
X75813050Y-118453003D01*
X75817160Y-118453272D01*
X75817165Y-118453273D01*
X75930746Y-118460716D01*
X75938296Y-118461439D01*
X75939008Y-118461529D01*
X75946684Y-118463500D01*
X75969110Y-118463500D01*
X75977327Y-118463768D01*
X75984070Y-118464210D01*
X75993550Y-118465194D01*
X76006652Y-118467059D01*
X76009275Y-118467432D01*
X76009277Y-118467432D01*
X76013359Y-118468013D01*
X76019692Y-118468079D01*
X76022589Y-118468110D01*
X76022594Y-118468110D01*
X76026723Y-118468153D01*
X76057625Y-118464413D01*
X76072764Y-118463500D01*
X78491782Y-118463500D01*
X78509538Y-118464757D01*
X78532413Y-118468013D01*
X78538900Y-118468081D01*
X78541651Y-118468110D01*
X78541654Y-118468110D01*
X78545777Y-118468153D01*
X78552694Y-118467316D01*
X78563047Y-118466064D01*
X78569941Y-118465422D01*
X78755334Y-118453273D01*
X78755338Y-118453272D01*
X78759450Y-118453003D01*
X78763489Y-118452200D01*
X78763494Y-118452199D01*
X78965422Y-118412036D01*
X78965426Y-118412035D01*
X78969468Y-118411231D01*
X79172237Y-118342403D01*
X79338495Y-118260416D01*
X79360589Y-118249521D01*
X79360594Y-118249518D01*
X79364287Y-118247697D01*
X79542332Y-118128734D01*
X79631141Y-118050853D01*
X79636988Y-118046029D01*
X79637433Y-118045684D01*
X79644255Y-118041649D01*
X79659992Y-118025912D01*
X79666009Y-118020276D01*
X79671277Y-118015656D01*
X79678702Y-118009627D01*
X79691284Y-118000180D01*
X79694582Y-117997704D01*
X79704131Y-117988354D01*
X79711619Y-117978805D01*
X79723348Y-117963846D01*
X79733406Y-117952498D01*
X80886882Y-116799023D01*
X80900324Y-116787358D01*
X80915509Y-116775957D01*
X80915511Y-116775955D01*
X80918805Y-116773482D01*
X80928354Y-116764131D01*
X80938980Y-116750579D01*
X80943373Y-116745282D01*
X81068734Y-116602332D01*
X81187697Y-116424287D01*
X81241985Y-116314200D01*
X81280583Y-116235928D01*
X81280584Y-116235926D01*
X81282403Y-116232237D01*
X81351231Y-116029468D01*
X81368050Y-115944907D01*
X81392199Y-115823494D01*
X81392200Y-115823489D01*
X81393003Y-115819450D01*
X81394996Y-115789046D01*
X81400716Y-115701754D01*
X81401439Y-115694204D01*
X81401529Y-115693492D01*
X81403500Y-115685816D01*
X81403500Y-115663390D01*
X81403768Y-115655173D01*
X81404210Y-115648430D01*
X81405194Y-115638950D01*
X81408013Y-115619141D01*
X81408153Y-115605777D01*
X81404413Y-115574875D01*
X81403500Y-115559736D01*
X81403500Y-114508218D01*
X81404757Y-114490463D01*
X81407432Y-114471667D01*
X81408013Y-114467587D01*
X81408153Y-114454223D01*
X81407657Y-114450122D01*
X81406042Y-114436769D01*
X81405400Y-114429876D01*
X81393263Y-114244667D01*
X81393262Y-114244663D01*
X81392993Y-114240551D01*
X81391316Y-114232116D01*
X81352026Y-114034580D01*
X81352025Y-114034576D01*
X81351221Y-114030534D01*
X81282394Y-113827767D01*
X81187688Y-113635718D01*
X81068726Y-113457674D01*
X81066009Y-113454576D01*
X81066003Y-113454568D01*
X80990947Y-113368981D01*
X80986121Y-113363132D01*
X80985685Y-113362569D01*
X80981649Y-113355745D01*
X80965797Y-113339893D01*
X80960163Y-113333879D01*
X80955731Y-113328825D01*
X80949709Y-113321407D01*
X80940184Y-113308720D01*
X80940178Y-113308713D01*
X80937704Y-113305418D01*
X80928354Y-113295869D01*
X80925110Y-113293325D01*
X80925104Y-113293320D01*
X80903842Y-113276648D01*
X80892494Y-113266590D01*
X78596217Y-110970312D01*
X78585349Y-110957920D01*
X78573466Y-110942433D01*
X78573464Y-110942431D01*
X78568841Y-110936406D01*
X78562882Y-110931632D01*
X78541696Y-110909998D01*
X78512696Y-110872203D01*
X78496251Y-110843719D01*
X78472334Y-110785976D01*
X78463822Y-110754205D01*
X78458162Y-110711204D01*
X78457091Y-110693444D01*
X78457127Y-110690005D01*
X78458118Y-110682478D01*
X78454261Y-110647538D01*
X78453500Y-110633713D01*
X78453500Y-108374224D01*
X78454578Y-108357779D01*
X78457127Y-108338420D01*
X78457127Y-108338416D01*
X78458118Y-108330888D01*
X78457284Y-108323334D01*
X78457600Y-108293058D01*
X78463822Y-108245791D01*
X78472334Y-108214024D01*
X78496253Y-108156277D01*
X78512698Y-108127794D01*
X78539060Y-108093438D01*
X78550861Y-108080121D01*
X78553365Y-108077669D01*
X78559389Y-108073046D01*
X78581369Y-108045610D01*
X78590609Y-108035295D01*
X78850499Y-107775405D01*
X78912811Y-107741379D01*
X78939594Y-107738500D01*
X78995487Y-107738500D01*
X79001939Y-107737128D01*
X79001944Y-107737128D01*
X79099242Y-107716446D01*
X79182288Y-107698794D01*
X79188319Y-107696109D01*
X79350722Y-107623803D01*
X79350724Y-107623802D01*
X79356752Y-107621118D01*
X79382740Y-107602237D01*
X79496732Y-107519416D01*
X79511253Y-107508866D01*
X79554076Y-107461306D01*
X79634621Y-107371852D01*
X79634622Y-107371851D01*
X79639040Y-107366944D01*
X79717147Y-107231659D01*
X79731223Y-107207279D01*
X79731224Y-107207278D01*
X79734527Y-107201556D01*
X79793542Y-107019928D01*
X79798183Y-106975777D01*
X79812814Y-106836565D01*
X79813504Y-106830000D01*
X79808070Y-106778301D01*
X79794232Y-106646635D01*
X79794232Y-106646633D01*
X79793542Y-106640072D01*
X79791503Y-106633797D01*
X79791502Y-106633792D01*
X79789762Y-106628438D01*
X79787733Y-106557471D01*
X79824394Y-106496672D01*
X79888106Y-106465346D01*
X79909594Y-106463500D01*
X80225776Y-106463500D01*
X80242221Y-106464578D01*
X80261580Y-106467127D01*
X80261584Y-106467127D01*
X80269112Y-106468118D01*
X80276665Y-106467284D01*
X80276666Y-106467284D01*
X80306942Y-106467600D01*
X80354209Y-106473822D01*
X80385976Y-106482334D01*
X80443723Y-106506253D01*
X80472205Y-106522697D01*
X80506566Y-106549063D01*
X80519880Y-106560861D01*
X80522327Y-106563360D01*
X80526954Y-106569389D01*
X80535999Y-106576635D01*
X80551472Y-106589031D01*
X80592129Y-106647233D01*
X80598001Y-106700535D01*
X80586496Y-106810000D01*
X80587186Y-106816565D01*
X80603920Y-106975777D01*
X80606458Y-106999928D01*
X80665473Y-107181556D01*
X80668776Y-107187278D01*
X80668777Y-107187279D01*
X80672365Y-107193494D01*
X80760960Y-107346944D01*
X80765378Y-107351851D01*
X80765379Y-107351852D01*
X80863932Y-107461306D01*
X80888747Y-107488866D01*
X81043248Y-107601118D01*
X81049276Y-107603802D01*
X81049278Y-107603803D01*
X81194591Y-107668500D01*
X81217712Y-107678794D01*
X81341293Y-107705062D01*
X81403766Y-107738790D01*
X81438088Y-107800940D01*
X81433360Y-107871779D01*
X81404191Y-107917404D01*
X80848112Y-108473483D01*
X80785800Y-108507509D01*
X80721087Y-108503424D01*
X80720906Y-108504110D01*
X80717437Y-108503194D01*
X80716967Y-108503164D01*
X80715914Y-108502791D01*
X80715900Y-108502787D01*
X80711028Y-108501062D01*
X80705935Y-108500155D01*
X80705932Y-108500154D01*
X80488095Y-108461351D01*
X80488089Y-108461350D01*
X80483006Y-108460445D01*
X80410096Y-108459554D01*
X80256581Y-108457679D01*
X80256579Y-108457679D01*
X80251411Y-108457616D01*
X80022464Y-108492650D01*
X79802314Y-108564606D01*
X79797726Y-108566994D01*
X79797722Y-108566996D01*
X79649401Y-108644207D01*
X79596872Y-108671552D01*
X79592739Y-108674655D01*
X79592736Y-108674657D01*
X79567625Y-108693511D01*
X79411655Y-108810617D01*
X79408083Y-108814355D01*
X79261683Y-108967554D01*
X79251639Y-108978064D01*
X79248725Y-108982336D01*
X79248724Y-108982337D01*
X79233152Y-109005165D01*
X79121119Y-109169399D01*
X79023602Y-109379481D01*
X78961707Y-109602669D01*
X78937095Y-109832969D01*
X78937392Y-109838122D01*
X78937392Y-109838125D01*
X78943067Y-109936541D01*
X78950427Y-110064197D01*
X78951564Y-110069243D01*
X78951565Y-110069249D01*
X78983741Y-110212023D01*
X79001346Y-110290142D01*
X79003288Y-110294924D01*
X79003289Y-110294928D01*
X79086540Y-110499950D01*
X79088484Y-110504737D01*
X79209501Y-110702219D01*
X79361147Y-110877284D01*
X79539349Y-111025230D01*
X79739322Y-111142084D01*
X79955694Y-111224709D01*
X79960760Y-111225740D01*
X79960761Y-111225740D01*
X79968085Y-111227230D01*
X80182656Y-111270885D01*
X80313324Y-111275676D01*
X80408949Y-111279183D01*
X80408953Y-111279183D01*
X80414113Y-111279372D01*
X80419233Y-111278716D01*
X80419235Y-111278716D01*
X80492270Y-111269360D01*
X80643847Y-111249942D01*
X80648795Y-111248457D01*
X80648802Y-111248456D01*
X80860747Y-111184869D01*
X80865690Y-111183386D01*
X80946236Y-111143927D01*
X81069049Y-111083762D01*
X81069052Y-111083760D01*
X81073684Y-111081491D01*
X81262243Y-110946994D01*
X81407670Y-110802073D01*
X81470041Y-110768157D01*
X81540848Y-110773345D01*
X81591847Y-110808826D01*
X81651147Y-110877284D01*
X81829349Y-111025230D01*
X82029322Y-111142084D01*
X82245694Y-111224709D01*
X82250760Y-111225740D01*
X82250761Y-111225740D01*
X82258085Y-111227230D01*
X82472656Y-111270885D01*
X82603324Y-111275676D01*
X82698949Y-111279183D01*
X82698953Y-111279183D01*
X82704113Y-111279372D01*
X82709233Y-111278716D01*
X82709235Y-111278716D01*
X82782270Y-111269360D01*
X82933847Y-111249942D01*
X82938795Y-111248457D01*
X82938802Y-111248456D01*
X83150747Y-111184869D01*
X83155690Y-111183386D01*
X83236236Y-111143927D01*
X83359049Y-111083762D01*
X83359052Y-111083760D01*
X83363684Y-111081491D01*
X83552243Y-110946994D01*
X83716303Y-110783505D01*
X83851458Y-110595417D01*
X83898641Y-110499950D01*
X83951784Y-110392422D01*
X83951785Y-110392420D01*
X83954078Y-110387780D01*
X84021408Y-110166171D01*
X84051640Y-109936541D01*
X84053327Y-109867500D01*
X84047032Y-109790934D01*
X84034773Y-109641818D01*
X84034772Y-109641812D01*
X84034349Y-109636667D01*
X83977925Y-109412033D01*
X83975866Y-109407297D01*
X83887630Y-109204368D01*
X83887628Y-109204365D01*
X83885570Y-109199631D01*
X83759764Y-109005165D01*
X83603887Y-108833858D01*
X83599836Y-108830659D01*
X83599832Y-108830655D01*
X83426177Y-108693511D01*
X83426172Y-108693508D01*
X83422123Y-108690310D01*
X83417607Y-108687817D01*
X83417604Y-108687815D01*
X83223879Y-108580873D01*
X83223875Y-108580871D01*
X83219355Y-108578376D01*
X83214486Y-108576652D01*
X83214482Y-108576650D01*
X83005903Y-108502788D01*
X83005899Y-108502787D01*
X83001028Y-108501062D01*
X82923942Y-108487331D01*
X82854242Y-108474915D01*
X82790685Y-108443277D01*
X82754322Y-108382299D01*
X82756699Y-108311342D01*
X82771573Y-108280868D01*
X82795390Y-108245223D01*
X82795397Y-108245210D01*
X82797688Y-108241782D01*
X82892394Y-108049733D01*
X82961221Y-107846966D01*
X82962026Y-107842920D01*
X83002189Y-107640993D01*
X83002190Y-107640988D01*
X83002993Y-107636949D01*
X83003263Y-107632833D01*
X83010695Y-107519416D01*
X83011419Y-107511862D01*
X83011529Y-107510991D01*
X83013500Y-107503316D01*
X83013500Y-107480731D01*
X83013770Y-107472492D01*
X83014190Y-107466083D01*
X83015177Y-107456570D01*
X83017432Y-107440726D01*
X83017432Y-107440721D01*
X83018013Y-107436641D01*
X83018153Y-107423277D01*
X83014413Y-107392375D01*
X83013500Y-107377236D01*
X83013500Y-106688218D01*
X83014757Y-106670463D01*
X83017432Y-106651667D01*
X83018013Y-106647587D01*
X83018153Y-106634223D01*
X83017316Y-106627306D01*
X83016064Y-106616953D01*
X83015422Y-106610059D01*
X83003273Y-106424666D01*
X83003272Y-106424662D01*
X83003003Y-106420550D01*
X82997868Y-106394729D01*
X82962036Y-106214578D01*
X82962035Y-106214574D01*
X82961231Y-106210532D01*
X82892403Y-106007763D01*
X82890583Y-106004072D01*
X82799521Y-105819411D01*
X82799518Y-105819406D01*
X82797697Y-105815713D01*
X82721992Y-105702409D01*
X82681025Y-105641096D01*
X82681021Y-105641091D01*
X82678734Y-105637668D01*
X82676015Y-105634567D01*
X82676010Y-105634561D01*
X82600849Y-105548855D01*
X82596021Y-105543004D01*
X82595688Y-105542574D01*
X82591649Y-105535745D01*
X82575912Y-105520008D01*
X82570276Y-105513991D01*
X82565656Y-105508723D01*
X82559627Y-105501298D01*
X82550180Y-105488716D01*
X82547704Y-105485418D01*
X82538354Y-105475869D01*
X82513851Y-105456656D01*
X82502502Y-105446598D01*
X82199019Y-105143114D01*
X82187356Y-105129673D01*
X82175965Y-105114502D01*
X82173482Y-105111195D01*
X82164131Y-105101646D01*
X82150445Y-105090915D01*
X82145124Y-105086502D01*
X82102077Y-105048751D01*
X82002326Y-104961274D01*
X81824282Y-104842312D01*
X81632233Y-104747606D01*
X81429466Y-104678779D01*
X81425424Y-104677975D01*
X81425420Y-104677974D01*
X81223493Y-104637811D01*
X81223488Y-104637810D01*
X81219449Y-104637007D01*
X81215337Y-104636738D01*
X81215333Y-104636737D01*
X81101916Y-104629305D01*
X81094362Y-104628581D01*
X81093491Y-104628471D01*
X81085816Y-104626500D01*
X81063231Y-104626500D01*
X81054992Y-104626230D01*
X81048583Y-104625810D01*
X81039070Y-104624823D01*
X81023226Y-104622568D01*
X81023221Y-104622568D01*
X81019141Y-104621987D01*
X81012926Y-104621922D01*
X81009911Y-104621890D01*
X81009906Y-104621890D01*
X81005777Y-104621847D01*
X80974875Y-104625587D01*
X80959736Y-104626500D01*
X71974714Y-104626500D01*
X71906593Y-104606498D01*
X71860100Y-104552842D01*
X71849243Y-104512029D01*
X71847366Y-104491600D01*
X71847364Y-104491591D01*
X71846753Y-104484938D01*
X71795472Y-104321301D01*
X71706639Y-104174619D01*
X71611115Y-104079095D01*
X71577089Y-104016783D01*
X71582154Y-103945968D01*
X71611115Y-103900905D01*
X71706639Y-103805381D01*
X71795472Y-103658699D01*
X71804012Y-103631450D01*
X71844752Y-103501446D01*
X71846753Y-103495062D01*
X71853500Y-103421635D01*
X71853499Y-102908366D01*
X71851662Y-102888365D01*
X71847364Y-102841592D01*
X71846753Y-102834938D01*
X71795472Y-102671301D01*
X71706639Y-102524619D01*
X71585381Y-102403361D01*
X71438699Y-102314528D01*
X71431452Y-102312257D01*
X71431450Y-102312256D01*
X71365164Y-102291483D01*
X71275062Y-102263247D01*
X71201635Y-102256500D01*
X71183527Y-102256500D01*
X70909595Y-102256501D01*
X70841476Y-102236499D01*
X70820500Y-102219596D01*
X70556212Y-101955307D01*
X70545345Y-101942915D01*
X70528841Y-101921406D01*
X70522912Y-101916656D01*
X70522910Y-101916654D01*
X70522903Y-101916648D01*
X70501726Y-101895022D01*
X70472705Y-101857201D01*
X70456261Y-101828717D01*
X70432344Y-101770973D01*
X70423832Y-101739203D01*
X70423163Y-101734123D01*
X70418162Y-101696128D01*
X70417091Y-101678368D01*
X70417126Y-101675012D01*
X70418118Y-101667478D01*
X70414261Y-101632538D01*
X70413500Y-101618713D01*
X70413500Y-96810000D01*
X71806496Y-96810000D01*
X71807186Y-96816565D01*
X71821866Y-96956233D01*
X71826458Y-96999928D01*
X71885473Y-97181556D01*
X71888776Y-97187278D01*
X71888777Y-97187279D01*
X71894610Y-97197382D01*
X71980960Y-97346944D01*
X71985378Y-97351851D01*
X71985379Y-97351852D01*
X72016224Y-97386109D01*
X72108747Y-97488866D01*
X72263248Y-97601118D01*
X72269276Y-97603802D01*
X72269278Y-97603803D01*
X72428009Y-97674474D01*
X72437712Y-97678794D01*
X72512680Y-97694729D01*
X72618056Y-97717128D01*
X72618061Y-97717128D01*
X72624513Y-97718500D01*
X72815487Y-97718500D01*
X72821939Y-97717128D01*
X72821944Y-97717128D01*
X72927320Y-97694729D01*
X73002288Y-97678794D01*
X73011991Y-97674474D01*
X73170722Y-97603803D01*
X73170724Y-97603802D01*
X73176752Y-97601118D01*
X73331253Y-97488866D01*
X73423776Y-97386109D01*
X73454621Y-97351852D01*
X73454622Y-97351851D01*
X73459040Y-97346944D01*
X73545390Y-97197382D01*
X73551223Y-97187279D01*
X73551224Y-97187278D01*
X73554527Y-97181556D01*
X73591032Y-97069207D01*
X73631104Y-97010602D01*
X73696501Y-96982965D01*
X73766458Y-96995072D01*
X73799959Y-97019049D01*
X74276053Y-97495143D01*
X74310079Y-97557455D01*
X74305014Y-97628270D01*
X74296078Y-97647236D01*
X74272287Y-97688444D01*
X74213272Y-97870072D01*
X74212582Y-97876633D01*
X74212582Y-97876635D01*
X74204188Y-97956498D01*
X74193310Y-98060000D01*
X74194000Y-98066565D01*
X74200481Y-98128224D01*
X74213272Y-98249928D01*
X74272287Y-98431556D01*
X74275590Y-98437278D01*
X74275591Y-98437279D01*
X74289227Y-98460897D01*
X74367774Y-98596944D01*
X74495561Y-98738866D01*
X74580084Y-98800276D01*
X74609502Y-98821649D01*
X74650062Y-98851118D01*
X74656090Y-98853802D01*
X74656092Y-98853803D01*
X74779470Y-98908734D01*
X74824526Y-98928794D01*
X74917927Y-98948647D01*
X75004870Y-98967128D01*
X75004875Y-98967128D01*
X75011327Y-98968500D01*
X75125696Y-98968500D01*
X75195696Y-98989733D01*
X75252529Y-99027706D01*
X75444581Y-99122410D01*
X75647352Y-99191236D01*
X75651385Y-99192038D01*
X75651392Y-99192040D01*
X75853333Y-99232203D01*
X75853335Y-99232203D01*
X75857371Y-99233006D01*
X75861480Y-99233275D01*
X75861486Y-99233276D01*
X75975064Y-99240717D01*
X75982615Y-99241440D01*
X75983320Y-99241529D01*
X75990998Y-99243500D01*
X76013432Y-99243500D01*
X76021643Y-99243768D01*
X76028393Y-99244210D01*
X76037879Y-99245195D01*
X76057682Y-99248013D01*
X76064059Y-99248080D01*
X76066913Y-99248110D01*
X76066918Y-99248110D01*
X76071046Y-99248153D01*
X76101944Y-99244413D01*
X76117085Y-99243500D01*
X80351782Y-99243500D01*
X80369538Y-99244757D01*
X80392413Y-99248013D01*
X80398900Y-99248081D01*
X80401651Y-99248110D01*
X80401654Y-99248110D01*
X80405777Y-99248153D01*
X80412694Y-99247316D01*
X80423047Y-99246064D01*
X80429941Y-99245422D01*
X80615334Y-99233273D01*
X80615338Y-99233272D01*
X80619450Y-99233003D01*
X80623489Y-99232200D01*
X80623494Y-99232199D01*
X80825422Y-99192036D01*
X80825426Y-99192035D01*
X80829468Y-99191231D01*
X81032237Y-99122403D01*
X81035932Y-99120581D01*
X81220589Y-99029521D01*
X81220594Y-99029518D01*
X81224287Y-99027697D01*
X81402332Y-98908734D01*
X81491141Y-98830853D01*
X81496988Y-98826029D01*
X81497433Y-98825684D01*
X81504255Y-98821649D01*
X81519992Y-98805912D01*
X81526009Y-98800276D01*
X81531277Y-98795656D01*
X81538702Y-98789627D01*
X81551284Y-98780180D01*
X81554582Y-98777704D01*
X81564131Y-98768354D01*
X81566675Y-98765110D01*
X81566680Y-98765104D01*
X81583352Y-98743842D01*
X81593410Y-98732494D01*
X81858697Y-98467207D01*
X81872136Y-98455544D01*
X81887329Y-98444136D01*
X81890628Y-98441659D01*
X81900177Y-98432308D01*
X81910919Y-98418608D01*
X81915314Y-98413308D01*
X82040545Y-98270501D01*
X82159503Y-98092456D01*
X82254204Y-97900407D01*
X82257718Y-97890056D01*
X82301385Y-97761405D01*
X82323028Y-97697640D01*
X82357609Y-97523762D01*
X82363993Y-97491664D01*
X82363994Y-97491660D01*
X82364796Y-97487625D01*
X82366081Y-97468023D01*
X82372482Y-97370319D01*
X82373206Y-97362765D01*
X82373343Y-97361679D01*
X82375314Y-97354002D01*
X82375314Y-97331209D01*
X82375584Y-97322967D01*
X82375979Y-97316941D01*
X82376965Y-97307437D01*
X82379247Y-97291397D01*
X82379247Y-97291392D01*
X82379827Y-97287318D01*
X82379967Y-97273954D01*
X82376227Y-97243056D01*
X82375314Y-97227915D01*
X82375314Y-93247524D01*
X82395316Y-93179403D01*
X82407672Y-93163221D01*
X82480854Y-93081944D01*
X82540781Y-92978148D01*
X82573037Y-92922279D01*
X82573038Y-92922278D01*
X82576341Y-92916556D01*
X82635356Y-92734928D01*
X82644156Y-92651206D01*
X82654628Y-92551565D01*
X82655318Y-92545000D01*
X82635356Y-92355072D01*
X82576341Y-92173444D01*
X82480854Y-92008056D01*
X82353067Y-91866134D01*
X82198566Y-91753882D01*
X82192538Y-91751198D01*
X82192536Y-91751197D01*
X82030133Y-91678891D01*
X82030132Y-91678891D01*
X82024102Y-91676206D01*
X81930701Y-91656353D01*
X81843758Y-91637872D01*
X81843753Y-91637872D01*
X81837301Y-91636500D01*
X81646327Y-91636500D01*
X81639875Y-91637872D01*
X81639870Y-91637872D01*
X81552927Y-91656353D01*
X81459526Y-91676206D01*
X81453496Y-91678891D01*
X81453495Y-91678891D01*
X81291092Y-91751197D01*
X81291090Y-91751198D01*
X81285062Y-91753882D01*
X81130561Y-91866134D01*
X81002774Y-92008056D01*
X80907287Y-92173444D01*
X80848272Y-92355072D01*
X80847582Y-92361633D01*
X80847582Y-92361635D01*
X80833179Y-92498671D01*
X80806166Y-92564328D01*
X80747944Y-92604957D01*
X80707869Y-92611500D01*
X80604513Y-92611500D01*
X80598061Y-92612872D01*
X80598056Y-92612872D01*
X80511112Y-92631353D01*
X80417712Y-92651206D01*
X80411682Y-92653891D01*
X80411681Y-92653891D01*
X80249278Y-92726197D01*
X80249276Y-92726198D01*
X80243248Y-92728882D01*
X80237907Y-92732762D01*
X80237906Y-92732763D01*
X80187843Y-92769136D01*
X80088747Y-92841134D01*
X80084326Y-92846044D01*
X80084325Y-92846045D01*
X80000832Y-92938774D01*
X79960960Y-92983056D01*
X79865473Y-93148444D01*
X79863432Y-93154726D01*
X79863430Y-93154730D01*
X79862955Y-93156193D01*
X79862451Y-93156931D01*
X79860747Y-93160757D01*
X79860047Y-93160445D01*
X79822881Y-93214797D01*
X79757483Y-93242433D01*
X79687527Y-93230325D01*
X79635222Y-93182318D01*
X79623290Y-93156190D01*
X79606569Y-93104729D01*
X79604527Y-93098444D01*
X79597832Y-93086847D01*
X79541209Y-92988774D01*
X79509040Y-92933056D01*
X79499337Y-92922279D01*
X79385675Y-92796045D01*
X79385674Y-92796044D01*
X79381253Y-92791134D01*
X79226752Y-92678882D01*
X79220724Y-92676198D01*
X79220722Y-92676197D01*
X79058319Y-92603891D01*
X79058318Y-92603891D01*
X79052288Y-92601206D01*
X78958887Y-92581353D01*
X78871944Y-92562872D01*
X78871939Y-92562872D01*
X78865487Y-92561500D01*
X78674513Y-92561500D01*
X78668061Y-92562872D01*
X78668056Y-92562872D01*
X78581113Y-92581353D01*
X78487712Y-92601206D01*
X78481682Y-92603891D01*
X78481681Y-92603891D01*
X78319278Y-92676197D01*
X78319276Y-92676198D01*
X78313248Y-92678882D01*
X78158747Y-92791134D01*
X78154326Y-92796044D01*
X78154325Y-92796045D01*
X78040664Y-92922279D01*
X78030960Y-92933056D01*
X77998791Y-92988774D01*
X77942169Y-93086847D01*
X77935473Y-93098444D01*
X77876458Y-93280072D01*
X77856496Y-93470000D01*
X77876458Y-93659928D01*
X77935473Y-93841556D01*
X78030960Y-94006944D01*
X78096640Y-94079889D01*
X78124648Y-94110995D01*
X78154591Y-94170727D01*
X78187979Y-94338603D01*
X78187981Y-94338610D01*
X78188783Y-94342643D01*
X78257608Y-94545411D01*
X78352311Y-94737461D01*
X78354600Y-94740888D01*
X78354603Y-94740892D01*
X78468978Y-94912075D01*
X78468983Y-94912081D01*
X78471271Y-94915506D01*
X78473991Y-94918608D01*
X78473992Y-94918609D01*
X78482946Y-94928819D01*
X78513524Y-94998726D01*
X78530039Y-95155856D01*
X78532486Y-95179142D01*
X78591501Y-95360770D01*
X78637315Y-95440121D01*
X78653122Y-95467500D01*
X78669860Y-95536495D01*
X78646640Y-95603587D01*
X78590833Y-95647474D01*
X78544003Y-95656500D01*
X78344594Y-95656500D01*
X78276473Y-95636498D01*
X78255499Y-95619595D01*
X77972577Y-95336673D01*
X77960911Y-95323230D01*
X77949516Y-95308053D01*
X77949515Y-95308052D01*
X77947036Y-95304750D01*
X77941246Y-95298837D01*
X77940568Y-95298145D01*
X77937685Y-95295201D01*
X77918351Y-95280041D01*
X77914271Y-95276701D01*
X77804972Y-95183353D01*
X77804969Y-95183351D01*
X77801206Y-95180137D01*
X77761582Y-95155856D01*
X77653305Y-95089505D01*
X77653299Y-95089502D01*
X77649079Y-95086916D01*
X77644504Y-95085021D01*
X77644500Y-95085019D01*
X77488819Y-95020536D01*
X77488817Y-95020535D01*
X77484241Y-95018640D01*
X77310752Y-94976991D01*
X77239480Y-94971382D01*
X77226364Y-94969199D01*
X77220600Y-94968471D01*
X77212923Y-94966500D01*
X77186880Y-94966500D01*
X77169127Y-94965243D01*
X77150332Y-94962568D01*
X77150329Y-94962568D01*
X77146248Y-94961987D01*
X77140033Y-94961922D01*
X77137018Y-94961890D01*
X77137013Y-94961890D01*
X77132884Y-94961847D01*
X77101982Y-94965587D01*
X77086843Y-94966500D01*
X75098850Y-94966500D01*
X75030729Y-94946498D01*
X75002873Y-94920600D01*
X75002200Y-94921178D01*
X74999510Y-94918045D01*
X74997036Y-94914750D01*
X74994156Y-94911809D01*
X74994150Y-94911802D01*
X74990568Y-94908145D01*
X74987685Y-94905201D01*
X74968351Y-94890041D01*
X74964271Y-94886701D01*
X74854972Y-94793353D01*
X74854969Y-94793351D01*
X74851206Y-94790137D01*
X74815671Y-94768362D01*
X74703305Y-94699505D01*
X74703299Y-94699502D01*
X74699079Y-94696916D01*
X74694504Y-94695021D01*
X74694500Y-94695019D01*
X74538819Y-94630536D01*
X74538817Y-94630535D01*
X74534241Y-94628640D01*
X74360752Y-94586991D01*
X74289480Y-94581382D01*
X74276364Y-94579199D01*
X74270600Y-94578471D01*
X74262923Y-94576500D01*
X74236880Y-94576500D01*
X74219127Y-94575243D01*
X74200332Y-94572568D01*
X74200329Y-94572568D01*
X74196248Y-94571987D01*
X74190033Y-94571922D01*
X74187018Y-94571890D01*
X74187013Y-94571890D01*
X74182884Y-94571847D01*
X74158394Y-94574811D01*
X74151982Y-94575587D01*
X74136843Y-94576500D01*
X73531111Y-94576500D01*
X73513356Y-94575243D01*
X73510321Y-94574811D01*
X73490480Y-94571987D01*
X73483568Y-94571915D01*
X73481236Y-94571890D01*
X73481234Y-94571890D01*
X73477116Y-94571847D01*
X73473026Y-94572342D01*
X73473025Y-94572342D01*
X73471158Y-94572568D01*
X73452609Y-94574813D01*
X73447382Y-94575335D01*
X73299248Y-94586991D01*
X73202868Y-94610128D01*
X73130570Y-94627484D01*
X73130566Y-94627485D01*
X73125760Y-94628639D01*
X73121193Y-94630531D01*
X73121189Y-94630532D01*
X72965502Y-94695018D01*
X72965500Y-94695019D01*
X72960923Y-94696915D01*
X72956703Y-94699501D01*
X72956697Y-94699504D01*
X72894756Y-94737461D01*
X72808796Y-94790136D01*
X72805036Y-94793348D01*
X72805035Y-94793348D01*
X72754407Y-94836587D01*
X72743653Y-94844271D01*
X72739018Y-94847866D01*
X72732191Y-94851904D01*
X72713785Y-94870310D01*
X72700343Y-94881975D01*
X72694049Y-94886701D01*
X72681866Y-94895848D01*
X72672317Y-94905199D01*
X72669776Y-94908440D01*
X72669773Y-94908443D01*
X72653107Y-94929698D01*
X72643049Y-94941046D01*
X72456669Y-95127426D01*
X72443228Y-95139090D01*
X72424750Y-95152964D01*
X72415201Y-95162315D01*
X72407153Y-95172579D01*
X72400041Y-95181649D01*
X72396701Y-95185729D01*
X72316153Y-95280041D01*
X72300137Y-95298794D01*
X72297550Y-95303016D01*
X72209505Y-95446695D01*
X72209502Y-95446701D01*
X72206916Y-95450921D01*
X72205021Y-95455496D01*
X72205019Y-95455500D01*
X72143434Y-95604184D01*
X72138640Y-95615759D01*
X72137484Y-95620573D01*
X72137484Y-95620574D01*
X72133661Y-95636498D01*
X72096991Y-95789248D01*
X72096603Y-95794184D01*
X72091383Y-95860517D01*
X72089199Y-95873636D01*
X72088471Y-95879400D01*
X72086500Y-95887077D01*
X72086500Y-95913120D01*
X72085243Y-95930873D01*
X72081987Y-95953752D01*
X72081847Y-95967116D01*
X72082344Y-95971221D01*
X72085587Y-95998018D01*
X72086500Y-96013157D01*
X72086500Y-96107476D01*
X72066498Y-96175597D01*
X72054142Y-96191779D01*
X71980960Y-96273056D01*
X71885473Y-96438444D01*
X71826458Y-96620072D01*
X71825768Y-96626633D01*
X71825768Y-96626635D01*
X71819542Y-96685874D01*
X71806496Y-96810000D01*
X70413500Y-96810000D01*
X70413500Y-85764224D01*
X70414578Y-85747779D01*
X70417127Y-85728420D01*
X70417127Y-85728416D01*
X70418118Y-85720888D01*
X70417284Y-85713334D01*
X70417600Y-85683058D01*
X70423822Y-85635791D01*
X70432334Y-85604024D01*
X70456253Y-85546277D01*
X70472698Y-85517794D01*
X70499060Y-85483438D01*
X70510861Y-85470121D01*
X70513365Y-85467669D01*
X70519389Y-85463046D01*
X70541369Y-85435610D01*
X70550609Y-85425295D01*
X72699684Y-83276220D01*
X72712076Y-83265352D01*
X72714273Y-83263666D01*
X72733594Y-83248841D01*
X72738368Y-83242882D01*
X72760002Y-83221696D01*
X72797797Y-83192696D01*
X72826278Y-83176253D01*
X72884024Y-83152334D01*
X72915795Y-83143822D01*
X72958796Y-83138162D01*
X72976556Y-83137091D01*
X72979995Y-83137127D01*
X72987522Y-83138118D01*
X72995068Y-83137285D01*
X72995072Y-83137285D01*
X73022462Y-83134261D01*
X73036287Y-83133500D01*
X73941782Y-83133500D01*
X73959538Y-83134757D01*
X73982413Y-83138013D01*
X73988900Y-83138081D01*
X73991651Y-83138110D01*
X73991654Y-83138110D01*
X73995777Y-83138153D01*
X73999875Y-83137657D01*
X73999878Y-83137657D01*
X74013231Y-83136042D01*
X74020124Y-83135400D01*
X74205333Y-83123263D01*
X74205337Y-83123262D01*
X74209449Y-83122993D01*
X74213488Y-83122190D01*
X74213493Y-83122189D01*
X74415420Y-83082026D01*
X74415424Y-83082025D01*
X74419466Y-83081221D01*
X74622233Y-83012394D01*
X74814282Y-82917688D01*
X74992326Y-82798726D01*
X74995424Y-82796009D01*
X74995432Y-82796003D01*
X75081019Y-82720947D01*
X75086868Y-82716121D01*
X75087431Y-82715685D01*
X75094255Y-82711649D01*
X75110107Y-82695797D01*
X75116121Y-82690163D01*
X75121175Y-82685731D01*
X75128593Y-82679709D01*
X75141280Y-82670184D01*
X75141287Y-82670178D01*
X75144582Y-82667704D01*
X75154131Y-82658354D01*
X75173351Y-82633843D01*
X75183408Y-82622497D01*
X75286882Y-82519023D01*
X75300323Y-82507359D01*
X75315498Y-82495965D01*
X75318805Y-82493482D01*
X75328354Y-82484131D01*
X75339085Y-82470445D01*
X75343498Y-82465124D01*
X75466009Y-82325424D01*
X75468726Y-82322326D01*
X75587688Y-82144282D01*
X75589509Y-82140590D01*
X75589515Y-82140579D01*
X75600651Y-82117995D01*
X75639596Y-82071786D01*
X75781253Y-81968866D01*
X75909040Y-81826944D01*
X76004527Y-81661556D01*
X76063542Y-81479928D01*
X76083504Y-81290000D01*
X76068963Y-81151646D01*
X76064232Y-81106635D01*
X76064232Y-81106633D01*
X76063542Y-81100072D01*
X76004527Y-80918444D01*
X75909040Y-80753056D01*
X75853140Y-80690972D01*
X75785675Y-80616045D01*
X75785674Y-80616044D01*
X75781253Y-80611134D01*
X75654280Y-80518882D01*
X75632094Y-80502763D01*
X75632093Y-80502762D01*
X75626752Y-80498882D01*
X75620724Y-80496198D01*
X75620722Y-80496197D01*
X75458319Y-80423891D01*
X75458318Y-80423891D01*
X75452288Y-80421206D01*
X75358888Y-80401353D01*
X75271944Y-80382872D01*
X75271939Y-80382872D01*
X75265487Y-80381500D01*
X75074513Y-80381500D01*
X75068061Y-80382872D01*
X75068056Y-80382872D01*
X74981112Y-80401353D01*
X74887712Y-80421206D01*
X74881682Y-80423891D01*
X74881681Y-80423891D01*
X74719278Y-80496197D01*
X74719276Y-80496198D01*
X74713248Y-80498882D01*
X74707907Y-80502762D01*
X74707906Y-80502763D01*
X74595297Y-80584579D01*
X74528430Y-80608437D01*
X74459278Y-80592357D01*
X74447190Y-80584589D01*
X74356752Y-80518882D01*
X74350724Y-80516198D01*
X74350722Y-80516197D01*
X74188319Y-80443891D01*
X74188318Y-80443891D01*
X74182288Y-80441206D01*
X74081741Y-80419834D01*
X74001944Y-80402872D01*
X74001939Y-80402872D01*
X73995487Y-80401500D01*
X73804513Y-80401500D01*
X73798061Y-80402872D01*
X73798056Y-80402872D01*
X73718259Y-80419834D01*
X73617712Y-80441206D01*
X73611682Y-80443891D01*
X73611681Y-80443891D01*
X73449278Y-80516197D01*
X73449276Y-80516198D01*
X73443248Y-80518882D01*
X73437907Y-80522762D01*
X73437906Y-80522763D01*
X73316275Y-80611134D01*
X73288747Y-80631134D01*
X73284330Y-80636040D01*
X73284323Y-80636046D01*
X73281363Y-80639334D01*
X73220918Y-80676575D01*
X73195966Y-80680755D01*
X73162025Y-80682979D01*
X73104667Y-80686737D01*
X73104663Y-80686738D01*
X73100551Y-80687007D01*
X73096512Y-80687810D01*
X73096507Y-80687811D01*
X72894580Y-80727974D01*
X72894576Y-80727975D01*
X72890534Y-80728779D01*
X72687767Y-80797606D01*
X72495718Y-80892312D01*
X72317674Y-81011274D01*
X72314576Y-81013991D01*
X72314568Y-81013997D01*
X72228981Y-81089053D01*
X72223132Y-81093879D01*
X72222569Y-81094315D01*
X72215745Y-81098351D01*
X72199893Y-81114203D01*
X72193885Y-81119832D01*
X72188825Y-81124269D01*
X72181407Y-81130291D01*
X72168720Y-81139816D01*
X72168713Y-81139822D01*
X72165418Y-81142296D01*
X72155869Y-81151646D01*
X72153325Y-81154890D01*
X72153320Y-81154896D01*
X72136648Y-81176158D01*
X72126590Y-81187506D01*
X69093118Y-84220977D01*
X69079677Y-84232641D01*
X69061195Y-84246518D01*
X69051646Y-84255869D01*
X69040915Y-84269555D01*
X69036508Y-84274869D01*
X68911274Y-84417674D01*
X68792312Y-84595718D01*
X68697606Y-84787767D01*
X68628779Y-84990534D01*
X68627975Y-84994576D01*
X68627974Y-84994580D01*
X68598008Y-85145243D01*
X68587007Y-85200551D01*
X68586738Y-85204663D01*
X68586737Y-85204667D01*
X68579305Y-85318084D01*
X68578581Y-85325638D01*
X68578471Y-85326509D01*
X68576500Y-85334184D01*
X68576500Y-85356769D01*
X68576230Y-85365008D01*
X68575810Y-85371417D01*
X68574823Y-85380930D01*
X68571987Y-85400859D01*
X68571847Y-85414223D01*
X68572344Y-85418328D01*
X68575587Y-85445125D01*
X68576500Y-85460264D01*
X68576500Y-102262775D01*
X68556498Y-102330896D01*
X68515771Y-102370551D01*
X68494619Y-102383361D01*
X68373361Y-102504619D01*
X68284528Y-102651301D01*
X68282257Y-102658548D01*
X68282256Y-102658550D01*
X68261483Y-102724836D01*
X68233247Y-102814938D01*
X68226500Y-102888365D01*
X68226501Y-103401634D01*
X68226764Y-103404492D01*
X68226764Y-103404501D01*
X68228604Y-103424526D01*
X68233247Y-103475062D01*
X68284528Y-103638699D01*
X68373361Y-103785381D01*
X68468885Y-103880905D01*
X68502911Y-103943217D01*
X68497846Y-104014032D01*
X68468885Y-104059095D01*
X68373361Y-104154619D01*
X68284528Y-104301301D01*
X68282257Y-104308548D01*
X68282256Y-104308550D01*
X68261483Y-104374836D01*
X68233247Y-104464938D01*
X68226500Y-104538365D01*
X68226501Y-105051634D01*
X68233247Y-105125062D01*
X68235246Y-105131440D01*
X68235246Y-105131441D01*
X68280734Y-105276592D01*
X68286500Y-105314271D01*
X68286500Y-108532819D01*
X68266498Y-108600940D01*
X68218679Y-108644583D01*
X68166872Y-108671552D01*
X67981655Y-108810617D01*
X67978083Y-108814355D01*
X67831683Y-108967554D01*
X67821639Y-108978064D01*
X67818725Y-108982336D01*
X67818724Y-108982337D01*
X67803152Y-109005165D01*
X67691119Y-109169399D01*
X67593602Y-109379481D01*
X67531707Y-109602669D01*
X67507095Y-109832969D01*
X67507392Y-109838122D01*
X67507392Y-109838125D01*
X67513067Y-109936541D01*
X67520427Y-110064197D01*
X67521564Y-110069243D01*
X67521565Y-110069249D01*
X67553741Y-110212023D01*
X67571346Y-110290142D01*
X67573288Y-110294924D01*
X67573289Y-110294928D01*
X67656540Y-110499950D01*
X67658484Y-110504737D01*
X67779501Y-110702219D01*
X67782878Y-110706117D01*
X67782882Y-110706123D01*
X67862471Y-110798002D01*
X67891954Y-110862588D01*
X67881839Y-110932860D01*
X67835338Y-110986509D01*
X67767234Y-111006500D01*
X62404224Y-111006500D01*
X62387779Y-111005422D01*
X62368420Y-111002873D01*
X62368416Y-111002873D01*
X62360888Y-111001882D01*
X62353339Y-111002715D01*
X62345742Y-111002636D01*
X62345742Y-111002632D01*
X62323100Y-111002395D01*
X62286234Y-110997542D01*
X62275797Y-110996168D01*
X62244026Y-110987655D01*
X62186283Y-110963738D01*
X62157798Y-110947293D01*
X62138988Y-110932860D01*
X62123385Y-110920887D01*
X62110070Y-110909087D01*
X62107669Y-110906635D01*
X62103046Y-110900611D01*
X62075610Y-110878631D01*
X62065295Y-110869391D01*
X58466217Y-107270312D01*
X58455349Y-107257920D01*
X58443466Y-107242433D01*
X58443464Y-107242431D01*
X58438841Y-107236406D01*
X58432882Y-107231632D01*
X58411696Y-107209998D01*
X58382696Y-107172203D01*
X58366251Y-107143719D01*
X58365013Y-107140730D01*
X58342334Y-107085976D01*
X58333822Y-107054205D01*
X58328162Y-107011204D01*
X58327091Y-106993444D01*
X58327127Y-106990005D01*
X58328118Y-106982478D01*
X58324261Y-106947538D01*
X58323500Y-106933713D01*
X58323500Y-99634401D01*
X58343502Y-99566280D01*
X58397158Y-99519787D01*
X58467432Y-99509683D01*
X58527592Y-99535519D01*
X58704670Y-99675367D01*
X58704675Y-99675370D01*
X58708724Y-99678568D01*
X58713240Y-99681061D01*
X58713243Y-99681063D01*
X58914526Y-99792177D01*
X58914530Y-99792179D01*
X58919050Y-99794674D01*
X58923919Y-99796398D01*
X58923923Y-99796400D01*
X59140640Y-99873144D01*
X59140644Y-99873145D01*
X59145515Y-99874870D01*
X59150608Y-99875777D01*
X59150611Y-99875778D01*
X59376948Y-99916095D01*
X59376954Y-99916096D01*
X59382037Y-99917001D01*
X59469400Y-99918068D01*
X59617093Y-99919873D01*
X59617095Y-99919873D01*
X59622263Y-99919936D01*
X59859744Y-99883596D01*
X59971997Y-99846906D01*
X60083183Y-99810566D01*
X60083189Y-99810563D01*
X60088101Y-99808958D01*
X60092687Y-99806571D01*
X60092691Y-99806569D01*
X60296607Y-99700416D01*
X60301200Y-99698025D01*
X60493320Y-99553777D01*
X60584719Y-99458134D01*
X63139000Y-99458134D01*
X63145755Y-99520316D01*
X63196885Y-99656705D01*
X63284239Y-99773261D01*
X63400795Y-99860615D01*
X63537184Y-99911745D01*
X63599366Y-99918500D01*
X65600634Y-99918500D01*
X65662816Y-99911745D01*
X65799205Y-99860615D01*
X65915761Y-99773261D01*
X66003115Y-99656705D01*
X66054245Y-99520316D01*
X66061000Y-99458134D01*
X66061000Y-97361866D01*
X66054245Y-97299684D01*
X66003115Y-97163295D01*
X65915761Y-97046739D01*
X65799205Y-96959385D01*
X65662816Y-96908255D01*
X65600634Y-96901500D01*
X63599366Y-96901500D01*
X63537184Y-96908255D01*
X63400795Y-96959385D01*
X63284239Y-97046739D01*
X63196885Y-97163295D01*
X63145755Y-97299684D01*
X63139000Y-97361866D01*
X63139000Y-99458134D01*
X60584719Y-99458134D01*
X60659301Y-99380088D01*
X60752292Y-99243769D01*
X60791774Y-99185891D01*
X60791775Y-99185890D01*
X60794686Y-99181622D01*
X60821555Y-99123739D01*
X60893658Y-98968405D01*
X60893659Y-98968401D01*
X60895837Y-98963710D01*
X60960040Y-98732202D01*
X60960589Y-98727065D01*
X60980644Y-98539407D01*
X60980644Y-98539399D01*
X60981000Y-98536072D01*
X60981000Y-98301598D01*
X60978444Y-98270501D01*
X60966746Y-98128224D01*
X60966322Y-98123063D01*
X60907794Y-97890056D01*
X60811997Y-97669737D01*
X60717105Y-97523056D01*
X60684310Y-97472363D01*
X60684308Y-97472360D01*
X60681502Y-97468023D01*
X60519814Y-97290330D01*
X60408797Y-97202654D01*
X60335330Y-97144633D01*
X60335325Y-97144630D01*
X60331276Y-97141432D01*
X60326760Y-97138939D01*
X60326757Y-97138937D01*
X60125474Y-97027823D01*
X60125470Y-97027821D01*
X60120950Y-97025326D01*
X60116081Y-97023602D01*
X60116077Y-97023600D01*
X59899360Y-96946856D01*
X59899356Y-96946855D01*
X59894485Y-96945130D01*
X59889392Y-96944223D01*
X59889389Y-96944222D01*
X59663052Y-96903905D01*
X59663046Y-96903904D01*
X59657963Y-96902999D01*
X59565474Y-96901869D01*
X59422907Y-96900127D01*
X59422905Y-96900127D01*
X59417737Y-96900064D01*
X59180256Y-96936404D01*
X59068003Y-96973094D01*
X58956817Y-97009434D01*
X58956811Y-97009437D01*
X58951899Y-97011042D01*
X58947313Y-97013429D01*
X58947309Y-97013431D01*
X58792514Y-97094013D01*
X58738800Y-97121975D01*
X58734657Y-97125085D01*
X58734658Y-97125085D01*
X58577528Y-97243062D01*
X58546680Y-97266223D01*
X58543110Y-97269959D01*
X58540596Y-97272590D01*
X58539317Y-97273326D01*
X58539240Y-97273395D01*
X58539226Y-97273379D01*
X58479073Y-97308021D01*
X58408161Y-97304566D01*
X58350373Y-97263322D01*
X58324058Y-97197382D01*
X58323500Y-97185541D01*
X58323500Y-95734224D01*
X58324578Y-95717779D01*
X58327127Y-95698420D01*
X58327127Y-95698416D01*
X58328118Y-95690888D01*
X58327284Y-95683334D01*
X58327600Y-95653058D01*
X58333822Y-95605791D01*
X58342334Y-95574024D01*
X58366253Y-95516277D01*
X58382698Y-95487794D01*
X58409060Y-95453438D01*
X58420861Y-95440121D01*
X58423365Y-95437669D01*
X58429389Y-95433046D01*
X58451369Y-95405610D01*
X58460609Y-95395295D01*
X64091882Y-89764023D01*
X64105324Y-89752358D01*
X64120509Y-89740957D01*
X64120511Y-89740955D01*
X64123805Y-89738482D01*
X64133354Y-89729131D01*
X64143980Y-89715579D01*
X64148373Y-89710282D01*
X64273734Y-89567332D01*
X64392697Y-89389287D01*
X64408572Y-89357096D01*
X64485583Y-89200928D01*
X64485584Y-89200926D01*
X64487403Y-89197237D01*
X64556231Y-88994468D01*
X64564997Y-88950394D01*
X64597199Y-88788494D01*
X64597200Y-88788489D01*
X64598003Y-88784450D01*
X64599996Y-88754046D01*
X64605716Y-88666754D01*
X64606439Y-88659204D01*
X64606529Y-88658492D01*
X64608500Y-88650816D01*
X64608500Y-88628390D01*
X64608768Y-88620173D01*
X64609210Y-88613430D01*
X64610194Y-88603950D01*
X64613013Y-88584141D01*
X64613153Y-88570777D01*
X64609413Y-88539875D01*
X64608500Y-88524736D01*
X64608500Y-86597599D01*
X64628502Y-86529478D01*
X64654865Y-86499956D01*
X64684282Y-86475964D01*
X64684285Y-86475961D01*
X64689062Y-86472065D01*
X64698053Y-86461197D01*
X64811201Y-86324425D01*
X64811203Y-86324421D01*
X64815130Y-86319675D01*
X64909198Y-86145701D01*
X64967682Y-85956768D01*
X64974067Y-85896019D01*
X64987711Y-85766204D01*
X64987711Y-85766202D01*
X64988355Y-85760075D01*
X64980847Y-85677576D01*
X64970989Y-85569251D01*
X64970988Y-85569248D01*
X64970430Y-85563112D01*
X64965248Y-85545503D01*
X64926610Y-85414223D01*
X64914590Y-85373381D01*
X64905906Y-85356769D01*
X64849818Y-85249485D01*
X64822960Y-85198110D01*
X64699032Y-85043975D01*
X64547526Y-84916846D01*
X64542128Y-84913879D01*
X64542123Y-84913875D01*
X64379608Y-84824533D01*
X64379609Y-84824533D01*
X64374213Y-84821567D01*
X64368346Y-84819706D01*
X64368344Y-84819705D01*
X64191564Y-84763627D01*
X64191563Y-84763627D01*
X64185694Y-84761765D01*
X64031773Y-84744500D01*
X61121022Y-84744500D01*
X61106980Y-84743715D01*
X61097857Y-84742692D01*
X61032390Y-84715221D01*
X61022807Y-84706572D01*
X59701151Y-83384917D01*
X59691774Y-83374430D01*
X59686028Y-83367232D01*
X59659161Y-83301515D01*
X59658500Y-83288624D01*
X59658500Y-79854500D01*
X59678502Y-79786379D01*
X59732158Y-79739886D01*
X59784500Y-79728500D01*
X78341579Y-79728500D01*
X78354746Y-79729190D01*
X78364032Y-79730166D01*
X78392996Y-79733209D01*
X78459122Y-79760598D01*
X78484874Y-79781452D01*
X78489028Y-79784816D01*
X78498828Y-79793641D01*
X79386359Y-80681172D01*
X79395184Y-80690972D01*
X79419402Y-80720878D01*
X79446791Y-80787004D01*
X79447905Y-80797606D01*
X79450810Y-80825254D01*
X79451500Y-80838421D01*
X79451500Y-84531579D01*
X79450811Y-84544734D01*
X79448036Y-84571150D01*
X79446791Y-84582995D01*
X79419402Y-84649122D01*
X79398548Y-84674874D01*
X79395184Y-84679028D01*
X79386359Y-84688828D01*
X79233233Y-84841954D01*
X79170921Y-84875980D01*
X79100106Y-84870915D01*
X79051375Y-84835477D01*
X79050566Y-84836287D01*
X79045408Y-84831138D01*
X79038792Y-84824533D01*
X78934696Y-84720619D01*
X78929516Y-84715448D01*
X78886331Y-84688828D01*
X78790145Y-84629538D01*
X78790143Y-84629537D01*
X78783915Y-84625698D01*
X78621571Y-84571851D01*
X78614734Y-84571151D01*
X78614732Y-84571150D01*
X78573413Y-84566917D01*
X78520546Y-84561500D01*
X77923082Y-84561500D01*
X77919836Y-84561837D01*
X77919832Y-84561837D01*
X77885731Y-84565375D01*
X77820795Y-84572113D01*
X77814254Y-84574295D01*
X77814255Y-84574295D01*
X77665490Y-84623927D01*
X77665488Y-84623928D01*
X77658546Y-84626244D01*
X77513101Y-84716248D01*
X77392262Y-84837298D01*
X77388422Y-84843528D01*
X77388421Y-84843529D01*
X77360201Y-84889311D01*
X77302512Y-84982899D01*
X77248665Y-85145243D01*
X77238314Y-85246268D01*
X77238314Y-85793732D01*
X77248927Y-85896019D01*
X77303058Y-86058268D01*
X77314430Y-86076644D01*
X77333268Y-86145093D01*
X77312108Y-86212863D01*
X77309665Y-86216226D01*
X77305950Y-86219947D01*
X77216965Y-86364308D01*
X77214660Y-86371256D01*
X77214660Y-86371257D01*
X77181496Y-86471244D01*
X77163576Y-86525269D01*
X77153314Y-86625428D01*
X77153314Y-87159572D01*
X77163836Y-87260982D01*
X77217506Y-87421849D01*
X77306743Y-87566055D01*
X77426761Y-87685864D01*
X77527181Y-87747763D01*
X77536066Y-87753240D01*
X77583559Y-87806012D01*
X77594983Y-87876083D01*
X77566709Y-87941207D01*
X77507715Y-87980707D01*
X77469950Y-87986500D01*
X77126236Y-87986500D01*
X77086569Y-87980093D01*
X77038098Y-87964016D01*
X77038099Y-87964016D01*
X77031571Y-87961851D01*
X77024734Y-87961151D01*
X77024732Y-87961150D01*
X76983413Y-87956917D01*
X76930546Y-87951500D01*
X76426973Y-87951500D01*
X76358852Y-87931498D01*
X76312359Y-87877842D01*
X76302255Y-87807568D01*
X76317854Y-87762500D01*
X76393037Y-87632279D01*
X76393038Y-87632278D01*
X76396341Y-87626556D01*
X76455356Y-87444928D01*
X76458512Y-87414906D01*
X76474628Y-87261565D01*
X76475318Y-87255000D01*
X76471236Y-87216165D01*
X76456046Y-87071635D01*
X76456046Y-87071633D01*
X76455356Y-87065072D01*
X76396341Y-86883444D01*
X76368284Y-86834847D01*
X76328754Y-86766380D01*
X76300854Y-86718056D01*
X76268658Y-86682298D01*
X76177489Y-86581045D01*
X76177488Y-86581044D01*
X76173067Y-86576134D01*
X76068217Y-86499956D01*
X76023908Y-86467763D01*
X76023907Y-86467762D01*
X76018566Y-86463882D01*
X76012538Y-86461198D01*
X76012536Y-86461197D01*
X75850133Y-86388891D01*
X75850132Y-86388891D01*
X75844102Y-86386206D01*
X75720917Y-86360022D01*
X75663758Y-86347872D01*
X75663753Y-86347872D01*
X75657301Y-86346500D01*
X75466327Y-86346500D01*
X75459875Y-86347872D01*
X75459870Y-86347872D01*
X75402711Y-86360022D01*
X75279526Y-86386206D01*
X75273496Y-86388891D01*
X75273495Y-86388891D01*
X75258411Y-86395607D01*
X75207162Y-86406500D01*
X74911268Y-86406500D01*
X74908022Y-86406837D01*
X74908018Y-86406837D01*
X74873917Y-86410375D01*
X74808981Y-86417113D01*
X74802440Y-86419295D01*
X74802441Y-86419295D01*
X74653676Y-86468927D01*
X74653674Y-86468928D01*
X74646732Y-86471244D01*
X74640508Y-86475096D01*
X74640507Y-86475096D01*
X74514019Y-86553369D01*
X74501287Y-86561248D01*
X74496114Y-86566430D01*
X74464999Y-86597599D01*
X74380448Y-86682298D01*
X74376608Y-86688528D01*
X74376607Y-86688529D01*
X74319298Y-86781502D01*
X74290698Y-86827899D01*
X74236851Y-86990243D01*
X74226500Y-87091268D01*
X74226500Y-87688732D01*
X74237113Y-87791019D01*
X74269804Y-87889003D01*
X74271837Y-87895098D01*
X74278314Y-87934975D01*
X74278314Y-88365355D01*
X74271907Y-88405021D01*
X74238665Y-88505243D01*
X74237965Y-88512080D01*
X74237964Y-88512082D01*
X74235117Y-88539875D01*
X74228314Y-88606268D01*
X74228314Y-89203732D01*
X74238927Y-89306019D01*
X74241109Y-89312559D01*
X74284795Y-89443500D01*
X74293058Y-89468268D01*
X74296910Y-89474492D01*
X74296910Y-89474493D01*
X74352237Y-89563901D01*
X74383062Y-89613713D01*
X74504112Y-89734552D01*
X74510342Y-89738392D01*
X74510343Y-89738393D01*
X74641188Y-89819047D01*
X74649713Y-89824302D01*
X74812057Y-89878149D01*
X74818894Y-89878849D01*
X74818896Y-89878850D01*
X74860215Y-89883083D01*
X74913082Y-89888500D01*
X75460546Y-89888500D01*
X75463792Y-89888163D01*
X75463796Y-89888163D01*
X75509111Y-89883461D01*
X75562833Y-89877887D01*
X75597551Y-89866304D01*
X75718138Y-89826073D01*
X75718140Y-89826072D01*
X75725082Y-89823756D01*
X75731306Y-89819904D01*
X75737935Y-89816799D01*
X75738988Y-89819047D01*
X75793647Y-89803500D01*
X76046945Y-89803500D01*
X76086611Y-89809907D01*
X76232057Y-89858149D01*
X76238894Y-89858849D01*
X76238896Y-89858850D01*
X76280215Y-89863083D01*
X76333082Y-89868500D01*
X76930546Y-89868500D01*
X76933792Y-89868163D01*
X76933796Y-89868163D01*
X76967897Y-89864625D01*
X77032833Y-89857887D01*
X77172437Y-89811311D01*
X77243387Y-89808726D01*
X77304471Y-89844909D01*
X77336296Y-89908373D01*
X77338314Y-89930834D01*
X77338314Y-89935355D01*
X77331907Y-89975021D01*
X77298665Y-90075243D01*
X77288314Y-90176268D01*
X77288314Y-90773732D01*
X77298927Y-90876019D01*
X77301109Y-90882559D01*
X77350351Y-91030153D01*
X77353058Y-91038268D01*
X77443062Y-91183713D01*
X77564112Y-91304552D01*
X77709713Y-91394302D01*
X77872057Y-91448149D01*
X77878894Y-91448849D01*
X77878896Y-91448850D01*
X77920215Y-91453083D01*
X77973082Y-91458500D01*
X78520546Y-91458500D01*
X78523792Y-91458163D01*
X78523796Y-91458163D01*
X78557897Y-91454625D01*
X78622833Y-91447887D01*
X78776540Y-91396606D01*
X78778138Y-91396073D01*
X78778140Y-91396072D01*
X78785082Y-91393756D01*
X78930527Y-91303752D01*
X79051366Y-91182702D01*
X79055207Y-91176471D01*
X79137276Y-91043331D01*
X79137277Y-91043329D01*
X79141116Y-91037101D01*
X79194963Y-90874757D01*
X79205314Y-90773732D01*
X79205314Y-90176268D01*
X79194701Y-90073981D01*
X79161791Y-89975338D01*
X79155314Y-89935462D01*
X79155314Y-89883461D01*
X79175316Y-89815340D01*
X79228972Y-89768847D01*
X79239363Y-89764801D01*
X79244102Y-89763794D01*
X79281820Y-89747001D01*
X79294118Y-89742281D01*
X79327086Y-89731569D01*
X79327087Y-89731568D01*
X79333370Y-89729527D01*
X79369106Y-89708895D01*
X79380855Y-89702908D01*
X79412538Y-89688802D01*
X79412539Y-89688801D01*
X79418566Y-89686118D01*
X79423905Y-89682239D01*
X79423910Y-89682236D01*
X79451963Y-89661854D01*
X79463016Y-89654675D01*
X79498758Y-89634040D01*
X79503667Y-89629620D01*
X79503671Y-89629617D01*
X79529428Y-89606425D01*
X79539671Y-89598129D01*
X79573067Y-89573866D01*
X79577483Y-89568962D01*
X79600685Y-89543194D01*
X79610008Y-89533871D01*
X79635776Y-89510669D01*
X79635778Y-89510667D01*
X79640680Y-89506253D01*
X79664943Y-89472857D01*
X79673239Y-89462614D01*
X79696431Y-89436857D01*
X79696434Y-89436853D01*
X79700854Y-89431944D01*
X79721489Y-89396202D01*
X79728668Y-89385149D01*
X79749050Y-89357096D01*
X79749053Y-89357091D01*
X79752932Y-89351752D01*
X79769723Y-89314039D01*
X79775710Y-89302290D01*
X79777516Y-89299163D01*
X79796341Y-89266556D01*
X79809096Y-89227302D01*
X79813815Y-89215006D01*
X79830608Y-89177288D01*
X79832330Y-89169190D01*
X79839189Y-89136920D01*
X79842602Y-89124183D01*
X79853316Y-89091209D01*
X79853317Y-89091202D01*
X79855356Y-89084928D01*
X79859671Y-89043872D01*
X79861732Y-89030864D01*
X79870314Y-88990487D01*
X79870314Y-88949216D01*
X79871004Y-88936045D01*
X79874628Y-88901565D01*
X79875318Y-88895000D01*
X79871004Y-88853955D01*
X79870314Y-88840784D01*
X79870314Y-88799513D01*
X79861732Y-88759136D01*
X79859670Y-88746122D01*
X79856046Y-88711635D01*
X79856046Y-88711633D01*
X79855356Y-88705072D01*
X79853317Y-88698798D01*
X79853316Y-88698791D01*
X79842602Y-88665817D01*
X79839189Y-88653080D01*
X79831981Y-88619169D01*
X79831980Y-88619165D01*
X79830608Y-88612712D01*
X79813815Y-88574994D01*
X79809095Y-88562696D01*
X79798383Y-88529728D01*
X79798382Y-88529727D01*
X79796341Y-88523444D01*
X79775709Y-88487708D01*
X79769722Y-88475959D01*
X79755616Y-88444276D01*
X79755615Y-88444275D01*
X79752932Y-88438248D01*
X79749053Y-88432909D01*
X79749050Y-88432904D01*
X79728668Y-88404851D01*
X79721489Y-88393798D01*
X79700854Y-88358056D01*
X79696434Y-88353147D01*
X79696431Y-88353143D01*
X79673239Y-88327386D01*
X79664943Y-88317143D01*
X79640680Y-88283747D01*
X79610008Y-88256129D01*
X79600685Y-88246806D01*
X79577483Y-88221038D01*
X79577481Y-88221036D01*
X79573067Y-88216134D01*
X79539671Y-88191871D01*
X79529428Y-88183575D01*
X79503671Y-88160383D01*
X79503667Y-88160380D01*
X79498758Y-88155960D01*
X79463016Y-88135325D01*
X79451963Y-88128146D01*
X79423910Y-88107764D01*
X79423905Y-88107761D01*
X79418566Y-88103882D01*
X79380853Y-88087091D01*
X79369104Y-88081104D01*
X79339091Y-88063776D01*
X79333370Y-88060473D01*
X79294116Y-88047718D01*
X79281820Y-88042999D01*
X79244102Y-88026206D01*
X79237649Y-88024834D01*
X79237645Y-88024833D01*
X79203734Y-88017625D01*
X79190997Y-88014212D01*
X79158023Y-88003498D01*
X79158016Y-88003497D01*
X79151742Y-88001458D01*
X79145181Y-88000768D01*
X79145179Y-88000768D01*
X79131124Y-87999291D01*
X79110686Y-87997143D01*
X79097678Y-87995082D01*
X79057301Y-87986500D01*
X79050702Y-87986500D01*
X79044128Y-87985809D01*
X79044348Y-87983717D01*
X78985705Y-87966498D01*
X78939212Y-87912842D01*
X78929108Y-87842568D01*
X78958602Y-87777988D01*
X78987523Y-87753356D01*
X79091643Y-87688925D01*
X79091650Y-87688919D01*
X79097869Y-87685071D01*
X79217678Y-87565053D01*
X79306663Y-87420692D01*
X79342247Y-87313410D01*
X79357886Y-87266262D01*
X79357886Y-87266260D01*
X79360052Y-87259731D01*
X79370314Y-87159572D01*
X79370314Y-87127809D01*
X79390316Y-87059688D01*
X79440584Y-87014804D01*
X79643901Y-86914537D01*
X79851918Y-86775543D01*
X79855018Y-86772825D01*
X79855025Y-86772819D01*
X80020770Y-86627462D01*
X80024552Y-86624274D01*
X80035531Y-86615383D01*
X80035532Y-86615382D01*
X80040658Y-86611231D01*
X80066630Y-86579158D01*
X80075455Y-86569358D01*
X80671181Y-85973632D01*
X80680980Y-85964808D01*
X80707925Y-85942988D01*
X80707926Y-85942987D01*
X80713058Y-85938831D01*
X80726054Y-85922783D01*
X80729219Y-85919027D01*
X80874644Y-85753199D01*
X80874649Y-85753192D01*
X80877368Y-85750092D01*
X80879655Y-85746669D01*
X80879659Y-85746664D01*
X81014067Y-85545503D01*
X81014068Y-85545502D01*
X81016358Y-85542074D01*
X81028332Y-85517794D01*
X81125187Y-85321384D01*
X81125188Y-85321382D01*
X81127007Y-85317693D01*
X81150160Y-85249485D01*
X81206096Y-85084693D01*
X81207421Y-85080790D01*
X81222710Y-85003925D01*
X81255422Y-84839461D01*
X81255423Y-84839456D01*
X81256226Y-84835417D01*
X81256507Y-84831138D01*
X81270901Y-84611476D01*
X81271321Y-84606548D01*
X81272814Y-84592339D01*
X81273504Y-84585773D01*
X81269190Y-84544734D01*
X81268500Y-84531562D01*
X81268500Y-80838438D01*
X81269190Y-80825266D01*
X81272814Y-80790791D01*
X81273504Y-80784227D01*
X81271320Y-80763444D01*
X81270901Y-80758524D01*
X81256496Y-80538699D01*
X81256495Y-80538695D01*
X81256226Y-80534583D01*
X81253875Y-80522760D01*
X81208226Y-80293256D01*
X81208225Y-80293252D01*
X81207421Y-80289210D01*
X81155631Y-80136635D01*
X81128330Y-80056204D01*
X81128329Y-80056201D01*
X81127007Y-80052307D01*
X81125187Y-80048616D01*
X81018182Y-79831624D01*
X81018179Y-79831619D01*
X81016358Y-79827926D01*
X80993450Y-79793641D01*
X80879659Y-79623336D01*
X80879655Y-79623331D01*
X80877368Y-79619908D01*
X80874649Y-79616808D01*
X80874644Y-79616801D01*
X80729219Y-79450973D01*
X80726054Y-79447217D01*
X80713058Y-79431169D01*
X80680980Y-79405192D01*
X80671181Y-79396368D01*
X80083408Y-78808595D01*
X80049382Y-78746283D01*
X80054447Y-78675468D01*
X80096994Y-78618632D01*
X80163514Y-78593821D01*
X80172503Y-78593500D01*
X81665776Y-78593500D01*
X81682221Y-78594578D01*
X81701580Y-78597127D01*
X81701584Y-78597127D01*
X81709112Y-78598118D01*
X81716661Y-78597285D01*
X81724258Y-78597364D01*
X81724258Y-78597368D01*
X81746900Y-78597605D01*
X81783766Y-78602458D01*
X81794203Y-78603832D01*
X81825974Y-78612345D01*
X81883717Y-78636262D01*
X81912202Y-78652707D01*
X81946615Y-78679113D01*
X81959930Y-78690913D01*
X81962331Y-78693365D01*
X81966954Y-78699389D01*
X81972878Y-78704135D01*
X81972879Y-78704136D01*
X81994390Y-78721369D01*
X82004705Y-78730609D01*
X83542878Y-80268783D01*
X83576904Y-80331095D01*
X83579093Y-80344706D01*
X83596458Y-80509928D01*
X83655473Y-80691556D01*
X83658776Y-80697278D01*
X83658777Y-80697279D01*
X83673653Y-80723045D01*
X83750960Y-80856944D01*
X83755378Y-80861851D01*
X83755379Y-80861852D01*
X83782805Y-80892312D01*
X83878747Y-80998866D01*
X83899573Y-81013997D01*
X84027078Y-81106635D01*
X84033248Y-81111118D01*
X84039276Y-81113802D01*
X84039278Y-81113803D01*
X84131575Y-81154896D01*
X84207712Y-81188794D01*
X84301112Y-81208647D01*
X84388056Y-81227128D01*
X84388061Y-81227128D01*
X84394513Y-81228500D01*
X84585487Y-81228500D01*
X84591939Y-81227128D01*
X84591944Y-81227128D01*
X84678888Y-81208647D01*
X84772288Y-81188794D01*
X84848425Y-81154896D01*
X84940722Y-81113803D01*
X84940724Y-81113802D01*
X84946752Y-81111118D01*
X84952923Y-81106635D01*
X85080427Y-81013997D01*
X85101253Y-80998866D01*
X85197195Y-80892312D01*
X85224621Y-80861852D01*
X85224622Y-80861851D01*
X85229040Y-80856944D01*
X85306347Y-80723045D01*
X85321223Y-80697279D01*
X85321224Y-80697278D01*
X85324527Y-80691556D01*
X85383542Y-80509928D01*
X85403504Y-80320000D01*
X85383542Y-80130072D01*
X85324527Y-79948444D01*
X85248493Y-79816749D01*
X85231755Y-79747755D01*
X85248493Y-79690750D01*
X85321223Y-79564779D01*
X85321224Y-79564778D01*
X85324527Y-79559056D01*
X85383542Y-79377428D01*
X85403504Y-79187500D01*
X85383542Y-78997572D01*
X85324527Y-78815944D01*
X85248493Y-78684249D01*
X85231755Y-78615255D01*
X85248493Y-78558250D01*
X85321223Y-78432279D01*
X85321224Y-78432278D01*
X85324527Y-78426556D01*
X85383542Y-78244928D01*
X85403504Y-78055000D01*
X85388388Y-77911179D01*
X85384232Y-77871635D01*
X85384232Y-77871633D01*
X85383542Y-77865072D01*
X85324527Y-77683444D01*
X85248493Y-77551749D01*
X85231755Y-77482755D01*
X85248493Y-77425750D01*
X85321223Y-77299779D01*
X85321224Y-77299778D01*
X85324527Y-77294056D01*
X85383542Y-77112428D01*
X85403504Y-76922500D01*
X85390456Y-76798352D01*
X85384232Y-76739135D01*
X85384232Y-76739133D01*
X85383542Y-76732572D01*
X85324527Y-76550944D01*
X85248493Y-76419249D01*
X85231755Y-76350255D01*
X85248493Y-76293250D01*
X85321223Y-76167279D01*
X85321224Y-76167278D01*
X85324527Y-76161556D01*
X85383542Y-75979928D01*
X85403504Y-75790000D01*
X85397785Y-75735589D01*
X85384232Y-75606635D01*
X85384232Y-75606633D01*
X85383542Y-75600072D01*
X85324527Y-75418444D01*
X85229040Y-75253056D01*
X85183898Y-75202920D01*
X85105675Y-75116045D01*
X85105674Y-75116044D01*
X85101253Y-75111134D01*
X84946752Y-74998882D01*
X84940724Y-74996198D01*
X84940722Y-74996197D01*
X84778319Y-74923891D01*
X84778318Y-74923891D01*
X84772288Y-74921206D01*
X84678887Y-74901353D01*
X84591944Y-74882872D01*
X84591939Y-74882872D01*
X84585487Y-74881500D01*
X84394513Y-74881500D01*
X84388061Y-74882872D01*
X84388056Y-74882872D01*
X84301113Y-74901353D01*
X84207712Y-74921206D01*
X84201682Y-74923891D01*
X84201681Y-74923891D01*
X84039278Y-74996197D01*
X84039276Y-74996198D01*
X84033248Y-74998882D01*
X84027907Y-75002762D01*
X84027906Y-75002763D01*
X83970730Y-75044304D01*
X83878747Y-75111134D01*
X83874334Y-75116036D01*
X83874332Y-75116037D01*
X83857428Y-75134811D01*
X83796982Y-75172050D01*
X83763792Y-75176500D01*
X75944224Y-75176500D01*
X75927779Y-75175422D01*
X75908420Y-75172873D01*
X75908416Y-75172873D01*
X75900888Y-75171882D01*
X75893335Y-75172716D01*
X75893334Y-75172716D01*
X75863058Y-75172400D01*
X75815791Y-75166178D01*
X75784024Y-75157666D01*
X75726277Y-75133747D01*
X75697794Y-75117302D01*
X75663438Y-75090940D01*
X75650121Y-75079139D01*
X75647669Y-75076635D01*
X75643046Y-75070611D01*
X75615615Y-75048635D01*
X75605300Y-75039395D01*
X75086217Y-74520312D01*
X75075349Y-74507920D01*
X75063466Y-74492433D01*
X75063464Y-74492431D01*
X75058841Y-74486406D01*
X75052882Y-74481632D01*
X75031696Y-74459998D01*
X75002696Y-74422203D01*
X74986251Y-74393719D01*
X74962334Y-74335976D01*
X74953822Y-74304205D01*
X74948162Y-74261204D01*
X74947091Y-74243444D01*
X74947127Y-74240005D01*
X74948118Y-74232478D01*
X74944261Y-74197538D01*
X74943500Y-74183713D01*
X74943500Y-71338218D01*
X74944757Y-71320463D01*
X74946981Y-71304835D01*
X74948013Y-71297587D01*
X74948153Y-71284223D01*
X74947316Y-71277306D01*
X74946064Y-71266953D01*
X74945422Y-71260059D01*
X74933273Y-71074666D01*
X74933272Y-71074662D01*
X74933003Y-71070550D01*
X74929977Y-71055333D01*
X74892036Y-70864578D01*
X74892035Y-70864574D01*
X74891231Y-70860532D01*
X74822403Y-70657763D01*
X74820583Y-70654072D01*
X74729521Y-70469411D01*
X74729518Y-70469406D01*
X74727697Y-70465713D01*
X74608734Y-70287668D01*
X74567681Y-70240854D01*
X74530853Y-70198859D01*
X74526029Y-70193012D01*
X74525684Y-70192567D01*
X74521649Y-70185745D01*
X74505912Y-70170008D01*
X74500276Y-70163991D01*
X74495656Y-70158723D01*
X74489627Y-70151298D01*
X74480180Y-70138716D01*
X74477704Y-70135418D01*
X74468354Y-70125869D01*
X74465110Y-70123325D01*
X74465104Y-70123320D01*
X74443842Y-70106648D01*
X74432494Y-70096590D01*
X71454465Y-67118560D01*
X71420439Y-67056248D01*
X71425504Y-66985432D01*
X71468051Y-66928597D01*
X71517362Y-66906219D01*
X71545823Y-66900169D01*
X71545830Y-66900167D01*
X71552288Y-66898794D01*
X71558319Y-66896109D01*
X71720722Y-66823803D01*
X71720724Y-66823802D01*
X71726752Y-66821118D01*
X71737926Y-66813000D01*
X71857301Y-66726268D01*
X71881253Y-66708866D01*
X71885675Y-66703955D01*
X72004621Y-66571852D01*
X72004622Y-66571851D01*
X72009040Y-66566944D01*
X72081498Y-66441444D01*
X72101223Y-66407279D01*
X72101224Y-66407278D01*
X72104527Y-66401556D01*
X72163542Y-66219928D01*
X72183504Y-66030000D01*
X72163542Y-65840072D01*
X72104527Y-65658444D01*
X72009040Y-65493056D01*
X71881253Y-65351134D01*
X71840377Y-65321435D01*
X71797023Y-65265214D01*
X71790948Y-65194478D01*
X71824079Y-65131686D01*
X71885899Y-65096775D01*
X71914438Y-65093500D01*
X74016978Y-65093500D01*
X74031020Y-65094285D01*
X74040143Y-65095308D01*
X74105610Y-65122779D01*
X74115193Y-65131428D01*
X76102326Y-67118560D01*
X78079595Y-69095829D01*
X78113621Y-69158141D01*
X78116500Y-69184924D01*
X78116500Y-69279769D01*
X78116800Y-69282825D01*
X78116800Y-69282832D01*
X78117530Y-69290273D01*
X78130920Y-69426833D01*
X78164936Y-69539498D01*
X78165554Y-69541546D01*
X78170259Y-69564961D01*
X78176401Y-69624162D01*
X78176402Y-69624167D01*
X78177113Y-69631019D01*
X78181360Y-69643747D01*
X78210023Y-69729661D01*
X78216500Y-69769538D01*
X78216500Y-70220504D01*
X78210093Y-70260170D01*
X78186851Y-70330243D01*
X78176500Y-70431268D01*
X78176500Y-71028732D01*
X78176837Y-71031978D01*
X78176837Y-71031982D01*
X78179619Y-71058794D01*
X78187113Y-71131019D01*
X78189295Y-71137559D01*
X78220023Y-71229661D01*
X78226500Y-71269538D01*
X78226500Y-72119962D01*
X78226496Y-72120000D01*
X78226500Y-72120038D01*
X78226500Y-72162610D01*
X78241458Y-72304928D01*
X78300473Y-72486556D01*
X78395960Y-72651944D01*
X78523747Y-72793866D01*
X78525187Y-72794912D01*
X78528747Y-72798866D01*
X78683248Y-72911118D01*
X78689276Y-72913802D01*
X78689278Y-72913803D01*
X78851681Y-72986109D01*
X78857712Y-72988794D01*
X78951113Y-73008647D01*
X79038056Y-73027128D01*
X79038061Y-73027128D01*
X79044513Y-73028500D01*
X79235487Y-73028500D01*
X79241939Y-73027128D01*
X79241944Y-73027128D01*
X79328887Y-73008647D01*
X79422288Y-72988794D01*
X79428319Y-72986109D01*
X79590722Y-72913803D01*
X79590724Y-72913802D01*
X79596752Y-72911118D01*
X79751253Y-72798866D01*
X79879040Y-72656944D01*
X79974527Y-72491556D01*
X80033542Y-72309928D01*
X80034758Y-72298365D01*
X80052814Y-72126565D01*
X80053504Y-72120000D01*
X80044190Y-72031382D01*
X80043500Y-72018212D01*
X80043500Y-71269645D01*
X80049907Y-71229978D01*
X80077473Y-71146871D01*
X80083149Y-71129757D01*
X80084979Y-71111903D01*
X80092499Y-71038500D01*
X80093500Y-71028732D01*
X80093500Y-70431268D01*
X80089879Y-70396365D01*
X80083599Y-70335839D01*
X80083598Y-70335835D01*
X80082887Y-70328981D01*
X80080706Y-70322445D01*
X80080704Y-70322434D01*
X80039977Y-70200362D01*
X80033500Y-70160486D01*
X80033500Y-69769645D01*
X80039907Y-69729978D01*
X80048111Y-69705243D01*
X80073149Y-69629757D01*
X80076631Y-69595778D01*
X80079885Y-69564015D01*
X80085127Y-69538759D01*
X80114373Y-69446564D01*
X80114373Y-69446563D01*
X80116235Y-69440694D01*
X80133500Y-69286773D01*
X80133500Y-68993841D01*
X80134494Y-68978047D01*
X80137543Y-68953914D01*
X80137985Y-68950416D01*
X80138380Y-68922121D01*
X80133603Y-68873392D01*
X80133274Y-68869365D01*
X80124073Y-68728930D01*
X80124072Y-68728924D01*
X80123802Y-68724800D01*
X80085226Y-68530854D01*
X80052539Y-68434556D01*
X80022989Y-68347500D01*
X80022988Y-68347497D01*
X80021666Y-68343603D01*
X80019846Y-68339912D01*
X79936032Y-68169948D01*
X79936029Y-68169943D01*
X79934208Y-68166250D01*
X79824348Y-68001830D01*
X79802512Y-67976930D01*
X79748894Y-67915788D01*
X79744067Y-67909938D01*
X79714858Y-67872281D01*
X79712410Y-67869764D01*
X79712406Y-67869759D01*
X79697586Y-67854520D01*
X79695130Y-67851994D01*
X79686817Y-67845165D01*
X79661235Y-67824152D01*
X79652117Y-67815883D01*
X75551730Y-63715496D01*
X75541266Y-63703629D01*
X75526336Y-63684382D01*
X75524182Y-63681605D01*
X75521726Y-63679079D01*
X75506910Y-63663843D01*
X75506905Y-63663838D01*
X75504454Y-63661318D01*
X75501738Y-63659087D01*
X75501727Y-63659077D01*
X75474676Y-63636857D01*
X75470694Y-63633445D01*
X75337663Y-63514565D01*
X75335030Y-63512212D01*
X75329822Y-63508517D01*
X75153932Y-63383718D01*
X75153924Y-63383713D01*
X75151046Y-63381671D01*
X74953603Y-63272551D01*
X74745184Y-63186224D01*
X74620357Y-63150264D01*
X74531809Y-63124755D01*
X74531806Y-63124754D01*
X74528410Y-63123776D01*
X74306007Y-63085991D01*
X74155040Y-63077515D01*
X74146317Y-63076720D01*
X74109067Y-63072015D01*
X74102041Y-63071917D01*
X74084287Y-63071669D01*
X74084286Y-63071669D01*
X74080772Y-63071620D01*
X74037150Y-63075898D01*
X74024852Y-63076500D01*
X61590948Y-63076500D01*
X61575154Y-63075506D01*
X61563356Y-63074015D01*
X61547523Y-63072015D01*
X61519228Y-63071620D01*
X61515742Y-63071962D01*
X61515736Y-63071962D01*
X61480658Y-63075401D01*
X61475428Y-63075804D01*
X61402297Y-63079910D01*
X61293993Y-63085991D01*
X61071590Y-63123776D01*
X61068194Y-63124754D01*
X61068191Y-63124755D01*
X60979643Y-63150264D01*
X60854816Y-63186224D01*
X60646397Y-63272551D01*
X60448954Y-63381671D01*
X60446076Y-63383713D01*
X60446068Y-63383718D01*
X60267855Y-63510165D01*
X60264970Y-63512212D01*
X60262332Y-63514569D01*
X60262325Y-63514575D01*
X60152126Y-63613052D01*
X60145394Y-63618660D01*
X60124066Y-63635204D01*
X60115833Y-63641590D01*
X60095546Y-63661318D01*
X60093317Y-63664032D01*
X60093313Y-63664036D01*
X60067704Y-63695213D01*
X60059435Y-63704331D01*
X58378595Y-65385171D01*
X58316283Y-65419197D01*
X58245468Y-65414132D01*
X58188632Y-65371585D01*
X58163821Y-65305065D01*
X58163500Y-65296076D01*
X58163500Y-63154224D01*
X58164578Y-63137779D01*
X58167127Y-63118420D01*
X58167127Y-63118416D01*
X58168118Y-63110888D01*
X58167284Y-63103334D01*
X58167600Y-63073058D01*
X58173822Y-63025791D01*
X58182334Y-62994024D01*
X58206253Y-62936277D01*
X58222698Y-62907794D01*
X58249060Y-62873438D01*
X58260861Y-62860121D01*
X58263365Y-62857669D01*
X58269389Y-62853046D01*
X58291369Y-62825610D01*
X58300609Y-62815295D01*
X61519688Y-59596217D01*
X61532080Y-59585349D01*
X61547567Y-59573466D01*
X61547569Y-59573464D01*
X61553594Y-59568841D01*
X61558368Y-59562882D01*
X61580002Y-59541696D01*
X61617797Y-59512696D01*
X61646278Y-59496253D01*
X61704024Y-59472334D01*
X61735795Y-59463822D01*
X61778796Y-59458162D01*
X61796556Y-59457091D01*
X61799995Y-59457127D01*
X61807522Y-59458118D01*
X61815068Y-59457285D01*
X61815072Y-59457285D01*
X61842462Y-59454261D01*
X61856287Y-59453500D01*
X72663500Y-59453500D01*
X72731621Y-59473502D01*
X72778114Y-59527158D01*
X72789500Y-59579500D01*
X72789500Y-59630134D01*
X72796255Y-59692316D01*
X72847385Y-59828705D01*
X72934739Y-59945261D01*
X73051295Y-60032615D01*
X73187684Y-60083745D01*
X73249866Y-60090500D01*
X74382406Y-60090500D01*
X74450527Y-60110502D01*
X74471501Y-60127405D01*
X75624595Y-61280500D01*
X75658621Y-61342812D01*
X75661500Y-61369595D01*
X75661500Y-61465400D01*
X75672474Y-61571166D01*
X75728450Y-61738946D01*
X75821522Y-61889348D01*
X75946697Y-62014305D01*
X75952927Y-62018145D01*
X75952928Y-62018146D01*
X76090090Y-62102694D01*
X76097262Y-62107115D01*
X76177005Y-62133564D01*
X76258611Y-62160632D01*
X76258613Y-62160632D01*
X76265139Y-62162797D01*
X76271975Y-62163497D01*
X76271978Y-62163498D01*
X76315031Y-62167909D01*
X76369600Y-62173500D01*
X76970400Y-62173500D01*
X76973646Y-62173163D01*
X76973650Y-62173163D01*
X77069308Y-62163238D01*
X77069312Y-62163237D01*
X77076166Y-62162526D01*
X77082702Y-62160345D01*
X77082704Y-62160345D01*
X77230311Y-62111099D01*
X77243946Y-62106550D01*
X77394348Y-62013478D01*
X77519305Y-61888303D01*
X77612115Y-61737738D01*
X77667797Y-61569861D01*
X77678500Y-61465400D01*
X77678500Y-60414600D01*
X77667526Y-60308834D01*
X77611550Y-60141054D01*
X77518478Y-59990652D01*
X77441397Y-59913705D01*
X77407318Y-59851424D01*
X77412321Y-59780604D01*
X77441320Y-59735438D01*
X77470905Y-59705853D01*
X77533217Y-59671827D01*
X77604032Y-59676892D01*
X77649095Y-59705853D01*
X77740219Y-59796977D01*
X77744727Y-59800134D01*
X77744730Y-59800136D01*
X77773523Y-59820297D01*
X77922323Y-59924488D01*
X77927305Y-59926811D01*
X77927310Y-59926814D01*
X78064212Y-59990652D01*
X78123804Y-60018440D01*
X78129112Y-60019862D01*
X78129114Y-60019863D01*
X78176705Y-60032615D01*
X78338537Y-60075978D01*
X78560000Y-60095353D01*
X78781463Y-60075978D01*
X78943295Y-60032615D01*
X78990886Y-60019863D01*
X78990888Y-60019862D01*
X78996196Y-60018440D01*
X79055788Y-59990652D01*
X79192690Y-59926814D01*
X79192695Y-59926811D01*
X79197677Y-59924488D01*
X79346477Y-59820297D01*
X79375270Y-59800136D01*
X79375273Y-59800134D01*
X79379781Y-59796977D01*
X79536977Y-59639781D01*
X79541354Y-59633531D01*
X79661331Y-59462185D01*
X79661332Y-59462183D01*
X79664488Y-59457676D01*
X79666811Y-59452694D01*
X79666814Y-59452689D01*
X79756117Y-59261178D01*
X79756118Y-59261177D01*
X79758440Y-59256196D01*
X79815978Y-59041463D01*
X79835353Y-58820000D01*
X79815978Y-58598537D01*
X79758440Y-58383804D01*
X79690809Y-58238769D01*
X79666814Y-58187311D01*
X79666811Y-58187306D01*
X79664488Y-58182324D01*
X79600376Y-58090762D01*
X79540136Y-58004730D01*
X79540134Y-58004727D01*
X79536977Y-58000219D01*
X79379781Y-57843023D01*
X79375273Y-57839866D01*
X79375270Y-57839864D01*
X79299505Y-57786813D01*
X79197677Y-57715512D01*
X79192695Y-57713189D01*
X79192690Y-57713186D01*
X79001178Y-57623883D01*
X79001177Y-57623882D01*
X78996196Y-57621560D01*
X78990888Y-57620138D01*
X78990886Y-57620137D01*
X78925051Y-57602497D01*
X78781463Y-57564022D01*
X78560000Y-57544647D01*
X78338537Y-57564022D01*
X78194949Y-57602497D01*
X78129114Y-57620137D01*
X78129112Y-57620138D01*
X78123804Y-57621560D01*
X78118823Y-57623882D01*
X78118822Y-57623883D01*
X77927311Y-57713186D01*
X77927306Y-57713189D01*
X77922324Y-57715512D01*
X77917817Y-57718668D01*
X77917815Y-57718669D01*
X77744730Y-57839864D01*
X77744727Y-57839866D01*
X77740219Y-57843023D01*
X77649095Y-57934147D01*
X77586783Y-57968173D01*
X77515968Y-57963108D01*
X77470905Y-57934147D01*
X77379781Y-57843023D01*
X77375273Y-57839866D01*
X77375270Y-57839864D01*
X77299505Y-57786813D01*
X77197677Y-57715512D01*
X77192695Y-57713189D01*
X77192690Y-57713186D01*
X77001178Y-57623883D01*
X77001177Y-57623882D01*
X76996196Y-57621560D01*
X76990888Y-57620138D01*
X76990886Y-57620137D01*
X76925051Y-57602497D01*
X76781463Y-57564022D01*
X76560000Y-57544647D01*
X76338537Y-57564022D01*
X76194949Y-57602497D01*
X76129114Y-57620137D01*
X76129112Y-57620138D01*
X76123804Y-57621560D01*
X76118823Y-57623882D01*
X76118822Y-57623883D01*
X75927311Y-57713186D01*
X75927306Y-57713189D01*
X75922324Y-57715512D01*
X75917817Y-57718668D01*
X75917815Y-57718669D01*
X75744730Y-57839864D01*
X75744727Y-57839866D01*
X75740219Y-57843023D01*
X75583023Y-58000219D01*
X75555781Y-58039124D01*
X75500326Y-58083452D01*
X75429707Y-58090762D01*
X75366346Y-58058731D01*
X75330361Y-57997530D01*
X75327306Y-57980462D01*
X75325971Y-57968173D01*
X75323745Y-57947684D01*
X75272615Y-57811295D01*
X75185261Y-57694739D01*
X75068705Y-57607385D01*
X74932316Y-57556255D01*
X74870134Y-57549500D01*
X73249866Y-57549500D01*
X73187684Y-57556255D01*
X73051295Y-57607385D01*
X72934739Y-57694739D01*
X72847385Y-57811295D01*
X72796255Y-57947684D01*
X72789500Y-58009866D01*
X72789500Y-58060500D01*
X72769498Y-58128621D01*
X72715842Y-58175114D01*
X72663500Y-58186500D01*
X61868218Y-58186500D01*
X61850463Y-58185243D01*
X61847871Y-58184874D01*
X61827587Y-58181987D01*
X61821100Y-58181919D01*
X61818349Y-58181890D01*
X61818346Y-58181890D01*
X61814223Y-58181847D01*
X61807306Y-58182684D01*
X61796953Y-58183936D01*
X61790059Y-58184578D01*
X61604666Y-58196727D01*
X61604662Y-58196728D01*
X61600550Y-58196997D01*
X61596511Y-58197800D01*
X61596506Y-58197801D01*
X61394578Y-58237964D01*
X61394574Y-58237965D01*
X61390532Y-58238769D01*
X61187763Y-58307597D01*
X61184074Y-58309416D01*
X61184072Y-58309417D01*
X60999411Y-58400479D01*
X60999406Y-58400482D01*
X60995713Y-58402303D01*
X60817668Y-58521266D01*
X60814564Y-58523988D01*
X60728859Y-58599147D01*
X60723012Y-58603971D01*
X60722567Y-58604316D01*
X60715745Y-58608351D01*
X60700008Y-58624088D01*
X60693991Y-58629724D01*
X60688723Y-58634344D01*
X60681299Y-58640372D01*
X60665418Y-58652296D01*
X60655869Y-58661646D01*
X60653325Y-58664890D01*
X60653320Y-58664896D01*
X60636648Y-58686158D01*
X60626590Y-58697506D01*
X57413118Y-61910977D01*
X57399677Y-61922641D01*
X57381195Y-61936518D01*
X57371646Y-61945869D01*
X57369105Y-61949110D01*
X57369102Y-61949113D01*
X57361024Y-61959416D01*
X57356627Y-61964718D01*
X57231266Y-62107668D01*
X57112303Y-62285713D01*
X57017597Y-62477763D01*
X56948769Y-62680532D01*
X56947965Y-62684574D01*
X56947964Y-62684578D01*
X56910401Y-62873438D01*
X56906997Y-62890550D01*
X56906728Y-62894660D01*
X56906727Y-62894665D01*
X56899284Y-63008246D01*
X56898561Y-63015796D01*
X56898471Y-63016508D01*
X56896500Y-63024184D01*
X56896500Y-63046610D01*
X56896232Y-63054827D01*
X56895790Y-63061570D01*
X56894806Y-63071050D01*
X56891987Y-63090859D01*
X56891847Y-63104223D01*
X56894332Y-63124755D01*
X56895587Y-63135125D01*
X56896500Y-63150264D01*
X56896500Y-86071782D01*
X56895243Y-86089537D01*
X56891987Y-86112413D01*
X56891847Y-86125777D01*
X53582054Y-86125777D01*
X53582054Y-52617341D01*
X53602056Y-52549220D01*
X53655712Y-52502727D01*
X53707834Y-52491341D01*
X79940896Y-52445594D01*
X88278834Y-52431054D01*
X88346990Y-52450937D01*
G37*
%TD.AperFunction*%
%TA.AperFunction,Conductor*%
G36*
X64787439Y-65113502D02*
G01*
X64833932Y-65167158D01*
X64844036Y-65237432D01*
X64839552Y-65257179D01*
X64793247Y-65404938D01*
X64786500Y-65478365D01*
X64786501Y-65991634D01*
X64793247Y-66065062D01*
X64795246Y-66071440D01*
X64795246Y-66071441D01*
X64839723Y-66213365D01*
X64844528Y-66228699D01*
X64920591Y-66354296D01*
X64938770Y-66422923D01*
X64929445Y-66462483D01*
X64930698Y-66462899D01*
X64876851Y-66625243D01*
X64866500Y-66726268D01*
X64866500Y-67323732D01*
X64877113Y-67426019D01*
X64879295Y-67432559D01*
X64910023Y-67524661D01*
X64916500Y-67564538D01*
X64916500Y-67986169D01*
X64915810Y-67999341D01*
X64911496Y-68040380D01*
X64912186Y-68046946D01*
X64912186Y-68046948D01*
X64916516Y-68088156D01*
X64916936Y-68093084D01*
X64925556Y-68224622D01*
X64926359Y-68228661D01*
X64926360Y-68228666D01*
X64960770Y-68401665D01*
X64961575Y-68405711D01*
X64962899Y-68409612D01*
X64962901Y-68409619D01*
X64974814Y-68444715D01*
X64981500Y-68485214D01*
X64981500Y-68779572D01*
X64992022Y-68880982D01*
X65022960Y-68973713D01*
X65025544Y-69044663D01*
X64989360Y-69105746D01*
X64925896Y-69137571D01*
X64873353Y-69133858D01*
X64873010Y-69135458D01*
X64866284Y-69134016D01*
X64859757Y-69131851D01*
X64852920Y-69131151D01*
X64852918Y-69131150D01*
X64811599Y-69126917D01*
X64758732Y-69121500D01*
X64161268Y-69121500D01*
X64158022Y-69121837D01*
X64158018Y-69121837D01*
X64123917Y-69125375D01*
X64058981Y-69132113D01*
X64052440Y-69134295D01*
X64052441Y-69134295D01*
X63903676Y-69183927D01*
X63903674Y-69183928D01*
X63896732Y-69186244D01*
X63751287Y-69276248D01*
X63630448Y-69397298D01*
X63626608Y-69403528D01*
X63626607Y-69403529D01*
X63545957Y-69534368D01*
X63540698Y-69542899D01*
X63486851Y-69705243D01*
X63486151Y-69712080D01*
X63486150Y-69712082D01*
X63482360Y-69749075D01*
X63476500Y-69806268D01*
X63476500Y-70353732D01*
X63487113Y-70456019D01*
X63489295Y-70462559D01*
X63529997Y-70584556D01*
X63541244Y-70618268D01*
X63631248Y-70763713D01*
X63752298Y-70884552D01*
X63758528Y-70888392D01*
X63758529Y-70888393D01*
X63802544Y-70915524D01*
X63897899Y-70974302D01*
X64060243Y-71028149D01*
X64067080Y-71028849D01*
X64067082Y-71028850D01*
X64108401Y-71033083D01*
X64161268Y-71038500D01*
X64758732Y-71038500D01*
X64778054Y-71036495D01*
X64848265Y-71049558D01*
X64853427Y-71052188D01*
X64859215Y-71055331D01*
X64918444Y-71089527D01*
X64924726Y-71091568D01*
X64924728Y-71091569D01*
X64931826Y-71093875D01*
X64950092Y-71101440D01*
X64962630Y-71107829D01*
X64970444Y-71109923D01*
X64971180Y-71110372D01*
X64975170Y-71111903D01*
X64974890Y-71112633D01*
X65031065Y-71146871D01*
X65044763Y-71167424D01*
X65045692Y-71166849D01*
X65134929Y-71311055D01*
X65254947Y-71430864D01*
X65399308Y-71519849D01*
X65406256Y-71522154D01*
X65406257Y-71522154D01*
X65553738Y-71571072D01*
X65553740Y-71571072D01*
X65560269Y-71573238D01*
X65660428Y-71583500D01*
X66519572Y-71583500D01*
X66522818Y-71583163D01*
X66522822Y-71583163D01*
X66556603Y-71579658D01*
X66620982Y-71572978D01*
X66781849Y-71519308D01*
X66926055Y-71430071D01*
X67045864Y-71310053D01*
X67059243Y-71288349D01*
X67076681Y-71260059D01*
X67134849Y-71165692D01*
X67142362Y-71143042D01*
X67186072Y-71011262D01*
X67186072Y-71011260D01*
X67188238Y-71004731D01*
X67198500Y-70904572D01*
X67198500Y-70370428D01*
X67187978Y-70269018D01*
X67134308Y-70108151D01*
X67045071Y-69963945D01*
X66925053Y-69844136D01*
X66911402Y-69835721D01*
X66858431Y-69803070D01*
X66780692Y-69755151D01*
X66703843Y-69729661D01*
X66626262Y-69703928D01*
X66626260Y-69703928D01*
X66619731Y-69701762D01*
X66605344Y-69700288D01*
X66539617Y-69673446D01*
X66498836Y-69615331D01*
X66495948Y-69544393D01*
X66531870Y-69483155D01*
X66595198Y-69451059D01*
X66605186Y-69449617D01*
X66614124Y-69448690D01*
X66614128Y-69448689D01*
X66620982Y-69447978D01*
X66781849Y-69394308D01*
X66926055Y-69305071D01*
X67045864Y-69185053D01*
X67134849Y-69040692D01*
X67164793Y-68950416D01*
X67186072Y-68886262D01*
X67186072Y-68886260D01*
X67188238Y-68879731D01*
X67198500Y-68779572D01*
X67198500Y-68245428D01*
X67187978Y-68144018D01*
X67134308Y-67983151D01*
X67045071Y-67838945D01*
X66925053Y-67719136D01*
X66890325Y-67697729D01*
X66802728Y-67643734D01*
X66755235Y-67590962D01*
X66743811Y-67520890D01*
X66749251Y-67496807D01*
X66770984Y-67431284D01*
X66773149Y-67424757D01*
X66783500Y-67323732D01*
X66783500Y-66749179D01*
X66789667Y-66710242D01*
X66791710Y-66703955D01*
X66798542Y-66682928D01*
X66804144Y-66629635D01*
X66817814Y-66499565D01*
X66818504Y-66493000D01*
X66818438Y-66492374D01*
X66837816Y-66426379D01*
X66891472Y-66379886D01*
X66943814Y-66368500D01*
X68680750Y-66368500D01*
X68748871Y-66388502D01*
X68795364Y-66442158D01*
X68805468Y-66512432D01*
X68800584Y-66533431D01*
X68771458Y-66623072D01*
X68770768Y-66629633D01*
X68770768Y-66629635D01*
X68762957Y-66703955D01*
X68751496Y-66813000D01*
X68752186Y-66819565D01*
X68767824Y-66968349D01*
X68771458Y-67002928D01*
X68830473Y-67184556D01*
X68833776Y-67190278D01*
X68833777Y-67190279D01*
X68912703Y-67326982D01*
X68925960Y-67349944D01*
X68928660Y-67352943D01*
X68952199Y-67418911D01*
X68936121Y-67488063D01*
X68920041Y-67510417D01*
X68905960Y-67526056D01*
X68902657Y-67531777D01*
X68845861Y-67630151D01*
X68810473Y-67691444D01*
X68751458Y-67873072D01*
X68750768Y-67879633D01*
X68750768Y-67879635D01*
X68734563Y-68033816D01*
X68731496Y-68063000D01*
X68732186Y-68069565D01*
X68742737Y-68169948D01*
X68751458Y-68252928D01*
X68810473Y-68434556D01*
X68905960Y-68599944D01*
X69033747Y-68741866D01*
X69081217Y-68776355D01*
X69178600Y-68847108D01*
X69188248Y-68854118D01*
X69194276Y-68856802D01*
X69194278Y-68856803D01*
X69333154Y-68918634D01*
X69362712Y-68931794D01*
X69450321Y-68950416D01*
X69543056Y-68970128D01*
X69543061Y-68970128D01*
X69549513Y-68971500D01*
X69740487Y-68971500D01*
X69746939Y-68970128D01*
X69746944Y-68970128D01*
X69839679Y-68950416D01*
X69927288Y-68931794D01*
X70096308Y-68856542D01*
X70166673Y-68847108D01*
X70230970Y-68877214D01*
X70236650Y-68882554D01*
X70698501Y-69344405D01*
X70732527Y-69406717D01*
X70727462Y-69477532D01*
X70684915Y-69534368D01*
X70618395Y-69559179D01*
X70609406Y-69559500D01*
X70550901Y-69559500D01*
X70482780Y-69539498D01*
X70457265Y-69517810D01*
X70455673Y-69516041D01*
X70455664Y-69516033D01*
X70451253Y-69511134D01*
X70368567Y-69451059D01*
X70302094Y-69402763D01*
X70302093Y-69402762D01*
X70296752Y-69398882D01*
X70290724Y-69396198D01*
X70290722Y-69396197D01*
X70128319Y-69323891D01*
X70128318Y-69323891D01*
X70122288Y-69321206D01*
X70022019Y-69299893D01*
X69941944Y-69282872D01*
X69941939Y-69282872D01*
X69935487Y-69281500D01*
X69744513Y-69281500D01*
X69738061Y-69282872D01*
X69738056Y-69282872D01*
X69657981Y-69299893D01*
X69557712Y-69321206D01*
X69551682Y-69323891D01*
X69551681Y-69323891D01*
X69389278Y-69396197D01*
X69389276Y-69396198D01*
X69383248Y-69398882D01*
X69377907Y-69402762D01*
X69377906Y-69402763D01*
X69351591Y-69421882D01*
X69228747Y-69511134D01*
X69224329Y-69516041D01*
X69224325Y-69516045D01*
X69114914Y-69637559D01*
X69100960Y-69653056D01*
X69005473Y-69818444D01*
X68946458Y-70000072D01*
X68945768Y-70006633D01*
X68945768Y-70006635D01*
X68934369Y-70115094D01*
X68926496Y-70190000D01*
X68927186Y-70196565D01*
X68945460Y-70370428D01*
X68946458Y-70379928D01*
X69005473Y-70561556D01*
X69100960Y-70726944D01*
X69228747Y-70868866D01*
X69273464Y-70901355D01*
X69373867Y-70974302D01*
X69383248Y-70981118D01*
X69389276Y-70983802D01*
X69389278Y-70983803D01*
X69546223Y-71053679D01*
X69557712Y-71058794D01*
X69651112Y-71078647D01*
X69738056Y-71097128D01*
X69738061Y-71097128D01*
X69744513Y-71098500D01*
X69935487Y-71098500D01*
X69941939Y-71097128D01*
X69941944Y-71097128D01*
X69952786Y-71094823D01*
X70023577Y-71100225D01*
X70080210Y-71143042D01*
X70104703Y-71209680D01*
X70104293Y-71231240D01*
X70095465Y-71315233D01*
X70091496Y-71353000D01*
X70092186Y-71359565D01*
X70109275Y-71522154D01*
X70111458Y-71542928D01*
X70170473Y-71724556D01*
X70265960Y-71889944D01*
X70339137Y-71971215D01*
X70369853Y-72035221D01*
X70371500Y-72055524D01*
X70371500Y-75566782D01*
X70370243Y-75584537D01*
X70366987Y-75607413D01*
X70366847Y-75620777D01*
X70367343Y-75624875D01*
X70367343Y-75624878D01*
X70368958Y-75638231D01*
X70369600Y-75645124D01*
X70378664Y-75783435D01*
X70382007Y-75834449D01*
X70382810Y-75838488D01*
X70382811Y-75838493D01*
X70422477Y-76037922D01*
X70423779Y-76044466D01*
X70492606Y-76247233D01*
X70587312Y-76439282D01*
X70706274Y-76617326D01*
X70708991Y-76620424D01*
X70708997Y-76620432D01*
X70784053Y-76706019D01*
X70788879Y-76711868D01*
X70789315Y-76712431D01*
X70793351Y-76719255D01*
X70809195Y-76735099D01*
X70814831Y-76741115D01*
X70819266Y-76746172D01*
X70825291Y-76753593D01*
X70837296Y-76769582D01*
X70846646Y-76779131D01*
X70849890Y-76781675D01*
X70849896Y-76781680D01*
X70871158Y-76798352D01*
X70882506Y-76808410D01*
X71185501Y-77111405D01*
X71219527Y-77173717D01*
X71214462Y-77244532D01*
X71171915Y-77301368D01*
X71105395Y-77326179D01*
X71096406Y-77326500D01*
X64124224Y-77326500D01*
X64107779Y-77325422D01*
X64088420Y-77322873D01*
X64088416Y-77322873D01*
X64080888Y-77321882D01*
X64073335Y-77322716D01*
X64073334Y-77322716D01*
X64043058Y-77322400D01*
X63995791Y-77316178D01*
X63964024Y-77307666D01*
X63906277Y-77283747D01*
X63877794Y-77267302D01*
X63843438Y-77240940D01*
X63830121Y-77229139D01*
X63827669Y-77226635D01*
X63823046Y-77220611D01*
X63795610Y-77198631D01*
X63785295Y-77189391D01*
X61811217Y-75215312D01*
X61800349Y-75202920D01*
X61788466Y-75187433D01*
X61788464Y-75187431D01*
X61783841Y-75181406D01*
X61777882Y-75176632D01*
X61756696Y-75154998D01*
X61727696Y-75117203D01*
X61711251Y-75088719D01*
X61703751Y-75070611D01*
X61687334Y-75030976D01*
X61678822Y-74999205D01*
X61673162Y-74956204D01*
X61672091Y-74938444D01*
X61672127Y-74935005D01*
X61673118Y-74927478D01*
X61672275Y-74919834D01*
X61669261Y-74892538D01*
X61668500Y-74878713D01*
X61668500Y-70915524D01*
X61688502Y-70847403D01*
X61700858Y-70831221D01*
X61774040Y-70749944D01*
X61850063Y-70618268D01*
X61866223Y-70590279D01*
X61866224Y-70590278D01*
X61869527Y-70584556D01*
X61928542Y-70402928D01*
X61930960Y-70379928D01*
X61947814Y-70219565D01*
X61948504Y-70213000D01*
X61943985Y-70170008D01*
X61929232Y-70029635D01*
X61929232Y-70029633D01*
X61928542Y-70023072D01*
X61869527Y-69841444D01*
X61851076Y-69809485D01*
X61804989Y-69729661D01*
X61774040Y-69676056D01*
X61727315Y-69624162D01*
X61650675Y-69539045D01*
X61650674Y-69539044D01*
X61646253Y-69534134D01*
X61524667Y-69445796D01*
X61497094Y-69425763D01*
X61497093Y-69425762D01*
X61491752Y-69421882D01*
X61485724Y-69419198D01*
X61485722Y-69419197D01*
X61323319Y-69346891D01*
X61323318Y-69346891D01*
X61317288Y-69344206D01*
X61221714Y-69323891D01*
X61136944Y-69305872D01*
X61136939Y-69305872D01*
X61130487Y-69304500D01*
X60939513Y-69304500D01*
X60933061Y-69305872D01*
X60933056Y-69305872D01*
X60848286Y-69323891D01*
X60752712Y-69344206D01*
X60746682Y-69346891D01*
X60746681Y-69346891D01*
X60584278Y-69419197D01*
X60584276Y-69419198D01*
X60578248Y-69421882D01*
X60572907Y-69425762D01*
X60572906Y-69425763D01*
X60545333Y-69445796D01*
X60423747Y-69534134D01*
X60419326Y-69539044D01*
X60419325Y-69539045D01*
X60342686Y-69624162D01*
X60295960Y-69676056D01*
X60265011Y-69729661D01*
X60218925Y-69809485D01*
X60200473Y-69841444D01*
X60141458Y-70023072D01*
X60140768Y-70029633D01*
X60140768Y-70029635D01*
X60126015Y-70170008D01*
X60121496Y-70213000D01*
X60122186Y-70219565D01*
X60139041Y-70379928D01*
X60141458Y-70402928D01*
X60200473Y-70584556D01*
X60203776Y-70590278D01*
X60203777Y-70590279D01*
X60219937Y-70618268D01*
X60295960Y-70749944D01*
X60369137Y-70831215D01*
X60399853Y-70895221D01*
X60401500Y-70915524D01*
X60401500Y-74866782D01*
X60400243Y-74884537D01*
X60396987Y-74907413D01*
X60396847Y-74920777D01*
X60397343Y-74924875D01*
X60398936Y-74938047D01*
X60399578Y-74944941D01*
X60410215Y-75107255D01*
X60411997Y-75134450D01*
X60412800Y-75138489D01*
X60412801Y-75138494D01*
X60452964Y-75340422D01*
X60453769Y-75344468D01*
X60522597Y-75547237D01*
X60524416Y-75550926D01*
X60524417Y-75550928D01*
X60569157Y-75641653D01*
X60617303Y-75739287D01*
X60736266Y-75917332D01*
X60738988Y-75920436D01*
X60814147Y-76006141D01*
X60818971Y-76011988D01*
X60819316Y-76012433D01*
X60823351Y-76019255D01*
X60839088Y-76034992D01*
X60844724Y-76041009D01*
X60849344Y-76046277D01*
X60855372Y-76053701D01*
X60867296Y-76069582D01*
X60876646Y-76079131D01*
X60879890Y-76081675D01*
X60879896Y-76081680D01*
X60901158Y-76098352D01*
X60912506Y-76108410D01*
X62500500Y-77696405D01*
X62534526Y-77758717D01*
X62529461Y-77829533D01*
X62486914Y-77886368D01*
X62420394Y-77911179D01*
X62411405Y-77911500D01*
X59784500Y-77911500D01*
X59716379Y-77891498D01*
X59669886Y-77837842D01*
X59658500Y-77785500D01*
X59658500Y-67018022D01*
X59659285Y-67003977D01*
X59660308Y-66994857D01*
X59687779Y-66929390D01*
X59696428Y-66919807D01*
X61480083Y-65136151D01*
X61490570Y-65126774D01*
X61497768Y-65121028D01*
X61563485Y-65094161D01*
X61576376Y-65093500D01*
X64719318Y-65093500D01*
X64787439Y-65113502D01*
G37*
%TD.AperFunction*%
%TD*%
M02*
